<svg id="Layer_1" data-name="Layer 1" xmlns="http://www.w3.org/2000/svg" viewBox="0 0 2272 1872"><defs><style>.cls-1{fill:#afe3fc;}.cls-2{fill:#fda16b;}.cls-10,.cls-11,.cls-12,.cls-14,.cls-15,.cls-16,.cls-17,.cls-18,.cls-19,.cls-2,.cls-20,.cls-21,.cls-22,.cls-23,.cls-24,.cls-25,.cls-27,.cls-28,.cls-29,.cls-3,.cls-30,.cls-31,.cls-33,.cls-34,.cls-35,.cls-37,.cls-38,.cls-39,.cls-4,.cls-40,.cls-42,.cls-43,.cls-44,.cls-45,.cls-46,.cls-48,.cls-49,.cls-5,.cls-50,.cls-51,.cls-52,.cls-54,.cls-55,.cls-56,.cls-57,.cls-58,.cls-59,.cls-6,.cls-60,.cls-62,.cls-63,.cls-7,.cls-8,.cls-9{fill-rule:evenodd;}.cls-3{fill:#231f20;}.cls-4{fill:#fefefe;}.cls-5{fill:#2a78fe;}.cls-6{fill:#0e49b0;}.cls-7{fill:#373435;}.cls-9{fill:#d97c46;}.cls-10{fill:#727376;}.cls-11{fill:#4b4b4d;}.cls-12{fill:#e88851;}.cls-13{fill:#fbf8ef;}.cls-14{fill:#ffc6bd;}.cls-15{fill:#e5a67c;}.cls-16{fill:#eb6754;}.cls-17{fill:#f0bf9e;}.cls-18{fill:#111f39;}.cls-19{fill:#d69c75;}.cls-20{fill:#195e50;}.cls-21{fill:#2d8e7b;}.cls-22{fill:#34b097;}.cls-23{fill:#ffdac2;}.cls-24{fill:#a37e65;}.cls-25{fill:#dea783;}.cls-26{fill:#fce0dd;}.cls-27{fill:#faac84;}.cls-28,.cls-32{fill:#4e2e35;}.cls-29{fill:#d68f5c;}.cls-30{fill:#f79868;}.cls-31{fill:#444492;}.cls-33{fill:#f2bdac;}.cls-34{fill:#f15a29;}.cls-35{fill:#fc8158;}.cls-36{fill:#e3e3e3;}.cls-37{fill:#fcda35;}.cls-38{fill:#fe4941;}.cls-39{fill:#27923c;}.cls-40{fill:#d67e4b;}.cls-41{fill:#3aba53;}.cls-42{fill:#160d04;}.cls-43{fill:#cf7744;}.cls-44{fill:#d6b822;}.cls-45{fill:#633b1b;}.cls-46{fill:#542e10;}.cls-47{fill:#fffbcc;}.cls-48{fill:#ff6b69;}.cls-49{fill:#1b2259;}.cls-50{fill:#de504d;}.cls-51{fill:#e34946;}.cls-52{fill:#e85654;}.cls-53{fill:#0074c5;}.cls-54{fill:#e68a8a;}.cls-55{fill:#ff5f5d;}.cls-56{fill:#ffacac;}.cls-57{fill:#f7e5e6;}.cls-58{fill:#e68383;}.cls-59{fill:#521e1e;}.cls-60,.cls-61{fill:#cfe87b;}.cls-62{fill:#d97777;}.cls-63{fill:#fff5f5;}</style></defs><rect class="cls-1" width="757.33" height="936"/><path class="cls-2" d="M468.29,132.59c1-1.11,19,48.78,25.48,86C539.1,479.77,323.48,567.66,233.4,391.37c-10.43-20.41-8-22.29-8-22.29s-13.54,4.77-34.24-13.54-33.44-42.2-33.44-64.49S182.84,259.2,184,271.14s4,26.27,4,26.27,2-2,5.18-10S198,275.52,198,275.52s4.38,19.51,11.94,36.62a351.42,351.42,0,0,0,17.92,34.24s-4.78-25.48-4.38-35.83,7.16-18.31,16.72-45.38,12.34-41,17.51-58.13,9.16-32.25,9.16-32.25a448.74,448.74,0,0,1,85.6-19.9c47-6,78-15.13,88.38-19.91S468.29,132.59,468.29,132.59Z" transform="translate(0)"/><path class="cls-3" d="M257.68,207c-5.17,17.12-8,31.05-17.51,58.13s-16.33,35-16.72,45.38,4.38,35.83,4.38,35.83a351.42,351.42,0,0,1-17.92-34.24C202.35,295,198,275.52,198,275.52l-4.78,11.94c-3.19,8-5.18,10-5.18,10s-2.78-14.33-4-26.27c-.53-5.37-5.9-6.4-11.65-3.87-4.44-25-10.35-66.84-5.46-99.24C188.77,23.27,399.54-7,490.19,83.62c20.7,20.71,4.78,29.46,4.78,29.46s35.83,41.41,33.44,89.18-35.1,78.6-35.1,78.6c2.28-23.85,2.91-46.52.46-62.27-5.57-35.83-25.48-86-25.48-86-10.12,5-173.55,42.24-201.45,42.2C266.84,174.79,262.86,189.92,257.68,207Z" transform="translate(0)"/><path class="cls-4" d="M271.53,494.5S178,531,151.52,538.12s-32.91,7.16-32.91,7.16S70.67,681.21,56.36,718.41s-22.18,59.38-22.18,59.38S81.4,805,113.6,816.42s45.07,6.45,45.07,6.45l17.89-40.07L167.73,936H571.36l9.42-193.26,28.61,68s75.84-33.62,91.58-55.8a163.05,163.05,0,0,0,22.18-45.79S662.34,609,639.44,579.62s-33.62-36.49-33.62-36.49c-26.44-5.39-99.81-31.65-143.88-47.84.55,20.09-3.79,56.47-45.71,71.45C356.54,588.07,201,570.05,271.53,494.5Z" transform="translate(0)"/><path class="cls-5" d="M516.94,213.31s-17.18-5.56-44.1-2.7-47.29,11.27-53.19,15.44-5.69,8.21-15.27,9.67-18.3,3.19-24.77.9-21.4-11.85-63.95-7S263,242.91,252.16,247a142.85,142.85,0,0,1-15.94,5.28l.83,16.2s12.77-1.94,16.5,6.48,6.11,32.14,17.94,40.15,37.48,10.23,61.31,5.79,32.68-10.68,41.69-23.89,8.82-36,12.2-40.65,16.5-7,18.36-2.79,11.53,38.27,26.5,45.38,48,1.29,59.46-3.72,22.37-14,24.72-25.4,4.75-30.53,8.5-32.73S516.94,213.31,516.94,213.31Z" transform="translate(0)"/><path class="cls-4" d="M504.07,222.61s-15.89-5.14-40.27-1.64-45.71,14.91-48.5,19.41,2.75,39.6,15.41,47.68,38.6,9.45,54.13,2.8,26.09-37.85,25.92-51.1S507.15,222.75,504.07,222.61Z" transform="translate(0)"/><path class="cls-4" d="M373,248s-10.43-13.52-35.35-13.61-65.52,12.2-71.73,17-1,34.87,5.69,48.14,31.12,23.44,57.39,15S384.68,292.81,373,248Z" transform="translate(0)"/><polygon class="cls-6" points="236.22 252.29 188.01 258.8 191.9 262.9 189.58 265.09 194.51 268.01 237.05 268.49 236.22 252.29"/><path class="cls-7" d="M330.06,293.75a11.45,11.45,0,1,0-11.44-11.45A11.47,11.47,0,0,0,330.06,293.75Z" transform="translate(0)"/><path class="cls-8" d="M336.47,257.82a2.74,2.74,0,1,0,3.45-4.27c-.05,0-17.51-14.44-31.22,5.31a2.74,2.74,0,1,0,4.5,3.13C323.51,247.13,336.43,257.79,336.47,257.82Z" transform="translate(0)"/><path class="cls-4" d="M324.94,280.2a2.47,2.47,0,1,0-2.3-2.46A2.39,2.39,0,0,0,324.94,280.2Z" transform="translate(0)"/><path class="cls-7" d="M462,280.69a11.45,11.45,0,1,0-11.45-11.45A11.47,11.47,0,0,0,462,280.69Z" transform="translate(0)"/><path class="cls-8" d="M472.17,245.73a2.74,2.74,0,0,0,4-3.75s-15.4-16.69-31.66,1a2.74,2.74,0,0,0,4.05,3.7C460.78,233.39,472.14,245.7,472.17,245.73Z" transform="translate(0)"/><path class="cls-4" d="M456.85,267.14a2.47,2.47,0,1,0-2.3-2.46A2.38,2.38,0,0,0,456.85,267.14Z" transform="translate(0)"/><path class="cls-9" d="M402.51,270.34a2.74,2.74,0,0,0-5.48.13c0,.08.72,27.77,4.69,51.54,2.76,16.56,9.56,24.77,13.87,28.44l-12.65,8.15a2.74,2.74,0,1,0,3,4.61L422,352.84l4.18-2.7-4.51-2.1s-10.85-4.77-14.55-26.93C403.22,297.66,402.51,270.42,402.51,270.34Z" transform="translate(0)"/><path class="cls-9" d="M188,297.41s2-2,5.18-10l3.9-9.76,1.41.07a229,229,0,0,0,10.93,33.28c-.62,4.45-.6,8.83,1.47,12.65,4.65,8.59,10,26.47-.72,21.46s-37.92-35.41-37.92-53.65c0-8,6-11.51,12.66-13C186.24,288.3,188,297.41,188,297.41Z" transform="translate(0)"/><path class="cls-10" d="M499.05,255.18c-.71-12.16-5-34.58-5-34.58a63,63,0,0,1,10,2c3.08.14,6.51,3.91,6.69,17.15.09,7.15-2.94,19.52-8.19,30.45a69.85,69.85,0,0,1-5.64,9.74c.19-1,.4-2.25.61-3.6C498.46,270.55,499.46,262.21,499.05,255.18Z" transform="translate(0)"/><path class="cls-11" d="M468.35,132.74c19-12,26.62-19.66,26.62-19.66s35.83,41.41,33.44,89.18a112.94,112.94,0,0,1-4.67,26.86,135,135,0,0,0-6.8-15.82s-9.22-3-24.74-3.44C485.41,176.31,469.41,135.45,468.35,132.74Z" transform="translate(0)"/><path class="cls-11" d="M235.06,169.5a283.61,283.61,0,0,0,31.78,5.29s-4,15.13-9.16,32.25c-4.06,13.46-6.65,25-12.22,42.39-6.25,2.16-9.24,2.86-9.24,2.86L188,258.79l3.89,4.11-2.32,2.19,4.94,2.92,42.53.48s.77-.11,2-.16c-8.95,24.55-15.2,32.28-15.58,42.22-.4,10.35,4.38,35.83,4.38,35.83a351.42,351.42,0,0,1-17.92-34.24l-.48-1.09a229,229,0,0,1-10.93-33.28c-.35-1.44-.53-2.25-.53-2.25l-.88,2.18-3.9,9.76c-3.19,8-5.18,10-5.18,10s-1.77-9.11-3.09-18.86c-.34-2.48-.64-5-.89-7.41-.53-5.37-5.9-6.4-11.65-3.87-4.44-25-10.35-66.84-5.46-99.24a146.43,146.43,0,0,1,11.23-38.49C189,133.76,201.79,138,201.79,138s-7.87,2.51,0,7.16,29,10,29,10l-16.46,4.65S217.53,165.57,235.06,169.5Z" transform="translate(0)"/><path class="cls-12" d="M423.61,463.43c-42.29,28.14-95.08,27.1-139.23-7.61,1.79,15,2.89,27.56,1.81,29-1.54,2.12-10.53,7.62-18.67,11.75-59.92,73,85.8,92.94,148.71,70.13,42.74-15.5,48.17-49.5,46.86-71-16-5.89-28.38-10.51-33.44-12.42a8.06,8.06,0,0,1-2.52-.94C424,480.34,423.43,471.53,423.61,463.43Z" transform="translate(0)"/><path class="cls-5" d="M176.56,782.8S172.1,581,118.61,545.28c0,0-47.94,135.93-62.25,173.13s-22.18,59.38-22.18,59.38S81.4,805,113.6,816.42s45.07,6.45,45.07,6.45Z" transform="translate(0)"/><path class="cls-5" d="M605.82,543.13c-41.66,29.3-25,199.61-25,199.61l28.61,68s75.84-33.62,91.58-55.8a163.05,163.05,0,0,0,22.18-45.79S662.34,609,639.44,579.62,605.82,543.13,605.82,543.13Z" transform="translate(0)"/><path class="cls-5" d="M271.53,494.5s-13.56,5.29-31.81,12.23a82.92,82.92,0,0,0-3.62,37.86c5.72,38.64,55.09,46.51,108.75,50.8s103.73-5,123.77-38.64c10.4-17.46,16.37-37,19.7-51.85-9-3.25-17.55-6.36-25.23-9.18,1.24,20.42-3.58,52.07-40.58,68.49-2,.9-4.09,1.75-6.28,2.53C376.3,581.22,303,578.47,270.1,555.87c-8.83-5.87-14.72-13.13-16.2-21.89h0c-2.09-10.4,1.69-22.83,13.62-37.36C268.84,495.94,270.19,495.23,271.53,494.5Z" transform="translate(0)"/><path class="cls-9" d="M337.19,177.83c44-6.44,130.93-31.84,130.93-31.84l14.7,28.22c-6.71-21.66-13.78-39.7-14.47-41.47l-.06-.15c-10.12,5-173.55,42.24-201.45,42.2,0,0-2.59,9.87-6.32,22.67L271.73,185S293.19,184.27,337.19,177.83Z" transform="translate(0)"/><path class="cls-2" d="M701,754.9c-9.9,13.94-43.53,32.4-67.15,44.19,8.37,15.51,18.12,35.72,20.4,49.39,2.54,15.22-3.42,57.1-8.47,87.52h83.87c7.08-40.26,16.56-103.37,11.06-126.06-4.95-20.4-18.69-51.05-29-72.62A149,149,0,0,1,701,754.9Z" transform="translate(0)"/><path class="cls-2" d="M113.6,816.42c-18.95-6.73-43.09-18.92-59.76-27.8C39.41,826.58,22,880.68,14.63,936h90.63s8.15-56.32,30.63-113.42A144.07,144.07,0,0,1,113.6,816.42Z" transform="translate(0)"/><path class="cls-4" d="M367.22,397.93s18.75,5.73,34.38,2.61,27.61-13,27.61-13,3.64,20.31-21.88,29.16S367.22,397.93,367.22,397.93Z" transform="translate(0)"/><path class="cls-9" d="M421.9,422.41s-.52,4.69-13.8,6-18.23-1.56-18.23-1.56S417.21,446.63,421.9,422.41Z" transform="translate(0)"/><rect class="cls-13" x="757.33" width="757.33" height="936"/><path class="cls-14" d="M1028.86,494.5s-93.54,36.47-120,43.62-32.91,7.16-32.91,7.16C929.43,581,933.89,782.8,933.89,782.8L925.06,936h403.63l9.42-193.26s-16.62-170.31,25-199.61c-26.44-5.39-99.81-31.65-143.88-47.84.55,20.09-3.79,56.47-45.71,71.45C1113.87,588.07,958.35,570.05,1028.86,494.5Z" transform="translate(0)"/><path class="cls-15" d="M1180.94,463.43c-42.29,28.14-95.07,27.1-139.23-7.61,1.79,15,2.89,27.56,1.82,29-1.55,2.12-10.54,7.62-18.68,11.75-59.92,73,85.81,92.94,148.71,70.13,42.74-15.5,48.17-49.5,46.86-71-16-5.89-28.37-10.51-33.44-12.42a7.9,7.9,0,0,1-2.51-.94C1181.34,480.34,1180.77,471.53,1180.94,463.43Z" transform="translate(0)"/><polygon class="cls-16" points="1024.85 496.61 1102.29 575.45 1041.8 580.07 1005.35 607.15 1002.01 504.84 1024.85 496.61"/><polygon class="cls-16" points="1220.42 496.61 1142.98 575.45 1203.46 580.07 1239.92 607.15 1243.26 504.84 1220.42 496.61"/><path class="cls-17" d="M987.45,193.84c-8.71,17.91-17.44,47.9-13.33,73.2s4.57,61.14,4.57,61.14-4.22-15.67-5.35-23.58c-.64-4.48-6.14-13.3-12.76-19.38-5.07-4.67-10.8-7.73-15.49-6-10.81,4.05-8,16.58-1.34,35.05s17.42,41.48,23.22,59.33,20.9,11.12,20.9,11.12.33,3.92,3.78,21.39,26,42.38,45.32,57.11,56.69,37.7,92,31.35,89-48.36,102.64-69.82,25.84-61,25.84-61,17.24,4.6,31.15-3.76,14.13-18.61,20.09-34.43c9.86-26.18,14.51-55.84-22.35-62.44,0,0-17.19-4.24-22.42,1.19s-9.6,26.46-9.6,26.46l-9.25.43a164.85,164.85,0,0,0-5.41-35.17c-5.1-19.19-16.57-25.88-29-47.23s-5.52-79.16-5.52-79.16-10.89,19.49-64.49,25.29-61.1-7.5-61.1-7.5S1069.58,170,1041.71,178s-28.18-7.95-28.18-7.95S996.15,175.93,987.45,193.84Z" transform="translate(0)"/><path class="cls-18" d="M974.12,267c-4.11-25.3,4.62-55.29,13.33-73.2s26.08-23.78,26.08-23.78.3,16,28.18,7.95,37.81-30.58,37.81-30.58,7.5,13.29,61.1,7.5,64.49-25.29,64.49-25.29-7,57.81,5.52,79.16,23.95,28,29,47.23a164.85,164.85,0,0,1,5.41,35.17l9.25-.43s4.37-21,9.6-26.46,22.42-1.19,22.42-1.19,8-111.75,1.58-142.26-32.83-41.81-32.83-41.81a28.94,28.94,0,0,1,19.76,1.76c10.57,4.86,13.83,7.08,13.83,7.08s-4-14.17-18.89-17.56a57.66,57.66,0,0,0-26.57,0s3.33-8.64-2.1-22.81a38.89,38.89,0,0,0-17.3-20s9.85,10.78,8.72,22.19-1.43,13.3-1.43,13.3S1194-1.63,1101.91,12.41,970.48,60.17,952.8,103.68s-14,77.44-4.07,111.42,6.13,39.64,7.51,51.94c.48,4.25,2.2,11.09,4.34,18.18,6.62,6.08,12.12,14.9,12.76,19.38,1.13,7.91,5.35,23.58,5.35,23.58S978.23,292.35,974.12,267Z" transform="translate(0)"/><path class="cls-19" d="M1294.57,280.25s-18.88.34-23.42,13.28,0,18.17-5.25,27.26-10.83,20.27,1.4,22.72S1316.93,333,1294.57,280.25Z" transform="translate(0)"/><path class="cls-19" d="M953.79,304s9.09,5.24,11.89,14.33,2.1,18.53,7,25.51,8,15.73,5.94,18.53S940.86,298.42,953.79,304Z" transform="translate(0)"/><path class="cls-20" d="M1233.16,258.25h12.53V282h-12.53a59.16,59.16,0,0,0,0-23.71Z" transform="translate(0)"/><path class="cls-21" d="M1039.44,211.39A58.72,58.72,0,1,0,1097,282h21.17a58.72,58.72,0,1,0,0-23.71H1097a58.72,58.72,0,0,0-57.51-46.86Zm136.2,15.81a42.91,42.91,0,1,1-42.91,42.9,42.9,42.9,0,0,1,42.91-42.9Zm-136.2,0a42.91,42.91,0,1,1-42.91,42.9A42.9,42.9,0,0,1,1039.44,227.2Z" transform="translate(0)"/><path class="cls-22" d="M1262.11,265.38l-16.42-7.31v23.72l10.34,1.33C1256.86,279.07,1258.9,270.53,1262.11,265.38Z" transform="translate(0)"/><path class="cls-20" d="M981.92,258.25H969.39V282h12.53a59.16,59.16,0,0,1,0-23.71Z" transform="translate(0)"/><path class="cls-23" d="M1222.17,270.1a46.53,46.53,0,1,0-46.53,46.53A46.53,46.53,0,0,0,1222.17,270.1Z" transform="translate(0)"/><path class="cls-23" d="M1086.26,270.1a46.53,46.53,0,1,0-46.53,46.53A46.53,46.53,0,0,0,1086.26,270.1Z" transform="translate(0)"/><path class="cls-24" d="M1101.45,284.43a.84.84,0,1,1,1.67,0c0,.09.7,32.27-4.92,53.35-4.68,17.55-9.85,27.33-11.47,30.14,4.06,1.61,21,8.15,33.11,9.36a.83.83,0,0,1-.16,1.66c-14.1-1.41-34.43-9.82-34.49-9.84l-.92-.38.53-.84s6.22-9.68,11.78-30.52S1101.45,284.52,1101.45,284.43Z" transform="translate(0)"/><path class="cls-24" d="M1056.53,405.42a.84.84,0,0,1,.64-1.55c.11,0,36.13,15.28,71.54,9,35-6.19,35-9.05,35-9.06a.83.83,0,0,1,.92-.74.85.85,0,0,1,.74.93s-.06,4.11-36.34,10.52C1093.1,420.89,1056.63,405.46,1056.53,405.42Z" transform="translate(0)"/><path class="cls-24" d="M1087.37,429.91a.84.84,0,1,1,.48-1.6c.05,0,18,5.52,37.3.69a.84.84,0,1,1,.41,1.62C1105.76,435.57,1087.42,429.93,1087.37,429.91Z" transform="translate(0)"/><path class="cls-7" d="M1191.53,286.31A12.32,12.32,0,1,0,1179.22,274,12.34,12.34,0,0,0,1191.53,286.31Z" transform="translate(0)"/><path class="cls-4" d="M1186,271.73a2.65,2.65,0,1,0-2.48-2.64A2.57,2.57,0,0,0,1186,271.73Z" transform="translate(0)"/><path class="cls-7" d="M1049.8,286.31A12.32,12.32,0,1,0,1037.49,274,12.34,12.34,0,0,0,1049.8,286.31Z" transform="translate(0)"/><path class="cls-4" d="M1044.53,271.34a2.66,2.66,0,1,0-2.48-2.65A2.57,2.57,0,0,0,1044.53,271.34Z" transform="translate(0)"/><path class="cls-24" d="M1141.05,208.52a.84.84,0,0,1-1.17-.14.83.83,0,0,1,.13-1.17c.09-.08,30.84-24.82,54.4-12a.85.85,0,0,1,.33,1.14.84.84,0,0,1-1.13.33C1171,184.4,1141.14,208.45,1141.05,208.52Z" transform="translate(0)"/><path class="cls-24" d="M1075.14,207.21a.83.83,0,0,1,.13,1.17.84.84,0,0,1-1.17.14c-.09-.07-30-24.12-52.56-11.81a.84.84,0,0,1-1.13-.33.85.85,0,0,1,.33-1.14C1044.3,182.39,1075.05,207.13,1075.14,207.21Z" transform="translate(0)"/><path class="cls-16" d="M1144.86,573.53a235.13,235.13,0,0,1-42.57,1.92l-18.85,1.44v137a30.29,30.29,0,0,0,30.2,30.21h5.21a30.29,30.29,0,0,0,30.21-30.21v-138l-6.08-.46Z" transform="translate(0)"/><path class="cls-14" d="M1117.29,630.57A13.54,13.54,0,1,0,1103.75,617,13.56,13.56,0,0,0,1117.29,630.57Z" transform="translate(0)"/><path class="cls-14" d="M1117.29,699.83a13.54,13.54,0,1,0-13.54-13.54A13.56,13.56,0,0,0,1117.29,699.83Z" transform="translate(0)"/><path class="cls-16" d="M875.94,545.28s-30,110.8-37.31,151.42l-7.29,40.63s46.66,25.61,101.39,19.4C929.46,701,917.49,573,875.94,545.28Z" transform="translate(0)"/><path class="cls-16" d="M1363.15,543.13c-41.66,29.3-25,199.61-25,199.61s37,1.88,60.94-5.41,35.41-19.79,35.41-19.79S1392.73,551.27,1363.15,543.13Z" transform="translate(0)"/><path class="cls-17" d="M858.69,748.48c-5,47.14-13.1,131.43-13.82,187.52h80.19l8.83-153.2s-.22-10-1.16-26.07C904,760,877.4,754.46,858.69,748.48Z" transform="translate(0)"/><path class="cls-25" d="M858.69,748.48c-.52,4.94-1.08,10.29-1.66,16,10,2.9,23.29,6.16,34.19,6.72,20.32,1,25.52,1,25.52,1s7.81,94.27-.52,135.42c-2.65,13.11-4.51,22.14-5.82,28.37h14.66l8.83-153.2s-.22-10-1.16-26.07C904,760,877.4,754.46,858.69,748.48Z" transform="translate(0)"/><path class="cls-17" d="M1338.11,742.74,1328.69,936h75.18c6.46-51.45,14.52-140.42,2.94-201.37-2.42,1-5,1.86-7.76,2.7C1375.09,744.62,1338.11,742.74,1338.11,742.74Z" transform="translate(0)"/><path class="cls-25" d="M1349.81,764.93s5.21,0,25.52-1.25c11.05-.67,24.57-4.66,34.6-8.16-.82-7.24-1.85-14.23-3.12-20.89-2.42,1-5,1.86-7.76,2.7-24,7.29-60.94,5.41-60.94,5.41L1328.69,936h23.25c-.5-2.94-1-6.08-1.61-9.46C1342,877.44,1349.81,764.93,1349.81,764.93Z" transform="translate(0)"/><rect class="cls-26" x="1514.67" width="757.33" height="936"/><path class="cls-27" d="M1709.32,372.48S1688.55,358,1684.77,388s12.07,28.18,19.88,55.1,2.62,31.88,14.85,43.87,24.56,1.71,24.56,1.71c18,123.93,191,145.49,262.45,77.8,40.67-38.55,56.2-87.79,56.2-87.79s17.7,2.92,22.53-21.18S2097,421,2101.39,388.9s-.23-49.75-10.35-51.24-21.59,20.76-22.43,30.26l-.84,9.5S2064,326,2050.34,306.21s-8.34-47-11.18-68.77-23.1-50.49-29-55.5-14,20.68-18.87,27.6l-4.83,6.92s.18-21.76,1.59-28.08-12.91,1.28-18.29,19.42l-5.38,18.14s-3.49-14-3.94-25.08l-.44-11s-12.24,10.76-21.75,17a53.14,53.14,0,0,1-17.84,7.71L1935,197.28s-32.43-3.35-54.11-3.05-62.26,8-81.39,17-55.5,29-57.37,38.47-2.6,25.23-1.35,43.7-4.94,29.18-9.22,42.07-7.19,25-6.66,36.56-1.42,29.06-1.42,29.06S1716.89,381,1709.32,372.48Z" transform="translate(0)"/><path class="cls-28" d="M2050.34,306.21c13.62,19.83,17.43,71.21,17.43,71.21l.84-9.5c.56-6.3,5.8-18.23,12.22-25.1,1.18-12.66,3.5-26.05,4.56-41.3,1.57-22.52-8-33.95-8-33.95s13.2,3.21,24.7-.34,8.06-11.54,8.06-11.54-9.42,6.72-19.07,6.42-18.81-14.86-18.81-14.86,26.06-4.12,29.85-16.92-4.78-27-4.78-27,.38,5-2.26,18.59-17.34,16.22-26.4,2.16-9-27.73-15-47.38-21.93-23.91-21.93-23.91-49.75-64-104.06-62.42-79.85,0-148.09,31.31-66.14,60.24-84.26,112-6.51,83,4,102.39,10,36.39,10,36.39c7.57,8.51,14.16,28.57,14.16,28.57s2-17.53,1.42-29.06,2.37-23.67,6.66-36.56,10.48-23.59,9.22-42.07-.52-34.27,1.35-43.7,38.23-29.52,57.37-38.47,59.71-16.65,81.39-17,54.11,3.05,54.11,3.05l-14.63,17.25a53.14,53.14,0,0,0,17.84-7.71c9.51-6.24,21.75-17,21.75-17l.44,11c.45,11,3.94,25.08,3.94,25.08l5.38-18.14c5.38-18.14,19.7-25.73,18.29-19.42s-1.59,28.08-1.59,28.08l4.83-6.92c4.85-6.92,12.92-32.61,18.87-27.6s26.2,33.76,29,55.5S2036.72,286.39,2050.34,306.21Z" transform="translate(0)"/><path class="cls-29" d="M1701.79,392.76s27,18.46,26.94,26.56-11.72,13.7-5.48,23.21,14.48,24.72,5.86,21.71S1691.3,407.76,1701.79,392.76Z" transform="translate(0)"/><path class="cls-29" d="M2092,367.55s-19.08,15-19.67,28.76,5.68,12.13-.5,22.83-7.79,30.19-.73,24.39S2094.45,395.43,2092,367.55Z" transform="translate(0)"/><path class="cls-30" d="M1808.3,581.33c1,12.68,1.65,26.61.47,28.53-1.31,2.13-11.54,9.9-20.47,15.28-65.63,94.87,94,120.77,162.92,91.13,46.83-20.14,52.77-64.32,51.34-92.3-17.58-7.65-31.09-13.65-36.63-16.13a5.29,5.29,0,0,1-2.76-1.23c-1-.75-2.57-7-3.54-12.42C1912.54,610.81,1853.09,607,1808.3,581.33Z" transform="translate(0)"/><path class="cls-31" d="M2134,668.13c-41.66,29.3-25,199.61-25,199.61s34.68,6,74.27-3.4,47.91-26,47.91-26S2186.84,665.67,2134,668.13Z" transform="translate(0)"/><path class="cls-31" d="M1646.77,670.28c45.59,22.71,55.58,193.47,55.58,193.47a211.47,211.47,0,0,1-74.8,7.9c-40.54-3.32-51.28-18.55-51.28-18.55S1594.14,675.78,1646.77,670.28Z" transform="translate(0)"/><path class="cls-30" d="M1602.15,867.27c.19,21.29.56,47.07,1.25,68.73h99.7l1.62-28.2s-.39-17.93-2.37-44a211.47,211.47,0,0,1-74.8,7.9A131.53,131.53,0,0,1,1602.15,867.27Z" transform="translate(0)"/><path class="cls-30" d="M2108.94,867.74,2105.62,936h96.6c-.28-22.6-1.79-49.86-6.31-75.23-3.83,1.26-8,2.47-12.7,3.57C2143.62,873.71,2108.94,867.74,2108.94,867.74Z" transform="translate(0)"/><path class="cls-28" d="M1976.2,277.83a74.11,74.11,0,0,1,53.36,22.79,79.56,79.56,0,0,1,0,110.06,73.85,73.85,0,0,1-106.71,0,79.56,79.56,0,0,1,0-110.06,74.11,74.11,0,0,1,53.35-22.79Zm41.55,35a57.52,57.52,0,0,0-83.09,0,62,62,0,0,0,0,85.69,57.49,57.49,0,0,0,83.09,0,62,62,0,0,0,0-85.69Z" transform="translate(0)"/><path class="cls-28" d="M1821.54,277.83a74.13,74.13,0,0,1,53.36,22.79,79.56,79.56,0,0,1,0,110.06,73.85,73.85,0,0,1-106.71,0,79.54,79.54,0,0,1,0-110.06,74.09,74.09,0,0,1,53.35-22.79Zm41.54,35a57.51,57.51,0,0,0-83.08,0,62,62,0,0,0,0,85.69,57.48,57.48,0,0,0,83.08,0,61.94,61.94,0,0,0,0-85.69Z" transform="translate(0)"/><rect class="cls-32" x="1887.53" y="345.36" width="19.36" height="16.15"/><path class="cls-33" d="M1880.29,355.65a61.4,61.4,0,0,0-17.21-42.85,57.51,57.51,0,0,0-83.08,0,62,62,0,0,0,0,85.69,57.48,57.48,0,0,0,83.08,0A61.36,61.36,0,0,0,1880.29,355.65Z" transform="translate(0)"/><path class="cls-33" d="M1934.66,312.8a62,62,0,0,0,0,85.69,57.49,57.49,0,0,0,83.09,0,62,62,0,0,0,0-85.69,57.52,57.52,0,0,0-83.09,0Z" transform="translate(0)"/><path class="cls-29" d="M1848.45,543a2.49,2.49,0,0,1-3.87-3.15,44,44,0,0,1,5.94-6c11.54-9.75,28.21-14.39,44.73-14.33s33,4.82,44.19,13.87a42.75,42.75,0,0,1,5.78,5.62,2.49,2.49,0,1,1-3.81,3.22,38.27,38.27,0,0,0-5.11-5c-10.28-8.32-25.6-12.69-41-12.75s-30.91,4.2-41.51,13.15A39.53,39.53,0,0,0,1848.45,543Z" transform="translate(0)"/><path class="cls-28" d="M1755.3,332.48l-10.42,1.08-32.81,4.35s1.47,7.78-1,8.32,5,0,4.17,1.81-4.69,2.9-3.91,4.35,37.5,2.54,37.5,2.54Z" transform="translate(0)"/><path class="cls-28" d="M2032.09,332.48l10.42,1.08,32.81,4.35s-1.46,7.78,1,8.32-4.95,0-4.17,1.81,4.69,2.9,3.91,4.35-37.5,2.54-37.5,2.54Z" transform="translate(0)"/><path class="cls-7" d="M1976.85,391.33c8.81,0,16-8,16-17.84s-7.18-17.83-16-17.83-16,8-16,17.83S1968,391.33,1976.85,391.33Z" transform="translate(0)"/><path class="cls-4" d="M1969.69,370.22c1.78,0,3.22-1.72,3.22-3.83s-1.44-3.83-3.22-3.83-3.21,1.72-3.21,3.83S1967.92,370.22,1969.69,370.22Z" transform="translate(0)"/><path class="cls-7" d="M1821.54,391.33c8.81,0,16-8,16-17.84s-7.18-17.83-16-17.83-16,8-16,17.83S1812.73,391.33,1821.54,391.33Z" transform="translate(0)"/><path class="cls-4" d="M1814.39,370.22c1.77,0,3.22-1.72,3.22-3.83s-1.45-3.83-3.22-3.83-3.22,1.72-3.22,3.83S1812.62,370.22,1814.39,370.22Z" transform="translate(0)"/><path class="cls-29" d="M1873.81,448.46a2.49,2.49,0,0,1,4.41,2.3,49.46,49.46,0,0,0-4.93,19.78,6.21,6.21,0,0,0,.46,2.7h0c1,2.23,3.39,3.74,6.2,4.73a33,33,0,0,0,9.39,1.68,17.83,17.83,0,0,0,3.66-.05,2.5,2.5,0,1,1,2,4.59,18.35,18.35,0,0,1-5.82.45,39.09,39.09,0,0,1-10.85-2c-4-1.42-7.52-3.75-9.12-7.48h0a11.16,11.16,0,0,1-.85-4.86A54.62,54.62,0,0,1,1873.81,448.46Z" transform="translate(0)"/><path class="cls-29" d="M1905.38,482.27a2.49,2.49,0,0,1-.92-4.9s8.12-1.48,12.91-4.59a2.49,2.49,0,0,1,2.71,4.18C1914.44,480.63,1905.4,482.27,1905.38,482.27Z" transform="translate(0)"/><path class="cls-29" d="M1872.08,548.8s14.58-4.16,27.61-3.12,18.75,4.17,18.75,4.17S1896,520.16,1872.08,548.8Z" transform="translate(0)"/><path class="cls-7" d="M1962.43,350.78a4,4,0,0,1,5.25-6A51.91,51.91,0,0,0,1998,356.3a4,4,0,0,1-.31,8A60.44,60.44,0,0,1,1962.43,350.78Z" transform="translate(0)"/><path class="cls-7" d="M1830,350.78a4,4,0,0,0-5.25-6,51.91,51.91,0,0,1-30.35,11.52,4,4,0,0,0,.32,8A60.43,60.43,0,0,0,1830,350.78Z" transform="translate(0)"/><path class="cls-34" d="M1781.74,626.44c-28.52,10.94-82.88,31.5-102.06,36.68-26.47,7.16-32.91,7.16-32.91,7.16,53.5,35.74,58,237.52,58,237.52L1703.1,936h402.52l3.32-68.26s-16.62-170.31,25-199.61c-21.06-4.29-71.9-21.83-114-37l-35.78-15.22-91.34,84c-8.32.25-16.86.09-25.32-.48L1799,618.06Z" transform="translate(0)"/><polygon class="cls-35" points="1781.74 626.44 1856.44 718.6 1900.19 719.64 2002.56 623.97 2027.51 633.86 1916.34 737.35 1852.27 741.52 1759.89 634.76 1781.74 626.44"/><rect class="cls-36" y="936" width="757.33" height="936"/><path class="cls-37" d="M271.53,1505.59s-93.55,36.46-120,43.62-32.91,7.15-32.91,7.15S70.67,1692.29,56.36,1729.5s-22.18,59.38-22.18,59.38,47.22,27.18,79.42,38.63,45.07,6.44,45.07,6.44l17.89-40.06L172.05,1872H575l5.76-118.18,28.61,68S685.23,1788.16,701,1766a162.93,162.93,0,0,0,22.18-45.78S662.34,1620,639.44,1590.7s-33.62-36.49-33.62-36.49c-26.44-5.38-99.81-31.64-143.88-47.83,0,0-28.53-5.05-56.66-5.05S271.53,1505.59,271.53,1505.59Z" transform="translate(0)"/><path class="cls-38" d="M476.17,1872h41.12c1.66-30,20.58-278.17,17.59-316-.94-11.89-4.27-20.4-8.46-26.48-7.87-2.74-15.78-5.53-23.52-8.29,1.32,14.68,3.64,52.31-.33,108.73C497.89,1696.25,479.85,1838.72,476.17,1872Z" transform="translate(0)"/><path class="cls-38" d="M229.83,1521.56c-7.76,2.93-16,6-24.22,9-3.85,6-6.84,14.19-7.72,25.37-3,37.85,15.92,286,17.59,316H256.6c-3.69-33.28-21.73-175.75-26.4-242.06C226.26,1574,228.51,1536.47,229.83,1521.56Z" transform="translate(0)"/><path class="cls-39" d="M437.54,1503.13a322.94,322.94,0,0,0-32.26-1.8c-25.54,0-115,3.51-131.22,4.16,0,0-12,36.47-7.85,64.07,2.9,19.27,40.07,12.4,62.25,6.49v84.09c.34,10.91,2.92,15.48,7.42,14.59h31.78c4.83-.1,8.36-2.6,8.33-11.73v-88c16.47,6,61.44,18.16,79.28,7C476.11,1569,437.54,1503.13,437.54,1503.13Z" transform="translate(0)"/><path class="cls-40" d="M285.48,1441.52c.85,26,1.89,60.74,1.57,68.67-.52,13,62.5,52.6,65.11,53.64s8.33,4.17,22.39-3.12S423,1518.52,425.07,1505c1.34-8.66,1.39-37.35,1.26-56.9a151.47,151.47,0,0,1-13.27,9.77c-14.06,9.05-45.05,19.59-86.57,1.91C310.24,1452.85,296.74,1447.13,285.48,1441.52Z" transform="translate(0)"/><path class="cls-39" d="M176.56,1793.89s-15.94-212.17-57.95-237.53c0,0-47.94,135.93-62.25,173.14s-22.18,59.38-22.18,59.38,47.22,27.18,79.42,38.63,45.07,6.44,45.07,6.44Z" transform="translate(0)"/><path class="cls-39" d="M605.82,1554.21c-26,22.18-25,199.61-25,199.61l28.61,68S685.23,1788.16,701,1766a162.93,162.93,0,0,0,22.18-45.78S662.34,1620,639.44,1590.7,605.82,1554.21,605.82,1554.21Z" transform="translate(0)"/><path class="cls-2" d="M632.6,1810.78s9.69,24.55,11.41,61.22h94.24c1.25-.39,2-.49,2.29-.23-.82-6.3-7.62-84.8-24.53-132.45A156.93,156.93,0,0,1,701,1766C690.9,1780.17,656.27,1799,632.6,1810.78Z" transform="translate(0)"/><path class="cls-2" d="M135.42,1872s5.67-19.13,10.91-37c-7.26-.4-18-2.19-32.73-7.44-18.95-6.73-43.11-18.93-59.78-27.82C44.59,1824,34.44,1854.15,33.34,1872Z" transform="translate(0)"/><ellipse class="cls-41" cx="352.28" cy="1596.85" rx="10.29" ry="11.72"/><ellipse class="cls-41" cx="352.28" cy="1647.9" rx="10.29" ry="11.72"/><path class="cls-2" d="M198.47,1285.35s-9.72-14.95-17.79-3.42-1.87,18,.36,40.61,2.17,33.72,17,46.26a42.07,42.07,0,0,0,32,9.5c6.61,91.69,121,149.69,183,109.75,32.22-20.75,77.87-66.81,83.62-105.74.93-6.23,1-6.61,1-6.61s19.59,10,36.08-18.13,25.8-42.71,21.22-62.87-2.19-28.16-12.84-23.38-12.72,18.8-21.28,28.28-9.67,8.9-9.67,8.9,6.94-30.78,4-51.1-12.57-46.79-17.66-52.72-8.21-6.38-8.21-6.38,4.32,16.55,8.63,22.35a82.71,82.71,0,0,0,5.7,7.21,180.21,180.21,0,0,1-23.86-13.47,152.21,152.21,0,0,1-22.12-17.19s7,12.17,9.6,18.52,3.57,8.08,3.57,8.08-8.51-12.39-16.59-19.55-12.2-9-12.2-9,6.05,15.61,6.19,20l.15,4.4s-34.59-48.46-59.42-58.09-53-17.78-79.95-21.36-38.91,5-41.7,7.76-4.9,11.6-20.36,22-25.56,27.63-30.61,48.36.39,24.31-1.71,33.15-7,15.27-6.55,30.84a134.28,134.28,0,0,0,4.42,29.29S197.61,1301.92,198.47,1285.35Z" transform="translate(0)"/><path class="cls-42" d="M497.49,1204.68c5.09,5.93,14.69,32.4,17.66,52.72s-4,51.1-4,51.1,1.11.57,9.67-8.9,10.63-23.49,21.28-28.28c2.41-1.08,4.15-1.51,5.46-1.29a56.47,56.47,0,0,0,.22-6.91c-.13-.52,4.36,1.43,4.36,1.43l-3.59-8.68,9.15,8.71s1,.45-.46-2.95S542.89,1219,542.06,1195s3.18-24.18,3.18-24.18L557,1188.42s0-.39-3.84-11.7-14.28-27.17-28.56-54.33-94.5-70.83-131.73-79.91-85.12.14-108,15.06S261.93,1086,261.93,1086s-12.88,6.45-30.29,16.6-26.84,17.51-42.53,51-2.55,80.54-3,83.46-.64,12.43-4.77,20.17-4.88,19.56-4.88,19.56,0-.19,1.11-4.81,6.86-8.73,6.86-8.73-1.17,6.59-2.65,12.54a21.26,21.26,0,0,0-.57,5.47c7.95-10.15,17.25,4.15,17.25,4.15-.86,16.57,14,26.33,14,26.33a134.28,134.28,0,0,1-4.42-29.29c-.48-15.57,4.44-22,6.55-30.84s-3.34-12.42,1.71-33.15,15.15-37.92,30.61-48.36,17.56-19.28,20.36-22,14.8-11.34,41.7-7.76,55.13,11.73,79.95,21.36,59.42,58.09,59.42,58.09l-.15-4.4c-.14-4.39-6.19-20-6.19-20s4.11,1.8,12.2,9,16.59,19.55,16.59,19.55-.93-1.73-3.57-8.08-9.6-18.52-9.6-18.52a152.21,152.21,0,0,0,22.12,17.19,180.21,180.21,0,0,0,23.86,13.47,82.71,82.71,0,0,1-5.7-7.21c-4.31-5.8-8.63-22.35-8.63-22.35S492.4,1198.76,497.49,1204.68Z" transform="translate(0)"/><path class="cls-43" d="M190.11,1295.51s-1.14,15.74,8.51,23.13,15.12,2.64,13,14.25,16,34.57,6.41,32S173.54,1316.13,190.11,1295.51Z" transform="translate(0)"/><path class="cls-43" d="M539.6,1293.08s-10.27,18.37-17.32,25.68-3.38,9.44-4,19.28-15.88,26.69-4.65,18S548.86,1321.89,539.6,1293.08Z" transform="translate(0)"/><path class="cls-44" d="M200.33,1273.77s7.83,3.75,10.93,4.4a28.93,28.93,0,0,0,3.59.66l-1,18.43s-2,.16-5.38-2.93-13.22-14.2-13.22-14.2S194,1273.12,200.33,1273.77Z" transform="translate(0)"/><path class="cls-37" d="M222.84,1278.5c-2.44,1-8,.33-8,.33l-1,18.43s6.36-.65,8.65,3.59,4.89,21.54,17,33,45,14.36,70.48,8.16,33.61-33.93,37.19-42.74c4.39-10.76,29.44-10.76,33.82,0,3.59,8.81,11.75,36.54,37.2,42.74s58.4,3.27,70.48-8.16,14.68-28.71,17-33,8.65-3.59,8.65-3.59l-1-18.43s-5.55.65-8-.33-15.83-14.2-44.87-15.17-53.51,3.59-64.93,9.79-12.72,7.18-18.6,7.18H351.23c-5.87,0-7.17-1-18.59-7.18s-35.9-10.77-64.93-9.79-42.42,14.19-44.87,15.17Zm262.06-3.59s11.42,5.71,11.26,24-9,29.86-23.33,34.75-40.63,5.38-55.47-1.47-24.15-19.57-25.12-32.3,1-16.8,7-20.39,44.21-21.37,85.65-4.57Zm-241.67,0c41.44-16.8,79.61,1,85.65,4.57s8,7.66,7,20.39-10.28,25.45-25.12,32.3-41.11,6.36-55.47,1.47-23.17-16.47-23.33-34.75S243.23,1274.91,243.23,1274.91Z" transform="translate(0)"/><path class="cls-44" d="M527.8,1273.77s-7.83,3.75-10.93,4.4a28.93,28.93,0,0,1-3.59.66l1,18.43s2,.16,5.38-2.93,13.22-14.2,13.22-14.2S534.16,1273.12,527.8,1273.77Z" transform="translate(0)"/><path class="cls-45" d="M319.48,1424.8c.14,0,47.54,12.89,71.76,2.89l.79,1.92c-24.88,10.27-73-2.76-73.1-2.8Z" transform="translate(0)"/><path class="cls-45" d="M360.77,1310.47c0,.1,0,34.7-5.79,56-2,7.26-3.47,12.17-4.53,15.65-1.87,6.11-2.28,7.45-1.7,10.2.82,3.85,21.84,3.2,21.9,3.2l0,2.81c-.07,0-22.67.75-23.94-5.24-.78-3.68-.32-5.18,1.77-12,1-3.4,2.51-8.21,4.51-15.55,5.66-20.86,5.66-55,5.66-55.07Z" transform="translate(0)"/><path class="cls-43" d="M310.77,1332.17c14.84-6.85,24.14-19.57,25.12-32.3s-1-16.8-7-20.39-44.21-21.37-85.65-4.57c0,0-11.42,5.71-11.26,24s9,29.86,23.33,34.75S295.92,1339,310.77,1332.17Z" transform="translate(0)"/><path class="cls-43" d="M392.24,1299.87c1,12.73,10.27,25.45,25.12,32.3s41.11,6.37,55.47,1.47,23.16-16.47,23.33-34.75-11.26-24-11.26-24c-41.44-16.8-79.61,1-85.65,4.57S391.26,1287.14,392.24,1299.87Z" transform="translate(0)"/><path class="cls-7" d="M444.08,1320.39c8.8,0,16-8,16-17.83s-7.19-17.84-16-17.84-16,8-16,17.84S435.27,1320.39,444.08,1320.39Z" transform="translate(0)"/><path class="cls-4" d="M436.93,1299.28c1.77,0,3.21-1.72,3.21-3.83s-1.44-3.83-3.21-3.83-3.22,1.72-3.22,3.83S435.15,1299.28,436.93,1299.28Z" transform="translate(0)"/><path class="cls-7" d="M426.42,1297a5,5,0,1,1-4.25-9l31.25-14.71a5,5,0,1,1,4.25,9Z" transform="translate(0)"/><path class="cls-7" d="M276.9,1320.39c8.81,0,16-8,16-17.83s-7.18-17.84-16-17.84-16,8-16,17.84S268.09,1320.39,276.9,1320.39Z" transform="translate(0)"/><path class="cls-4" d="M271.82,1297.13c1.77,0,3.22-1.73,3.22-3.84s-1.45-3.83-3.22-3.83-3.22,1.72-3.22,3.83S270.05,1297.13,271.82,1297.13Z" transform="translate(0)"/><path class="cls-7" d="M294.55,1297a5,5,0,0,0,4.26-9l-31.25-14.71a5,5,0,1,0-4.26,9Z" transform="translate(0)"/><path class="cls-46" d="M335.47,1439.9a65.8,65.8,0,0,0,20.83,3.65h16.93S347.71,1464.64,335.47,1439.9Z" transform="translate(0)"/><rect class="cls-47" x="757.33" y="936" width="757.33" height="936"/><path class="cls-48" d="M943.73,1281.51s-27.08-20.89-44.88-3.09-.77,39.46,8.51,63.45,25.54,31,42.56,42.56,22.44,14.7,28.63,10.06,12.38-24,12.38-24,13.93,39.46,45.66,63.45,92.86,37.15,114.52,44.11,49.53-8.51,57.27-23.21,54.94-37.15,58.81-106-5-99-7.74-114.14,2.71-42.94-3.48-70-17.8-34.05-27.09-36.38-72.74,15.1-94,13.93-59.58-11.22-71.57-19-12.38-8.12-12.38-8.12,5.8,23.22,20.11,32.12,48.75,1.54,48.75,1.54-31.34,14.32-56.1,2.71-67.32-41.4-85.5-44.11a51.52,51.52,0,0,0-31.34,5s26.69,13.16,39.46,47.59-1.94,65.78-1.94,65.78,4.26-18.19-3.09-32.5-24.76-24.38-24.76-24.38,16.63,25.15,12.77,48.36-5.42,33.67-1.55,48.75,4.26,38.7,4.26,38.7-3.87,1.93-10.84-3.1S943.73,1281.51,943.73,1281.51Z" transform="translate(0)"/><path class="cls-49" d="M978.17,1107.4c18.18,2.71,60.74,32.5,85.5,44.11s56.1-2.71,56.1-2.71-34.43,7.35-48.75-1.54-20.11-32.12-20.11-32.12.38.39,12.38,8.12,50.3,17.8,71.57,19,84.74-16.25,94-13.93,20.89,9.29,27.09,36.38c4.61,20.18,2.78,40.79,2.67,56.23,4.18-5.29,5.57-14.15,4.68-23.35-1.16-12-1.16-22.82,1.74-34.43s9.47-26.7-2.13-50.69-28.63-59.58-87.44-95.18-86.67-51.07-188.81-41.78S907.75,1097,907.75,1097s-13.93,20.9-15.48,47.21-1.55,43.33,4.64,70.42c3.26,14.24,9.3,37.91,14.29,57.14,15.8-3.11,32.53,9.79,32.53,9.79s10.45,15.09,17.41,20.12,10.84,3.1,10.84,3.1-.39-23.6-4.26-38.7-2.32-25.53,1.55-48.75-12.77-48.36-12.77-48.36,17.41,10.06,24.76,24.38,3.09,32.5,3.09,32.5,14.71-31.34,1.94-65.78-39.46-47.59-39.46-47.59A51.52,51.52,0,0,1,978.17,1107.4Z" transform="translate(0)"/><path class="cls-50" d="M928.44,1296.21s29.79,22.83,31.73,33.28,21.28,30.18,7,31.73S882,1286.93,928.44,1296.21Z" transform="translate(0)"/><path class="cls-49" d="M1066.79,1177.39c-21,.79-39.85,8.37-53.31,20-11,9.52-18.46,21.75-20.62,35.21L934.75,1252l7.35,2.52s-12.58,3.87-10.45,4.26,2.32,3.48,2.32,3.48l58.46-16.75c1.51,16.24,10.61,30.55,24.39,40.75,14.29,10.58,33.64,16.72,54.66,15.94s39.86-8.38,53.32-20c12.27-10.6,20.09-24.53,21.15-39.81l7.24-.27-.34-9.11-7.08.26c-1.72-15.92-10.75-29.93-24.31-40-14.29-10.58-33.64-16.73-54.67-15.94Zm-47.48,26.75c12-10.33,28.85-17.07,47.82-17.79s36.32,4.75,49,14.16c12.41,9.18,20.37,22.16,20.92,36.74s-6.41,28.11-18.1,38.21c-12,10.33-28.85,17.07-47.82,17.79s-36.32-4.75-49-14.15c-12.42-9.19-20.37-22.17-20.92-36.75S1007.62,1214.24,1019.31,1204.14Z" transform="translate(0)"/><path class="cls-49" d="M1219,1178.33c18.65-.7,35.81,4.76,48.48,14.14,12.93,9.57,21.22,23.21,21.8,38.65s-6.66,29.67-18.84,40.18c-11.93,10.31-28.63,17-47.28,17.73s-35.8-4.75-48.47-14.13c-11.56-8.55-19.4-20.36-21.36-33.8l-6.41.24-.31-8.07,6.28-.24c.46-14.2,7.51-27.18,18.84-37,11.93-10.3,28.63-17,47.27-17.73Zm43.77,20.5c-11.26-8.33-26.64-13.17-43.46-12.54s-31.8,6.61-42.41,15.77c-10.37,9-16.54,21-16,33.89s7.54,24.43,18.55,32.58c11.26,8.34,26.64,13.18,43.47,12.55s31.79-6.62,42.4-15.77c10.37-9,16.54-21,16-33.89S1273.75,1207,1262.73,1198.83Z" transform="translate(0)"/><path class="cls-4" d="M1211.14,1411.84s-21.6-23.71-50-23.28a51.11,51.11,0,0,0-41.49,21.59S1160.33,1383.05,1211.14,1411.84Z" transform="translate(0)"/><path class="cls-51" d="M1168.43,1291.78s7.62,41.49,7.19,50.8-13.54,12.28-11.42,15.24,11-4.65,14.6-10.37S1175.84,1291.14,1168.43,1291.78Z" transform="translate(0)"/><path class="cls-51" d="M1152.55,1355.28s-2.75.22-8.47-3.8-8.89-13.13-8.68-7.63S1136.89,1360.79,1152.55,1355.28Z" transform="translate(0)"/><path class="cls-49" d="M1233.63,1250.76c6.29,0,11.42-6.08,11.42-13.54s-5.13-13.54-11.42-13.54-11.42,6.08-11.42,13.54S1227.34,1250.76,1233.63,1250.76Z" transform="translate(0)"/><path class="cls-49" d="M1092.28,1258.89c8.17,0,14.83-7.91,14.83-17.61s-6.66-17.6-14.83-17.6-14.84,7.91-14.84,17.6S1084.1,1258.89,1092.28,1258.89Z" transform="translate(0)"/><path class="cls-49" d="M1211.74,1208.71s6.77,11.22,24,14.51,20.32-12.57,20.32-12.57-1.16-2.52-4.26,1.16-18.57,6.38-27.86-1.36S1206.7,1202.33,1211.74,1208.71Z" transform="translate(0)"/><path class="cls-49" d="M1100.47,1214.35s-6.77,11.22-24,14.51-20.31-12.58-20.31-12.58,1.16-2.51,4.25,1.17,18.57,6.38,27.86-1.36S1105.5,1208,1100.47,1214.35Z" transform="translate(0)"/><path class="cls-51" d="M1184.7,1415.87s-9.24-10.15-21.38-10a21.91,21.91,0,0,0-17.76,9.25S1163,1403.55,1184.7,1415.87Z" transform="translate(0)"/><path class="cls-49" d="M1222.67,1502.84s93.54,36.46,120,43.62,32.91,7.15,32.91,7.15c-53.5,35.74-57.95,237.53-57.95,237.53l4.66,80.86h-403l-5.89-120.93s16.62-170.31-25-199.61C1027.38,1523.14,1056.66,1473.67,1222.67,1502.84Z" transform="translate(0)"/><path class="cls-52" d="M1044.73,1439.5c4.24,27.85,12.37,83.18,11.6,92.85-1,13,47.92,32.81,77.08,40.11s52.61-21.88,57.3-32.3c3.16-7-1-43.41-4.08-66.37-11,5.39-24.12,7.94-35.52,4.27C1131.18,1471.65,1077.85,1460,1044.73,1439.5Z" transform="translate(0)"/><path class="cls-4" d="M888.38,1551.46s-30.49,18.39-47.16,84-22.92,120.84-21.88,133.34c.85,10.16,47.2,25.16,96.42,30.4l-2.34-48.14S930,1580.76,888.38,1551.46Z" transform="translate(0)"/><path class="cls-4" d="M1375.59,1553.61c-53.5,35.74-57.95,237.53-57.95,237.53l.57,10.08s81.34-1.16,107.39-14.71,31.25-21.87,31.25-21.87S1408.5,1560.76,1375.59,1553.61Z" transform="translate(0)"/><path class="cls-48" d="M915.76,1799.21c-34.57-3.68-67.73-12.17-84.7-20.43-5,29.79-10.9,68.7-10.9,85.86a14.46,14.46,0,0,0,2,7.36h97.17Z" transform="translate(0)"/><path class="cls-48" d="M1427.32,1785.61l-1.72.9c-26,13.55-107.39,14.71-107.39,14.71l4.09,70.78h111.14C1433.8,1845.77,1430.61,1812.41,1427.32,1785.61Z" transform="translate(0)"/><path class="cls-4" d="M1133.41,1572.46c-29.16-7.3-78.12-27.08-77.08-40.11.31-3.87-.81-15.09-2.54-28.93-10,2.46-19.68,5.29-29.45,8.36-3.32,10.31-5.17,23.57.49,35.67,11.46,24.48,63.55,37.51,98.44,48.44s44.79-2.08,62-19.27,27.61-34.38,27.61-45.84c0-5.52-.73-18.2-1.48-29.84q-11.34-1.82-21.83-3.13c2,18.73,3.33,37.52,1.16,42.35C1186,1550.58,1162.58,1579.75,1133.41,1572.46Z" transform="translate(0)"/><rect class="cls-53" x="1514.67" y="936" width="757.33" height="936"/><path class="cls-4" d="M1802.65,1565.34s-93.54,36.46-120,43.62-32.91,7.15-32.91,7.15c53.49,35.74,58,237.53,58,237.53l-1.06,18.36h402.43l2.85-58.43s-16.62-170.31,25-199.6c-26.44-5.39-99.81-31.65-143.87-47.84,0,0-42.51-6-88.87-9.08S1802.65,1565.34,1802.65,1565.34Z" transform="translate(0)"/><path class="cls-54" d="M1817.78,1513.3c3.81,23.19,8.62,53.8,8.62,60.42,0,10.93,59.32,46.87,76.76,51.56s52.92-32.81,52.92-32.81l3.24-89.85c-18.45,9.59-36.21,18.35-50.49,25.11-21.58,10.22-46.57,9.65-69.29-1.14l-1-.51h0l-1-.52h0l-1-.51,0,0h0l-1-.52,0,0-1-.54-.06,0-1-.53h0l-.06,0-.08,0-.54-.3-.34-.2-.08,0-.61-.35-.34-.2-.09-.05-.25-.14-.69-.41-.1-.06h0l-.9-.55-.12-.07-.22-.13-.34-.21-.34-.22-.13-.07-.21-.13-.34-.22-.34-.21-.13-.09-.2-.13-.34-.21-.34-.22-.15-.09-.19-.13-.83-.54-.18-.12-.33-.22-.34-.23-.17-.1-.17-.12-.33-.22-.34-.23-.18-.12-.15-.1-.33-.23-.34-.23-.19-.13-.15-.1-.33-.23-.33-.24-.21-.13-.13-.1-.33-.23-.33-.24-.22-.14-.12-.09-.33-.24-.33-.23-.23-.16-.11-.08-.67-.48-.23-.17Z" transform="translate(0)"/><path class="cls-55" d="M1649.73,1616.11s-23.15,22.18-33.57,90.93-7.29,85.42-7.29,85.42,45.48,10.43,96.07,12.38C1700,1742.75,1686.33,1640.56,1649.73,1616.11Z" transform="translate(0)"/><path class="cls-55" d="M2136.94,1614c-36.86,25.92-28.1,162.21-25.59,193.29,0,0,43.36-1.26,64.19-7.51a72.57,72.57,0,0,0,32.29-19.8S2171.26,1617.77,2136.94,1614Z" transform="translate(0)"/><path class="cls-56" d="M1704.94,1804.84a579.89,579.89,0,0,1-77.46-8.7c-.38,20.66-.37,48.14,1.18,75.86h78l1.06-18.36S1707.23,1833.51,1704.94,1804.84Z" transform="translate(0)"/><path class="cls-56" d="M2111.9,1813.57l-2.85,58.43h88.36s0-40.31-10.2-76.87a73.9,73.9,0,0,1-11.67,4.62c-20.83,6.25-64.19,7.51-64.19,7.51C2111.68,1811.31,2111.9,1813.57,2111.9,1813.57Z" transform="translate(0)"/><path class="cls-55" d="M1850.53,1681c5.21-11.46,52.63-55.71,52.63-55.71-17.44-4.69-76.76-40.63-76.76-51.56,0-2.06-.46-6.45-1.22-12.22-13.64,2-22.53,3.84-22.53,3.84C1799.56,1585.11,1845.32,1692.45,1850.53,1681Z" transform="translate(0)"/><path class="cls-55" d="M1912.94,1624.54c15.54,10.22,54.77,44.47,65.71,45.51s10.42-5.73,10.42-5.73v-37.5c0-37.5-13.36-62.92-13.36-62.92-5.26-.63-11.53-1.36-18.52-2.12l-1.11,30.69S1931.27,1618.7,1912.94,1624.54Z" transform="translate(0)"/><path class="cls-57" d="M1939.83,1735.4c0-12.28-10.23-80.15-11.17-99.25-6.21-4.8-11.74-9-15.72-11.61-3.58,1.14-6.92,1.5-9.78.74,0,0-9.6,9-20.64,19.86,3.18,26.48,12.88,104.51,17.2,108C1904.93,1757.27,1939.83,1749.46,1939.83,1735.4Z" transform="translate(0)"/><path class="cls-55" d="M1946.08,1738c0-11.82-9.47-75.11-11-96.88l-6.39-5c.94,19.1,11.17,87,11.17,99.25,0,11.51-23.38,18.83-34.72,18.83a3.77,3.77,0,0,0,.86,1.48C1911.18,1759.88,1946.08,1752.07,1946.08,1738Z" transform="translate(0)"/><path class="cls-55" d="M1911.7,1671.08c4.8,0,8.72-4.22,8.72-9.38s-3.92-9.37-8.72-9.37-8.73,4.2-8.73,9.37S1906.89,1671.08,1911.7,1671.08Z" transform="translate(0)"/><path class="cls-55" d="M1916.91,1726.54c4.8,0,8.72-4.21,8.72-9.37s-3.92-9.38-8.72-9.38-8.73,4.21-8.73,9.38S1912.1,1726.54,1916.91,1726.54Z" transform="translate(0)"/><path class="cls-55" d="M2006.31,1194.06s-5.52,29.85-104.18,41.86-94.62,7.51-127.72,3.52-47.31-8-48.05,4.71-5,29.22,1.11,46.78,7.82,21.93,7.82,21.93-13.76-14.34-16.43-17.45-4.28,16.54-1.32,40.78,3.8,40.73,10,58.85,8.73,24.68,8.73,24.68-20-23.31-26-44.32-12.64-33.36-23.87-45.72-12.71-10.47-15.9-27.24-3-71.73-6.3-98.78-25.3-62.15,37.31-102.38,69.82-70.28,112.27-83.46,62.57-3,62.57-3,20.94-30,62-17.27,123.12,66.83,138.89,92.94,17,40.84,18.17,64.72,15.1,34.78,16.15,81-19.11,73.27-19.11,73.27-7.77-16.79-11.74-7.15-10.19,15-12.39,39.26-15.3,48.2-22.5,54.8-14.77,15-5.69-4.45,6.31-37.39,1.63-71.14-6.51-53.56-15.16-82.26S2006.31,1194.06,2006.31,1194.06Z" transform="translate(0)"/><path class="cls-56" d="M1710.29,1375.4c-6-21-12.64-33.36-23.87-45.72-5.25-5.78-8.37-8.45-10.53-11.36-3.42,36.93,13.67,87.6,27.69,105.38,18.94,24,30.55,6.58,30.55,6.58s.28,2.25,7.34,18,18.75,41.2,43.71,53.61,47.17,30.31,71,38.27,48.73,5.51,68.92-7.24,47.72-31,73.49-49.56,35.57-65,35.57-65,12.82,1.87,24.52-.69,9.54-10.89,12.4-25,13.23-37.08,19.42-56.71,1.92-26.55,1.92-26.55-7.77-16.79-11.74-7.15-10.19,15-12.39,39.26-15.3,48.2-22.5,54.8-14.77,15-5.69-4.45,6.31-37.39,1.63-71.14-6.51-53.56-15.16-82.26-20.28-44.44-20.28-44.44-5.52,29.85-104.18,41.86-94.62,7.51-127.72,3.52-47.31-8-48.05,4.71-5,29.22,1.11,46.78,7.82,21.93,7.82,21.93-13.76-14.34-16.43-17.45-4.28,16.54-1.32,40.78,3.8,40.73,10,58.85,8.73,24.68,8.73,24.68S1716.28,1396.41,1710.29,1375.4Z" transform="translate(0)"/><path class="cls-58" d="M1710.29,1375.4c-4-14-8.25-24.1-14-33-1.7,3.4-2.83,9.41-1.54,20,3,24.56,17.32,47.48,24.77,50.5,2.73,1.11,4.56-2.64,5.77-7.83C1719.63,1396.72,1713.25,1385.78,1710.29,1375.4Z" transform="translate(0)"/><path class="cls-59" d="M1956,1344.57c6.74,0,12.24-10.07,12.24-22.4s-5.5-22.4-12.24-22.4-12.24,10.06-12.24,22.4S1949.21,1344.57,1956,1344.57Z" transform="translate(0)"/><path class="cls-60" d="M1971.61,1238.43a83.73,83.73,0,1,1-59.22,24.52,83.48,83.48,0,0,1,59.22-24.52Zm47.9,35.84a67.75,67.75,0,1,0,19.84,47.9A67.54,67.54,0,0,0,2019.51,1274.27Z" transform="translate(0)"/><path class="cls-60" d="M1791.92,1238.43A83.73,83.73,0,1,1,1732.7,1263a83.48,83.48,0,0,1,59.22-24.52Zm47.9,35.84a67.75,67.75,0,1,0,19.84,47.9A67.52,67.52,0,0,0,1839.82,1274.27Z" transform="translate(0)"/><rect class="cls-61" x="1868.18" y="1314.08" width="26.82" height="16.93"/><path class="cls-60" d="M1712.44,1311.4l-17.71,7s3.65,1.31,2.6,3.91-4.94,2.87-.78,5,19.79-4,19.79-4Z" transform="translate(0)"/><path class="cls-60" d="M2050.46,1311.4l17.71,7s-3.65,1.31-2.61,3.91,5,2.87.78,5-19.78-4-19.78-4Z" transform="translate(0)"/><path class="cls-62" d="M1874.65,1367.9a2.49,2.49,0,1,1,4.73,1.58c0,.09-10.84,32.49-11.86,48.83-.89,14.27,19,16.12,19.09,16.13a2.49,2.49,0,1,1-.45,5c-.07,0-24.81-2.31-23.62-21.38C1863.61,1401,1874.62,1368,1874.65,1367.9Z" transform="translate(0)"/><path class="cls-62" d="M1892.92,1437.05a2.5,2.5,0,0,1-.57-5,48,48,0,0,0,11-2.68,2.49,2.49,0,1,1,1.93,4.59A53.56,53.56,0,0,1,1892.92,1437.05Z" transform="translate(0)"/><path class="cls-62" d="M1842.05,1469.8a2.49,2.49,0,1,1,3.77-3.26s9.16,11.11,41.34,11.11,39.63-10.92,39.65-10.94a2.49,2.49,0,0,1,4,2.92s-9.07,13-43.69,13S1842.08,1469.83,1842.05,1469.8Z" transform="translate(0)"/><path class="cls-59" d="M1791.92,1344.57c6.74,0,12.24-10.07,12.24-22.4s-5.5-22.4-12.24-22.4-12.24,10.06-12.24,22.4S1785.17,1344.57,1791.92,1344.57Z" transform="translate(0)"/><path class="cls-59" d="M1778.55,1300.87a2,2,0,0,1-3.91-.83c2.17-10.24,7.06-15.4,12.55-17.08a15,15,0,0,1,7.64-.23,19.08,19.08,0,0,1,7,3.17h0c5.56,4,9.4,10.88,8.26,18a2,2,0,1,1-3.94-.62c.89-5.52-2.2-10.94-6.64-14.12h0a15.16,15.16,0,0,0-5.52-2.53,11,11,0,0,0-5.61.15C1784.16,1288.06,1780.37,1292.29,1778.55,1300.87Z" transform="translate(0)"/><path class="cls-63" d="M1962,1321.15c2.08,0,3.78-2.57,3.78-5.73s-1.7-5.73-3.78-5.73-3.77,2.58-3.77,5.73S1959.94,1321.15,1962,1321.15Z" transform="translate(0)"/><path class="cls-63" d="M1795.87,1321.15c2.08,0,3.77-2.57,3.77-5.73s-1.69-5.73-3.77-5.73-3.77,2.58-3.77,5.73S1793.79,1321.15,1795.87,1321.15Z" transform="translate(0)"/><path class="cls-59" d="M1942.91,1300.87a2,2,0,1,1-3.9-.83c2.17-10.24,7.06-15.4,12.55-17.08a15,15,0,0,1,7.63-.23,18.94,18.94,0,0,1,7,3.17h0c5.57,4,9.41,10.88,8.27,18a2,2,0,1,1-3.94-.62c.89-5.52-2.2-10.94-6.65-14.12h0a15.23,15.23,0,0,0-5.52-2.53,11,11,0,0,0-5.61.15C1948.53,1288.06,1944.73,1292.29,1942.91,1300.87Z" transform="translate(0)"/><path class="cls-54" d="M1865.14,1488.86s15.1,4.42,26,4.16,15.89-3.12,15.89-3.12-9.9,13-22.4,11.46S1865.14,1488.86,1865.14,1488.86Z" transform="translate(0)"/></svg>