<svg id="Layer_1" data-name="Layer 1" xmlns="http://www.w3.org/2000/svg" viewBox="0 0 757.33 936"><defs><style>.cls-1{fill:#fcf9f0;}.cls-2{fill:#fbc5bd;}.cls-10,.cls-11,.cls-12,.cls-13,.cls-14,.cls-15,.cls-2,.cls-3,.cls-4,.cls-5,.cls-6,.cls-7,.cls-8,.cls-9{fill-rule:evenodd;}.cls-3{fill:#e5a67c;}.cls-4{fill:#eb6855;}.cls-5{fill:#f0bf9e;}.cls-6{fill:#122039;}.cls-7{fill:#d69c75;}.cls-8{fill:#1a5f51;}.cls-9{fill:#2d8f7c;}.cls-10{fill:#34b097;}.cls-11{fill:#fdd9c2;}.cls-12{fill:#a47e66;}.cls-13{fill:#383535;}.cls-14{fill:#fff;}.cls-15{fill:#dfa884;}</style></defs><rect class="cls-1" width="757.33" height="936"/><path class="cls-2" d="M271.36,494.71s-93.54,36.46-120,43.62-32.91,7.15-32.91,7.15C171.93,581.22,176.39,783,176.39,783l-8.83,153.2H571.19l9.42-193.26s-16.62-170.31,25-199.61c-26.44-5.38-99.81-31.64-143.88-47.83.55,20.08-3.79,56.46-45.71,71.44C356.37,588.28,200.85,570.25,271.36,494.71Z" transform="translate(0.17 -0.2)"/><path class="cls-3" d="M423.44,463.64c-42.29,28.13-95.07,27.09-139.23-7.61,1.79,15,2.9,27.55,1.82,29-1.55,2.12-10.54,7.61-18.68,11.75-59.92,73,85.81,92.93,148.71,70.12,42.74-15.5,48.17-49.49,46.86-71-16-5.89-28.37-10.51-33.44-12.41a7.66,7.66,0,0,1-2.51-.95C423.84,480.54,423.27,471.73,423.44,463.64Z" transform="translate(0.17 -0.2)"/><polygon class="cls-4" points="267.51 496.61 344.95 575.45 284.47 580.07 248.01 607.15 244.68 504.84 267.51 496.61"/><polygon class="cls-4" points="463.08 496.61 385.65 575.45 446.13 580.07 482.59 607.15 485.92 504.84 463.08 496.61"/><path class="cls-5" d="M230,194.05c-8.71,17.91-17.44,47.9-13.33,73.2s4.57,61.13,4.57,61.13-4.22-15.66-5.35-23.58c-.64-4.47-6.14-13.29-12.76-19.38-5.07-4.67-10.8-7.73-15.49-6-10.81,4-8,16.57-1.34,35.05s17.42,41.47,23.22,59.32,20.9,11.12,20.9,11.12.33,3.92,3.78,21.39,26,42.38,45.32,57.11,56.69,37.7,92,31.36,89-48.36,102.64-69.82S500,364,500,364s17.24,4.61,31.16-3.76,14.12-18.61,20.08-34.43c9.86-26.17,14.51-55.84-22.35-62.44,0,0-17.19-4.24-22.42,1.19s-9.6,26.47-9.6,26.47l-9.25.43a165,165,0,0,0-5.41-35.18c-5.1-19.19-16.57-25.88-29.05-47.23s-5.52-79.16-5.52-79.16-10.89,19.49-64.49,25.29-61.1-7.5-61.1-7.5-9.94,22.54-37.81,30.58-28.18-8-28.18-8S238.65,176.14,230,194.05Z" transform="translate(0.17 -0.2)"/><path class="cls-6" d="M216.62,267.25C212.51,242,221.24,212,230,194.05S256,170.26,256,170.26s.3,16,28.18,8S322,147.63,322,147.63s7.5,13.3,61.1,7.5,64.49-25.29,64.49-25.29-7,57.81,5.52,79.16,23.95,28,29.05,47.23a165,165,0,0,1,5.41,35.18l9.25-.43s4.37-21,9.6-26.47,22.42-1.19,22.42-1.19,8-111.75,1.58-142.26-32.83-41.8-32.83-41.8A28.87,28.87,0,0,1,517.37,81c10.57,4.85,13.83,7.07,13.83,7.07s-4-14.17-18.89-17.56a57.83,57.83,0,0,0-26.57,0s3.33-8.64-2.1-22.81a38.89,38.89,0,0,0-17.3-19.95s9.85,10.77,8.72,22.19-1.43,13.29-1.43,13.29S436.54-1.42,344.41,12.61,213,60.37,195.3,103.88s-14,77.44-4.07,111.42,6.13,39.64,7.51,51.95c.48,4.25,2.2,11.08,4.34,18.17,6.62,6.09,12.12,14.91,12.76,19.38,1.13,7.92,5.35,23.58,5.35,23.58S220.73,292.55,216.62,267.25Z" transform="translate(0.17 -0.2)"/><path class="cls-7" d="M537.07,280.45s-18.88.35-23.42,13.28,0,18.18-5.25,27.26-10.83,20.27,1.4,22.72S559.43,333.23,537.07,280.45Z" transform="translate(0.17 -0.2)"/><path class="cls-7" d="M196.29,304.22s9.09,5.24,11.89,14.32,2.1,18.53,7,25.52,8,15.73,5.94,18.52S183.36,298.62,196.29,304.22Z" transform="translate(0.17 -0.2)"/><path class="cls-8" d="M475.66,258.45h12.53v23.71H475.66a59.16,59.16,0,0,0,0-23.71Z" transform="translate(0.17 -0.2)"/><path class="cls-9" d="M281.94,211.59a58.72,58.72,0,1,0,57.51,70.57h21.17a58.72,58.72,0,1,0,0-23.71H339.45a58.73,58.73,0,0,0-57.51-46.86Zm136.2,15.81a42.91,42.91,0,1,1-42.91,42.91,42.9,42.9,0,0,1,42.91-42.91Zm-136.2,0A42.91,42.91,0,1,1,239,270.31,42.9,42.9,0,0,1,281.94,227.4Z" transform="translate(0.17 -0.2)"/><path class="cls-10" d="M504.61,265.59l-16.42-7.31V282l10.34,1.33C499.36,279.27,501.4,270.74,504.61,265.59Z" transform="translate(0.17 -0.2)"/><path class="cls-8" d="M224.42,258.45H211.89v23.71h12.53a59.16,59.16,0,0,1,0-23.71Z" transform="translate(0.17 -0.2)"/><path class="cls-11" d="M464.67,270.31a46.53,46.53,0,1,0-46.53,46.53A46.53,46.53,0,0,0,464.67,270.31Z" transform="translate(0.17 -0.2)"/><path class="cls-11" d="M328.76,270.31a46.53,46.53,0,1,0-46.53,46.53A46.53,46.53,0,0,0,328.76,270.31Z" transform="translate(0.17 -0.2)"/><path class="cls-12" d="M344,284.64a.84.84,0,1,1,1.67,0c0,.09.7,32.28-4.92,53.36-4.68,17.54-9.85,27.32-11.47,30.13,4.06,1.62,21,8.15,33.11,9.36a.84.84,0,0,1-.16,1.67c-14.1-1.41-34.43-9.82-34.49-9.85l-.92-.38.53-.84s6.22-9.68,11.78-30.52S344,284.73,344,284.64Z" transform="translate(0.17 -0.2)"/><path class="cls-12" d="M299,405.62a.83.83,0,1,1,.64-1.54c.11,0,36.13,15.28,71.54,9,35-6.18,35-9.05,35-9.06a.82.82,0,0,1,.92-.73.83.83,0,0,1,.74.92s-.06,4.12-36.34,10.52C335.6,421.09,299.13,405.66,299,405.62Z" transform="translate(0.17 -0.2)"/><path class="cls-12" d="M329.87,430.11a.83.83,0,0,1-.57-1,.85.85,0,0,1,1.05-.56s17.95,5.53,37.3.69a.85.85,0,0,1,1,.61.83.83,0,0,1-.61,1C348.26,435.78,329.92,430.13,329.87,430.11Z" transform="translate(0.17 -0.2)"/><path class="cls-13" d="M434,286.51a12.31,12.31,0,1,0-12.31-12.31A12.34,12.34,0,0,0,434,286.51Z" transform="translate(0.17 -0.2)"/><path class="cls-14" d="M428.53,271.94a2.65,2.65,0,1,0-2.48-2.65A2.57,2.57,0,0,0,428.53,271.94Z" transform="translate(0.17 -0.2)"/><path class="cls-13" d="M292.3,286.51A12.31,12.31,0,1,0,280,274.2,12.34,12.34,0,0,0,292.3,286.51Z" transform="translate(0.17 -0.2)"/><path class="cls-14" d="M287,271.54a2.65,2.65,0,1,0-2.48-2.64A2.57,2.57,0,0,0,287,271.54Z" transform="translate(0.17 -0.2)"/><path class="cls-12" d="M383.55,208.72a.83.83,0,0,1-1.17-.13.84.84,0,0,1,.13-1.18c.09-.07,30.84-24.81,54.4-12a.84.84,0,0,1-.8,1.47C413.54,184.6,383.64,208.65,383.55,208.72Z" transform="translate(0.17 -0.2)"/><path class="cls-12" d="M317.64,207.41a.84.84,0,0,1,.13,1.18.83.83,0,0,1-1.17.13c-.09-.07-30-24.12-52.56-11.8a.84.84,0,0,1-.8-1.47C286.8,182.6,317.55,207.34,317.64,207.41Z" transform="translate(0.17 -0.2)"/><path class="cls-4" d="M387.36,573.73a234.22,234.22,0,0,1-42.57,1.92l-18.85,1.44v137a30.29,30.29,0,0,0,30.2,30.2h5.21a30.29,30.29,0,0,0,30.21-30.2v-138l-6.08-.46Z" transform="translate(0.17 -0.2)"/><path class="cls-2" d="M359.79,630.77a13.54,13.54,0,1,0-13.54-13.54A13.56,13.56,0,0,0,359.79,630.77Z" transform="translate(0.17 -0.2)"/><path class="cls-2" d="M359.79,700a13.54,13.54,0,1,0-13.54-13.54A13.56,13.56,0,0,0,359.79,700Z" transform="translate(0.17 -0.2)"/><path class="cls-4" d="M118.44,545.48s-30,110.8-37.31,151.43l-7.29,40.62s46.66,25.62,101.39,19.41C172,701.2,160,573.24,118.44,545.48Z" transform="translate(0.17 -0.2)"/><path class="cls-4" d="M605.65,543.33c-41.66,29.3-25,199.61-25,199.61s37,1.88,60.94-5.41S677,717.74,677,717.74,635.23,551.47,605.65,543.33Z" transform="translate(0.17 -0.2)"/><path class="cls-5" d="M101.19,748.68c-5,47.14-13.1,131.43-13.82,187.52h80.19L176.39,783s-.22-10-1.16-26.06C146.45,760.2,119.9,754.67,101.19,748.68Z" transform="translate(0.17 -0.2)"/><path class="cls-15" d="M101.19,748.68c-.52,4.94-1.08,10.29-1.66,16,10,2.91,23.29,6.17,34.19,6.72,20.32,1,25.52,1,25.52,1s7.81,94.27-.52,135.41c-2.65,13.11-4.51,22.14-5.82,28.37h14.66L176.39,783s-.22-10-1.16-26.06C146.45,760.2,119.9,754.67,101.19,748.68Z" transform="translate(0.17 -0.2)"/><path class="cls-5" d="M580.61,742.94,571.19,936.2h75.18c6.46-51.45,14.52-140.42,2.94-201.36q-3.63,1.42-7.76,2.69C617.59,744.82,580.61,742.94,580.61,742.94Z" transform="translate(0.17 -0.2)"/><path class="cls-15" d="M592.31,765.13s5.21,0,25.52-1.24c11-.68,24.57-4.67,34.6-8.16-.82-7.25-1.85-14.24-3.12-20.89q-3.63,1.42-7.76,2.69c-24,7.29-60.94,5.41-60.94,5.41L571.19,936.2h23.25c-.5-2.93-1-6.08-1.61-9.45C584.5,877.64,592.31,765.13,592.31,765.13Z" transform="translate(0.17 -0.2)"/></svg>