<svg id="Layer_1" data-name="Layer 1" xmlns="http://www.w3.org/2000/svg" viewBox="0 0 757.33 936"><defs><style>.cls-1{fill:#fdf9ce;}.cls-2{fill:#f26b6b;}.cls-2,.cls-3,.cls-4,.cls-5,.cls-6,.cls-7{fill-rule:evenodd;}.cls-3{fill:#222558;}.cls-4{fill:#de504d;}.cls-5{fill:#fff;}.cls-6{fill:#e24a47;}.cls-7{fill:#e85755;}</style></defs><rect class="cls-1" width="757.33" height="936"/><path class="cls-2" d="M187.33,345.51s-27.08-20.89-44.88-3.09-.78,39.46,8.51,63.45,25.54,30.95,42.56,42.56,22.44,14.7,28.63,10.06,12.38-24,12.38-24S248.46,474,280.19,498s92.86,37.15,114.52,44.11,49.52-8.51,57.26-23.21,54.95-37.15,58.81-106-5-99-7.73-114.14,2.7-42.94-3.48-70-17.8-34-27.09-36.38-72.74,15.1-94,13.93-59.58-11.22-71.58-19-12.38-8.12-12.38-8.12,5.81,23.22,20.12,32.12,48.75,1.54,48.75,1.54-31.34,14.32-56.1,2.71S240,174.11,221.76,171.4a51.54,51.54,0,0,0-31.34,5s26.7,13.16,39.47,47.59S228,289.8,228,289.8s4.26-18.19-3.09-32.5-24.77-24.38-24.77-24.38,16.64,25.15,12.77,48.36S207.45,315,211.32,330s4.25,38.7,4.25,38.7-3.87,1.93-10.83-3.1S187.33,345.51,187.33,345.51Z" transform="translate(-0.93 0)"/><path class="cls-3" d="M221.76,171.4c18.19,2.71,60.75,32.5,85.51,44.11s56.1-2.71,56.1-2.71-34.43,7.35-48.75-1.54-20.12-32.12-20.12-32.12.39.39,12.38,8.12,50.3,17.8,71.58,19,84.74-16.25,94-13.93,20.89,9.29,27.09,36.38c4.61,20.18,2.77,40.79,2.66,56.23,4.19-5.29,5.57-14.15,4.68-23.35-1.16-12-1.16-22.82,1.75-34.43s9.47-26.7-2.13-50.69-28.64-59.58-87.45-95.18S332.42,30.18,230.27,39.47,151.34,161,151.34,161s-13.92,20.9-15.47,47.21-1.55,43.33,4.64,70.42c3.26,14.24,9.3,37.91,14.29,57.14,15.8-3.11,32.53,9.79,32.53,9.79s10.44,15.09,17.41,20.12,10.83,3.1,10.83,3.1-.38-23.6-4.25-38.7-2.32-25.53,1.54-48.75-12.77-48.36-12.77-48.36S217.51,243,224.86,257.3,228,289.8,228,289.8s14.71-31.34,1.94-65.78-39.47-47.59-39.47-47.59A51.54,51.54,0,0,1,221.76,171.4Z" transform="translate(-0.93 0)"/><path class="cls-4" d="M172,360.21s29.79,22.83,31.73,33.28,21.28,30.18,7,31.73S125.61,350.93,172,360.21Z" transform="translate(-0.93 0)"/><path class="cls-3" d="M310.39,241.39c-21,.79-39.86,8.37-53.31,20-11,9.52-18.47,21.75-20.62,35.21L178.35,316l7.35,2.52s-12.58,3.87-10.45,4.26,2.32,3.48,2.32,3.48L236,309.53c1.5,16.24,10.61,30.55,24.39,40.75,14.29,10.58,33.64,16.72,54.66,15.94s39.86-8.38,53.31-20c12.28-10.6,20.1-24.53,21.16-39.81l7.24-.27-.35-9.11-7.07.26c-1.72-15.92-10.75-29.93-24.31-40-14.3-10.58-33.65-16.73-54.67-15.94Zm-47.48,26.75c12-10.33,28.85-17.07,47.82-17.79s36.31,4.75,49,14.16c12.41,9.18,20.37,22.16,20.92,36.74s-6.42,28.11-18.11,38.21c-12,10.33-28.84,17.07-47.82,17.79s-36.31-4.75-49-14.15c-12.42-9.19-20.37-22.17-20.92-36.75S251.22,278.24,262.91,268.14Z" transform="translate(-0.93 0)"/><path class="cls-3" d="M462.56,242.33c18.65-.7,35.81,4.76,48.48,14.14,12.93,9.57,21.22,23.21,21.79,38.65S526.17,324.79,514,335.3c-11.93,10.31-28.64,17-47.28,17.73s-35.8-4.75-48.47-14.13c-11.56-8.55-19.41-20.36-21.36-33.8l-6.42.24-.3-8.07,6.27-.24c.46-14.2,7.52-27.18,18.84-37,11.94-10.3,28.64-17,47.28-17.73Zm43.77,20.5c-11.27-8.33-26.65-13.17-43.47-12.54s-31.8,6.61-42.4,15.77c-10.37,9-16.54,21-16.06,33.89s7.54,24.43,18.55,32.58c11.27,8.34,26.65,13.18,43.47,12.55s31.8-6.62,42.41-15.77c10.36-9,16.54-21,16.05-33.89S517.34,271,506.33,262.83Z" transform="translate(-0.93 0)"/><path class="cls-5" d="M454.74,475.84s-21.6-23.71-50-23.28a51.11,51.11,0,0,0-41.49,21.59S403.93,447.05,454.74,475.84Z" transform="translate(-0.93 0)"/><path class="cls-6" d="M412,355.78s7.63,41.49,7.2,50.8-13.54,12.28-11.43,15.24,11-4.65,14.61-10.37S419.43,355.14,412,355.78Z" transform="translate(-0.93 0)"/><path class="cls-6" d="M396.15,419.28s-2.75.22-8.47-3.8-8.89-13.13-8.68-7.63S380.49,424.79,396.15,419.28Z" transform="translate(-0.93 0)"/><path class="cls-3" d="M477.23,314.76c6.28,0,11.41-6.08,11.41-13.54s-5.13-13.54-11.41-13.54-11.42,6.08-11.42,13.54S470.94,314.76,477.23,314.76Z" transform="translate(-0.93 0)"/><path class="cls-3" d="M335.87,322.89c8.17,0,14.84-7.91,14.84-17.61s-6.67-17.6-14.84-17.6S321,295.59,321,305.28,327.7,322.89,335.87,322.89Z" transform="translate(-0.93 0)"/><path class="cls-3" d="M455.34,272.71s6.77,11.22,24,14.51,20.31-12.57,20.31-12.57-1.16-2.52-4.25,1.16-18.57,6.38-27.86-1.36S450.3,266.33,455.34,272.71Z" transform="translate(-0.93 0)"/><path class="cls-3" d="M344.06,278.35s-6.77,11.22-24,14.51-20.32-12.58-20.32-12.58,1.16-2.51,4.26,1.17,18.57,6.38,27.86-1.36S349.1,272,344.06,278.35Z" transform="translate(-0.93 0)"/><path class="cls-6" d="M428.3,479.87s-9.24-10.15-21.38-10a21.91,21.91,0,0,0-17.76,9.25S406.56,467.55,428.3,479.87Z" transform="translate(-0.93 0)"/><path class="cls-3" d="M466.26,566.84s93.54,36.46,120,43.62,32.91,7.15,32.91,7.15c-53.5,35.74-58,237.53-58,237.53L565.89,936h-403L157,815.07s16.62-170.31-25-199.61C271,587.14,300.25,537.67,466.26,566.84Z" transform="translate(-0.93 0)"/><path class="cls-7" d="M288.33,503.5c4.24,27.85,12.37,83.18,11.6,92.85-1,13,47.91,32.81,77.08,40.11s52.61-21.88,57.29-32.3c3.16-7-1-43.41-4.07-66.37-11,5.39-24.12,7.94-35.52,4.27C374.78,535.65,321.44,524,288.33,503.5Z" transform="translate(-0.93 0)"/><path class="cls-5" d="M132,615.46s-30.48,18.39-47.15,84S61.9,820.31,62.94,832.81c.85,10.16,47.2,25.16,96.42,30.4L157,815.07S173.63,644.76,132,615.46Z" transform="translate(-0.93 0)"/><path class="cls-5" d="M619.19,617.61c-53.5,35.74-58,237.53-58,237.53l.57,10.08s81.34-1.16,107.38-14.71,31.25-21.87,31.25-21.87S652.1,624.76,619.19,617.61Z" transform="translate(-0.93 0)"/><path class="cls-2" d="M159.36,863.21c-34.58-3.68-67.73-12.17-84.7-20.43-5,29.79-10.91,68.7-10.91,85.86a14.46,14.46,0,0,0,2,7.36h97.17Z" transform="translate(-0.93 0)"/><path class="cls-2" d="M670.92,849.61l-1.73.9c-26,13.55-107.38,14.71-107.38,14.71L565.89,936H677C677.4,909.77,674.2,876.41,670.92,849.61Z" transform="translate(-0.93 0)"/><path class="cls-5" d="M377,636.46c-29.17-7.3-78.12-27.08-77.08-40.11.31-3.87-.81-15.09-2.54-28.93-10,2.46-19.68,5.29-29.46,8.36-3.32,10.31-5.17,23.57.5,35.67C279.89,635.93,332,649,366.87,659.89s44.79-2.08,62-19.27,27.6-34.38,27.6-45.84c0-5.52-.72-18.2-1.48-29.84q-11.34-1.82-21.82-3.13c2,18.73,3.33,37.52,1.15,42.35C429.62,614.58,406.18,643.75,377,636.46Z" transform="translate(-0.93 0)"/></svg>