<svg id="Layer_1" data-name="Layer 1" xmlns="http://www.w3.org/2000/svg" viewBox="0 0 757.33 936"><defs><style>.cls-1{fill:#e3e3e3;}.cls-2{fill:#fcda38;}.cls-10,.cls-11,.cls-12,.cls-13,.cls-14,.cls-2,.cls-3,.cls-4,.cls-5,.cls-6,.cls-8,.cls-9{fill-rule:evenodd;}.cls-3{fill:#f04e47;}.cls-4{fill:#2a9345;}.cls-5{fill:#d77e4b;}.cls-6{fill:#f8a16c;}.cls-7{fill:#43b653;}.cls-8{fill:#1a130d;}.cls-9{fill:#cf7744;}.cls-10{fill:#d6b929;}.cls-11{fill:#633c1d;}.cls-12{fill:#383535;}.cls-13{fill:#fff;}.cls-14{fill:#543015;}</style></defs><rect class="cls-1" width="757.33" height="936"/><path class="cls-2" d="M271.53,569.59s-93.55,36.46-120,43.62-32.91,7.15-32.91,7.15S70.67,756.29,56.36,793.5s-22.18,59.38-22.18,59.38,47.22,27.18,79.42,38.63S158.67,898,158.67,898l17.89-40.06L172.05,936H575l5.76-118.18,28.61,68S685.23,852.16,701,830a162.93,162.93,0,0,0,22.18-45.78S662.34,684,639.44,654.7s-33.62-36.49-33.62-36.49c-26.44-5.38-99.81-31.64-143.88-47.83,0,0-28.53-5-56.66-5S271.53,569.59,271.53,569.59Z" transform="translate(0 0)"/><path class="cls-3" d="M476.17,936h41.12c1.66-30,20.58-278.17,17.59-316-.94-11.89-4.27-20.4-8.46-26.48-7.87-2.74-15.78-5.53-23.52-8.29,1.32,14.68,3.64,52.31-.33,108.73C497.89,760.25,479.85,902.72,476.17,936Z" transform="translate(0 0)"/><path class="cls-3" d="M229.83,585.56c-7.76,2.93-16,6-24.22,9.05-3.85,6-6.84,14.19-7.72,25.37-3,37.85,15.92,286,17.59,316H256.6c-3.69-33.28-21.73-175.75-26.4-242.06C226.26,638,228.51,600.47,229.83,585.56Z" transform="translate(0 0)"/><path class="cls-4" d="M437.54,567.13a322.94,322.94,0,0,0-32.26-1.8c-25.54,0-115,3.51-131.22,4.16,0,0-12,36.47-7.85,64.07,2.9,19.27,40.07,12.4,62.25,6.49v84.09c.34,10.91,2.92,15.48,7.42,14.59h31.78c4.83-.1,8.36-2.6,8.33-11.73v-88c16.47,6,61.44,18.16,79.28,7C476.11,633,437.54,567.13,437.54,567.13Z" transform="translate(0 0)"/><path class="cls-5" d="M285.48,505.52c.85,26,1.89,60.74,1.57,68.67-.52,13,62.5,52.6,65.11,53.64s8.33,4.17,22.39-3.12S423,582.52,425.07,569c1.34-8.66,1.39-37.35,1.26-56.9a151.47,151.47,0,0,1-13.27,9.77c-14.06,9-45.05,19.59-86.57,1.91C310.24,516.85,296.74,511.13,285.48,505.52Z" transform="translate(0 0)"/><path class="cls-4" d="M176.56,857.89s-15.94-212.17-57.95-237.53c0,0-47.94,135.93-62.25,173.14s-22.18,59.38-22.18,59.38,47.22,27.18,79.42,38.63S158.67,898,158.67,898Z" transform="translate(0 0)"/><path class="cls-4" d="M605.82,618.21c-26,22.18-25,199.61-25,199.61l28.61,68S685.23,852.16,701,830a162.93,162.93,0,0,0,22.18-45.78S662.34,684,639.44,654.7,605.82,618.21,605.82,618.21Z" transform="translate(0 0)"/><path class="cls-6" d="M632.6,874.78S642.29,899.33,644,936h94.24c1.25-.39,2-.49,2.29-.23-.82-6.3-7.62-84.8-24.53-132.45A156.93,156.93,0,0,1,701,830C690.9,844.17,656.27,863,632.6,874.78Z" transform="translate(0 0)"/><path class="cls-6" d="M135.42,936s5.67-19.13,10.91-37c-7.26-.4-18-2.19-32.73-7.44-18.95-6.73-43.11-18.93-59.78-27.82C44.59,888,34.44,918.15,33.34,936Z" transform="translate(0 0)"/><ellipse class="cls-7" cx="352.28" cy="660.86" rx="10.29" ry="11.72"/><ellipse class="cls-7" cx="352.28" cy="711.9" rx="10.29" ry="11.72"/><path class="cls-6" d="M198.47,349.35s-9.72-15-17.79-3.42-1.87,18,.36,40.61,2.17,33.72,17,46.26a42.07,42.07,0,0,0,32,9.5C236.67,534,351,592,413.06,552.05c32.22-20.75,77.87-66.81,83.62-105.74.93-6.23,1-6.61,1-6.61s19.59,10.05,36.08-18.13,25.8-42.71,21.22-62.87-2.19-28.16-12.84-23.38-12.72,18.8-21.28,28.28-9.67,8.9-9.67,8.9,6.94-30.78,4-51.1-12.57-46.79-17.66-52.72-8.21-6.38-8.21-6.38,4.32,16.55,8.63,22.35a82.71,82.71,0,0,0,5.7,7.21,180.21,180.21,0,0,1-23.86-13.47,152.21,152.21,0,0,1-22.12-17.19s7,12.17,9.6,18.52,3.57,8.08,3.57,8.08-8.51-12.39-16.59-19.55-12.2-9-12.2-9,6.05,15.61,6.19,20l.15,4.4s-34.59-48.46-59.42-58.09-53-17.78-79.95-21.36-38.91,5-41.7,7.76-4.9,11.6-20.36,22-25.56,27.63-30.61,48.36.39,24.31-1.71,33.15-7,15.27-6.55,30.84a134.28,134.28,0,0,0,4.42,29.29S197.61,365.92,198.47,349.35Z" transform="translate(0 0)"/><path class="cls-8" d="M497.49,268.68c5.09,5.93,14.69,32.4,17.66,52.72s-4,51.1-4,51.1,1.11.57,9.67-8.9,10.63-23.49,21.28-28.28c2.41-1.08,4.15-1.51,5.46-1.29a56.47,56.47,0,0,0,.22-6.91c-.13-.52,4.36,1.43,4.36,1.43l-3.59-8.68,9.15,8.71s1,.45-.46-2.95S542.89,283,542.06,259s3.18-24.18,3.18-24.18L557,252.42s0-.39-3.84-11.7-14.28-27.17-28.56-54.33-94.5-70.83-131.73-79.91-85.12.14-108,15.06S261.93,150,261.93,150s-12.88,6.45-30.29,16.6-26.84,17.51-42.53,51-2.55,80.54-3,83.46-.64,12.43-4.77,20.17-4.88,19.56-4.88,19.56,0-.19,1.11-4.81,6.86-8.73,6.86-8.73-1.17,6.59-2.65,12.54a21.26,21.26,0,0,0-.57,5.47c7.95-10.15,17.25,4.15,17.25,4.15-.86,16.57,14,26.33,14,26.33a134.28,134.28,0,0,1-4.42-29.29c-.48-15.57,4.44-22,6.55-30.84s-3.34-12.42,1.71-33.15,15.15-37.92,30.61-48.36,17.56-19.28,20.36-22,14.8-11.34,41.7-7.76S364.11,216,388.93,225.6s59.42,58.09,59.42,58.09l-.15-4.4c-.14-4.39-6.19-20-6.19-20s4.11,1.8,12.2,9S470.8,287.8,470.8,287.8s-.93-1.73-3.57-8.08-9.6-18.52-9.6-18.52a152.21,152.21,0,0,0,22.12,17.19,180.21,180.21,0,0,0,23.86,13.47,82.71,82.71,0,0,1-5.7-7.21c-4.31-5.8-8.63-22.35-8.63-22.35S492.4,262.76,497.49,268.68Z" transform="translate(0 0)"/><path class="cls-9" d="M190.11,359.51s-1.14,15.74,8.51,23.13,15.12,2.64,13,14.25,16,34.57,6.41,32S173.54,380.13,190.11,359.51Z" transform="translate(0 0)"/><path class="cls-9" d="M539.6,357.08s-10.27,18.37-17.32,25.68-3.38,9.44-4,19.28-15.88,26.69-4.65,18S548.86,385.89,539.6,357.08Z" transform="translate(0 0)"/><path class="cls-10" d="M200.33,337.77s7.83,3.75,10.93,4.4a28.93,28.93,0,0,0,3.59.66l-1,18.43s-2,.16-5.38-2.93-13.22-14.2-13.22-14.2S194,337.12,200.33,337.77Z" transform="translate(0 0)"/><path class="cls-2" d="M222.84,342.5c-2.44,1-8,.33-8,.33l-1,18.43s6.36-.65,8.65,3.59,4.89,21.54,17,32.95,45,14.36,70.48,8.16,33.61-33.93,37.19-42.74c4.39-10.76,29.44-10.76,33.82,0,3.59,8.81,11.75,36.54,37.2,42.74s58.4,3.27,70.48-8.16,14.68-28.71,17-32.95,8.65-3.59,8.65-3.59l-1-18.43s-5.55.65-8-.33-15.83-14.2-44.87-15.17-53.51,3.59-64.93,9.79-12.72,7.18-18.6,7.18H351.23c-5.87,0-7.17-1-18.59-7.18s-35.9-10.77-64.93-9.79-42.42,14.19-44.87,15.17Zm262.06-3.59s11.42,5.71,11.26,24-9,29.86-23.33,34.75-40.63,5.38-55.47-1.47-24.15-19.57-25.12-32.3,1-16.8,7-20.39,44.21-21.37,85.65-4.57Zm-241.67,0c41.44-16.8,79.61,1,85.65,4.57s8,7.66,7,20.39-10.28,25.45-25.12,32.3-41.11,6.36-55.47,1.47S232.13,381.17,232,362.89,243.23,338.91,243.23,338.91Z" transform="translate(0 0)"/><path class="cls-10" d="M527.8,337.77s-7.83,3.75-10.93,4.4a28.93,28.93,0,0,1-3.59.66l1,18.43s2,.16,5.38-2.93,13.22-14.2,13.22-14.2S534.16,337.12,527.8,337.77Z" transform="translate(0 0)"/><path class="cls-11" d="M319.48,488.8c.14,0,47.54,12.89,71.76,2.89l.79,1.92c-24.88,10.27-73-2.76-73.1-2.8Z" transform="translate(0 0)"/><path class="cls-11" d="M360.77,374.47c0,.1,0,34.7-5.79,56-2,7.26-3.47,12.17-4.53,15.65-1.87,6.11-2.28,7.45-1.7,10.2.82,3.85,21.84,3.2,21.9,3.2l0,2.81c-.07,0-22.67.75-23.94-5.24-.78-3.68-.32-5.18,1.77-12,1-3.4,2.51-8.21,4.51-15.55,5.66-20.86,5.66-55,5.66-55.07Z" transform="translate(0 0)"/><path class="cls-9" d="M310.77,396.17c14.84-6.85,24.14-19.57,25.12-32.3s-1-16.8-7-20.39-44.21-21.37-85.65-4.57c0,0-11.42,5.71-11.26,24s9,29.86,23.33,34.75S295.92,403,310.77,396.17Z" transform="translate(0 0)"/><path class="cls-9" d="M392.24,363.87c1,12.73,10.27,25.45,25.12,32.3s41.11,6.37,55.47,1.47,23.16-16.47,23.33-34.75-11.26-24-11.26-24c-41.44-16.8-79.61,1-85.65,4.57S391.26,351.14,392.24,363.87Z" transform="translate(0 0)"/><path class="cls-12" d="M444.08,384.39c8.8,0,16-8,16-17.83s-7.19-17.84-16-17.84-16,8-16,17.84S435.27,384.39,444.08,384.39Z" transform="translate(0 0)"/><path class="cls-13" d="M436.93,363.28c1.77,0,3.21-1.72,3.21-3.83s-1.44-3.83-3.21-3.83-3.22,1.72-3.22,3.83S435.15,363.28,436.93,363.28Z" transform="translate(0 0)"/><path class="cls-12" d="M426.42,361a5,5,0,1,1-4.25-9l31.25-14.71a5,5,0,1,1,4.25,9Z" transform="translate(0 0)"/><path class="cls-12" d="M276.9,384.39c8.81,0,16-8,16-17.83s-7.18-17.84-16-17.84-16,8-16,17.84S268.09,384.39,276.9,384.39Z" transform="translate(0 0)"/><path class="cls-13" d="M271.82,361.13c1.77,0,3.22-1.73,3.22-3.84s-1.45-3.83-3.22-3.83-3.22,1.72-3.22,3.83S270.05,361.13,271.82,361.13Z" transform="translate(0 0)"/><path class="cls-12" d="M294.55,361a5,5,0,1,0,4.26-9l-31.25-14.71a5,5,0,0,0-4.26,9Z" transform="translate(0 0)"/><path class="cls-14" d="M335.47,503.9a65.8,65.8,0,0,0,20.83,3.65h16.93S347.71,528.64,335.47,503.9Z" transform="translate(0 0)"/></svg>