<svg id="Layer_1" data-name="Layer 1" xmlns="http://www.w3.org/2000/svg" viewBox="0 0 757.33 936"><defs><style>.cls-1{fill:#1d74bb;}.cls-2{fill:#fff;}.cls-11,.cls-12,.cls-2,.cls-3,.cls-4,.cls-5,.cls-6,.cls-7,.cls-8,.cls-9{fill-rule:evenodd;}.cls-3{fill:#e6898a;}.cls-4{fill:#f16060;}.cls-5{fill:#f7abad;}.cls-6{fill:#f6e4e6;}.cls-7{fill:#e68283;}.cls-8{fill:#521f1f;}.cls-10,.cls-9{fill:#cfe17d;}.cls-11{fill:#da7878;}.cls-12{fill:#fef4f5;}</style></defs><rect class="cls-1" width="757.33" height="936"/><path class="cls-2" d="M287.65,629.34s-93.54,36.46-120,43.62-32.91,7.15-32.91,7.15c53.49,35.74,58,237.53,58,237.53L191.62,936H594.05l2.85-58.43s-16.62-170.31,25-199.6c-26.44-5.39-99.81-31.65-143.87-47.84,0,0-42.51-6-88.87-9.08S287.65,629.34,287.65,629.34Z" transform="translate(0.33 0)"/><path class="cls-3" d="M302.78,577.3c3.81,23.19,8.62,53.8,8.62,60.42,0,10.93,59.32,46.87,76.76,51.56s52.92-32.81,52.92-32.81l3.24-89.85c-18.45,9.59-36.21,18.35-50.49,25.11-21.58,10.22-46.57,9.65-69.29-1.14l-1-.51h0l-1-.52h0l-1-.51,0,0h0l-1-.52-.05,0-1-.54-.06,0-1-.53h0l-.06,0-.08,0-.54-.3-.34-.2-.08,0-.61-.35-.34-.2-.09,0-.25-.14-.69-.41-.1-.06h0l-.9-.55-.12-.07-.22-.13-.34-.21-.34-.22-.13-.07-.21-.13-.34-.22-.34-.21-.13-.09-.2-.13-.34-.21-.34-.22L311,583l-.19-.13-.83-.54-.18-.12-.33-.22-.34-.23-.17-.1-.17-.12-.33-.22-.34-.23-.18-.12-.15-.1-.33-.23-.34-.23-.19-.13-.15-.1-.33-.23-.33-.24-.21-.13-.13-.1-.33-.23-.33-.24-.22-.14-.12-.09-.33-.24-.33-.23-.23-.16-.11-.08-.67-.48-.23-.17Z" transform="translate(0.33 0)"/><path class="cls-4" d="M134.73,680.11S111.58,702.29,101.16,771s-7.29,85.42-7.29,85.42,45.48,10.43,96.07,12.38C185,806.75,171.33,704.56,134.73,680.11Z" transform="translate(0.33 0)"/><path class="cls-4" d="M621.94,678c-36.86,25.92-28.1,162.21-25.59,193.29,0,0,43.36-1.26,64.19-7.51A72.57,72.57,0,0,0,692.83,844S656.26,681.77,621.94,678Z" transform="translate(0.33 0)"/><path class="cls-5" d="M189.94,868.84a579.89,579.89,0,0,1-77.46-8.7c-.38,20.66-.37,48.14,1.18,75.86h78l1.06-18.36S192.23,897.51,189.94,868.84Z" transform="translate(0.33 0)"/><path class="cls-5" d="M596.9,877.57,594.05,936h88.36s0-40.31-10.2-76.87a73.9,73.9,0,0,1-11.67,4.62c-20.83,6.25-64.19,7.51-64.19,7.51C596.68,875.31,596.9,877.57,596.9,877.57Z" transform="translate(0.33 0)"/><path class="cls-4" d="M335.53,745c5.21-11.46,52.63-55.71,52.63-55.71-17.44-4.69-76.76-40.63-76.76-51.56,0-2.06-.46-6.45-1.22-12.22-13.64,2-22.53,3.84-22.53,3.84C284.56,649.11,330.32,756.45,335.53,745Z" transform="translate(0.33 0)"/><path class="cls-4" d="M397.94,688.54c15.54,10.22,54.77,44.47,65.71,45.51s10.42-5.73,10.42-5.73v-37.5c0-37.5-13.36-62.92-13.36-62.92-5.26-.63-11.53-1.36-18.52-2.12l-1.11,30.69S416.27,682.7,397.94,688.54Z" transform="translate(0.33 0)"/><path class="cls-6" d="M424.83,799.4c0-12.28-10.23-80.15-11.17-99.25-6.21-4.8-11.74-9-15.72-11.61-3.58,1.14-6.92,1.5-9.78.74,0,0-9.6,9-20.64,19.86,3.18,26.48,12.88,104.51,17.2,108C389.93,821.27,424.83,813.46,424.83,799.4Z" transform="translate(0.33 0)"/><path class="cls-4" d="M431.08,802c0-11.82-9.47-75.11-11-96.88l-6.39-5c.94,19.1,11.17,87,11.17,99.25,0,11.51-23.38,18.83-34.72,18.83a3.77,3.77,0,0,0,.86,1.48C396.18,823.88,431.08,816.07,431.08,802Z" transform="translate(0.33 0)"/><path class="cls-4" d="M396.7,735.08c4.8,0,8.72-4.22,8.72-9.38s-3.92-9.37-8.72-9.37-8.73,4.2-8.73,9.37S391.89,735.08,396.7,735.08Z" transform="translate(0.33 0)"/><path class="cls-4" d="M401.91,790.54c4.8,0,8.72-4.21,8.72-9.37s-3.92-9.38-8.72-9.38-8.73,4.21-8.73,9.38S397.1,790.54,401.91,790.54Z" transform="translate(0.33 0)"/><path class="cls-4" d="M491.31,258.06s-5.52,29.85-104.18,41.85-94.62,7.52-127.72,3.53-47.31-8-48.05,4.71-5,29.22,1.11,46.78,7.82,21.93,7.82,21.93-13.76-14.34-16.43-17.45-4.28,16.54-1.32,40.78,3.8,40.72,10,58.85,8.73,24.68,8.73,24.68-20-23.31-26-44.32S182.65,406,171.42,393.68s-12.71-10.47-15.9-27.24-3-71.73-6.3-98.78-25.3-62.15,37.31-102.38S256.35,95,298.8,81.82s62.57-3,62.57-3,20.94-30,62-17.27,123.12,66.83,138.89,92.94,17,40.84,18.17,64.72,15.1,34.78,16.15,81-19.11,73.27-19.11,73.27-7.77-16.79-11.74-7.15-10.19,15-12.39,39.26-15.3,48.2-22.5,54.8-14.77,15-5.69-4.45,6.31-37.39,1.63-71.14-6.51-53.56-15.16-82.26S491.31,258.06,491.31,258.06Z" transform="translate(0.33 0)"/><path class="cls-5" d="M195.29,439.4c-6-21-12.64-33.36-23.87-45.72-5.25-5.78-8.37-8.45-10.53-11.36-3.42,36.93,13.67,87.6,27.69,105.38,18.94,24,30.55,6.58,30.55,6.58s.28,2.25,7.34,18,18.75,41.2,43.71,53.61,47.17,30.31,71,38.27,48.73,5.51,68.92-7.24,47.72-31,73.49-49.56,35.57-65,35.57-65,12.82,1.87,24.52-.69,9.54-10.89,12.4-25,13.23-37.08,19.42-56.71,1.92-26.55,1.92-26.55-7.77-16.79-11.74-7.15-10.19,15-12.39,39.26-15.3,48.2-22.5,54.8-14.77,15-5.69-4.45,6.31-37.39,1.63-71.14-6.51-53.56-15.16-82.26-20.28-44.44-20.28-44.44-5.52,29.85-104.18,41.85-94.62,7.52-127.72,3.53-47.31-8-48.05,4.71-5,29.22,1.11,46.78,7.82,21.93,7.82,21.93-13.76-14.34-16.43-17.45-4.28,16.54-1.32,40.78,3.8,40.72,10,58.85,8.73,24.68,8.73,24.68S201.28,460.41,195.29,439.4Z" transform="translate(0.33 0)"/><path class="cls-7" d="M195.29,439.4c-4-14-8.25-24.1-14-32.95-1.7,3.4-2.83,9.41-1.54,20,3,24.56,17.32,47.48,24.77,50.5,2.73,1.11,4.56-2.64,5.77-7.83C204.63,460.72,198.25,449.78,195.29,439.4Z" transform="translate(0.33 0)"/><path class="cls-8" d="M441,408.57c6.74,0,12.24-10.07,12.24-22.4s-5.5-22.4-12.24-22.4-12.24,10.06-12.24,22.4S434.21,408.57,441,408.57Z" transform="translate(0.33 0)"/><path class="cls-9" d="M456.61,302.43A83.73,83.73,0,1,1,397.39,327a83.48,83.48,0,0,1,59.22-24.52Zm47.9,35.84a67.75,67.75,0,1,0,19.84,47.9A67.54,67.54,0,0,0,504.51,338.27Z" transform="translate(0.33 0)"/><path class="cls-9" d="M276.92,302.43A83.73,83.73,0,1,1,217.7,327a83.48,83.48,0,0,1,59.22-24.52Zm47.9,35.84a67.75,67.75,0,1,0,19.84,47.9A67.52,67.52,0,0,0,324.82,338.27Z" transform="translate(0.33 0)"/><rect class="cls-10" x="353.51" y="378.08" width="26.82" height="16.93"/><path class="cls-9" d="M197.44,375.4l-17.71,7s3.65,1.31,2.6,3.91-4.94,2.87-.78,5,19.79-4,19.79-4Z" transform="translate(0.33 0)"/><path class="cls-9" d="M535.46,375.4l17.71,7s-3.65,1.31-2.61,3.91,5,2.87.78,5-19.78-4-19.78-4Z" transform="translate(0.33 0)"/><path class="cls-11" d="M359.65,431.9a2.49,2.49,0,1,1,4.73,1.58c0,.09-10.84,32.49-11.86,48.83-.89,14.27,19,16.12,19.09,16.13a2.49,2.49,0,1,1-.45,5c-.07,0-24.81-2.31-23.62-21.38C348.61,465,359.62,432,359.65,431.9Z" transform="translate(0.33 0)"/><path class="cls-11" d="M377.92,501.05a2.5,2.5,0,0,1-.57-5,48,48,0,0,0,11-2.68,2.49,2.49,0,0,1,1.93,4.59A53.56,53.56,0,0,1,377.92,501.05Z" transform="translate(0.33 0)"/><path class="cls-11" d="M327.05,533.8a2.49,2.49,0,1,1,3.77-3.26s9.16,11.11,41.34,11.11,39.63-10.92,39.65-10.94a2.49,2.49,0,0,1,4,2.92s-9.07,13-43.69,13S327.08,533.83,327.05,533.8Z" transform="translate(0.33 0)"/><path class="cls-8" d="M276.92,408.57c6.74,0,12.24-10.07,12.24-22.4s-5.5-22.4-12.24-22.4-12.24,10.06-12.24,22.4S270.17,408.57,276.92,408.57Z" transform="translate(0.33 0)"/><path class="cls-8" d="M263.55,364.87a2,2,0,0,1-3.91-.83c2.17-10.24,7.06-15.4,12.55-17.08a15,15,0,0,1,7.64-.23,19.08,19.08,0,0,1,7,3.17h0c5.56,4,9.4,10.88,8.26,18a2,2,0,1,1-3.94-.62c.89-5.52-2.2-10.94-6.64-14.12h0a15.16,15.16,0,0,0-5.52-2.53,11,11,0,0,0-5.61.15C269.16,352.06,265.37,356.29,263.55,364.87Z" transform="translate(0.33 0)"/><path class="cls-12" d="M447,385.15c2.08,0,3.78-2.57,3.78-5.73s-1.7-5.73-3.78-5.73-3.77,2.58-3.77,5.73S444.94,385.15,447,385.15Z" transform="translate(0.33 0)"/><path class="cls-12" d="M280.87,385.15c2.08,0,3.77-2.57,3.77-5.73s-1.69-5.73-3.77-5.73-3.77,2.58-3.77,5.73S278.79,385.15,280.87,385.15Z" transform="translate(0.33 0)"/><path class="cls-8" d="M427.91,364.87A2,2,0,1,1,424,364c2.17-10.24,7.06-15.4,12.55-17.08a15,15,0,0,1,7.63-.23,18.94,18.94,0,0,1,7,3.17h0c5.57,4,9.41,10.88,8.27,18a2,2,0,1,1-3.94-.62c.89-5.52-2.2-10.94-6.65-14.12h0a15.23,15.23,0,0,0-5.52-2.53,11,11,0,0,0-5.61.15C433.53,352.06,429.73,356.29,427.91,364.87Z" transform="translate(0.33 0)"/><path class="cls-3" d="M350.14,552.86s15.1,4.42,26,4.16,15.89-3.12,15.89-3.12-9.9,13-22.4,11.46S350.14,552.86,350.14,552.86Z" transform="translate(0.33 0)"/></svg>