<svg id="Layer_1" data-name="Layer 1" xmlns="http://www.w3.org/2000/svg" viewBox="0 0 757.33 936"><defs><style>.cls-1{fill:#fde0dc;}.cls-2{fill:#f9ac84;}.cls-10,.cls-11,.cls-12,.cls-2,.cls-3,.cls-4,.cls-5,.cls-6,.cls-8,.cls-9{fill-rule:evenodd;}.cls-3,.cls-7{fill:#4f2f36;}.cls-4{fill:#d68f5c;}.cls-5{fill:#f79969;}.cls-6{fill:#444592;}.cls-8{fill:#f1bdac;}.cls-9{fill:#383535;}.cls-10{fill:#fff;}.cls-11{fill:#f15b2b;}.cls-12{fill:#f4805a;}</style></defs><rect class="cls-1" width="757.33" height="936"/><path class="cls-2" d="M194.32,372.48S173.55,358,169.77,388s12.07,28.18,19.88,55.1,2.62,31.88,14.85,43.87,24.56,1.71,24.56,1.71c17.95,123.93,191,145.49,262.45,77.8,40.67-38.55,56.2-87.79,56.2-87.79s17.7,2.92,22.53-21.18S582,421,586.39,388.9s-.23-49.75-10.35-51.24-21.59,20.76-22.43,30.26l-.84,9.5S549,326,535.34,306.21s-8.34-47-11.18-68.77-23.1-50.49-29-55.5-14,20.68-18.87,27.6l-4.83,6.92s.18-21.76,1.59-28.08-12.91,1.28-18.29,19.42l-5.38,18.14s-3.49-14-3.94-25.08l-.44-11s-12.24,10.76-21.75,17a53.14,53.14,0,0,1-17.84,7.71L420,197.28s-32.43-3.35-54.11-3.05-62.26,8-81.39,17-55.5,29-57.37,38.47-2.6,25.23-1.35,43.7-4.94,29.18-9.22,42.07-7.19,25-6.66,36.56-1.42,29.06-1.42,29.06S201.89,381,194.32,372.48Z" transform="translate(0.33)"/><path class="cls-3" d="M535.34,306.21C549,326,552.77,377.42,552.77,377.42l.84-9.5c.56-6.3,5.8-18.23,12.22-25.1,1.18-12.66,3.5-26.05,4.56-41.3,1.57-22.52-8-33.95-8-33.95s13.2,3.21,24.7-.34,8.06-11.54,8.06-11.54-9.42,6.72-19.07,6.42-18.81-14.86-18.81-14.86,26.06-4.12,29.85-16.92-4.78-27-4.78-27,.38,5-2.26,18.59-17.34,16.22-26.4,2.16-9-27.73-15-47.38-21.93-23.91-21.93-23.91S467,88.88,412.68,90.42s-79.85,0-148.09,31.31-66.14,60.24-84.26,112-6.51,83,4,102.39,10,36.39,10,36.39c7.57,8.51,14.16,28.57,14.16,28.57s2-17.53,1.42-29.06,2.37-23.67,6.66-36.56,10.48-23.59,9.22-42.07-.52-34.27,1.35-43.7,38.23-29.52,57.37-38.47,59.71-16.65,81.39-17S420,197.28,420,197.28l-14.63,17.25a53.14,53.14,0,0,0,17.84-7.71c9.51-6.24,21.75-17,21.75-17l.44,11c.45,11,3.94,25.08,3.94,25.08l5.38-18.14c5.38-18.14,19.7-25.73,18.29-19.42s-1.59,28.08-1.59,28.08l4.83-6.92c4.85-6.92,12.92-32.61,18.87-27.6s26.2,33.76,29,55.5S521.72,286.39,535.34,306.21Z" transform="translate(0.33)"/><path class="cls-4" d="M186.79,392.76s27,18.46,26.94,26.56S202,433,208.25,442.53s14.48,24.72,5.86,21.71S176.3,407.76,186.79,392.76Z" transform="translate(0.33)"/><path class="cls-4" d="M577,367.55s-19.08,15-19.67,28.76,5.68,12.13-.5,22.83-7.79,30.19-.73,24.39S579.45,395.43,577,367.55Z" transform="translate(0.33)"/><path class="cls-5" d="M293.3,581.33c1,12.68,1.65,26.61.47,28.53-1.31,2.13-11.54,9.9-20.47,15.28-65.63,94.87,94,120.77,162.92,91.13C483.05,696.13,489,652,487.56,624c-17.58-7.65-31.09-13.65-36.63-16.13a5.29,5.29,0,0,1-2.76-1.23c-1-.75-2.57-7-3.54-12.42C397.54,610.81,338.09,607,293.3,581.33Z" transform="translate(0.33)"/><path class="cls-6" d="M619,668.13c-41.66,29.3-25,199.61-25,199.61s34.68,6,74.27-3.4,47.91-26,47.91-26S671.84,665.67,619,668.13Z" transform="translate(0.33)"/><path class="cls-6" d="M131.77,670.28c45.59,22.71,55.58,193.47,55.58,193.47a211.47,211.47,0,0,1-74.8,7.9C72,868.33,61.27,853.1,61.27,853.1S79.14,675.78,131.77,670.28Z" transform="translate(0.33)"/><path class="cls-5" d="M87.15,867.27c.19,21.29.56,47.07,1.25,68.73h99.7l1.62-28.2s-.39-17.93-2.37-44a211.47,211.47,0,0,1-74.8,7.9A131.53,131.53,0,0,1,87.15,867.27Z" transform="translate(0.33)"/><path class="cls-5" d="M593.94,867.74,590.62,936h96.6c-.28-22.6-1.79-49.86-6.31-75.23-3.83,1.26-8,2.47-12.7,3.57C628.62,873.71,593.94,867.74,593.94,867.74Z" transform="translate(0.33)"/><path class="cls-3" d="M461.2,277.83a74.11,74.11,0,0,1,53.36,22.79,79.56,79.56,0,0,1,0,110.06,73.85,73.85,0,0,1-106.71,0,79.56,79.56,0,0,1,0-110.06,74.11,74.11,0,0,1,53.35-22.79Zm41.55,35a57.52,57.52,0,0,0-83.09,0,62,62,0,0,0,0,85.69,57.49,57.49,0,0,0,83.09,0,62,62,0,0,0,0-85.69Z" transform="translate(0.33)"/><path class="cls-3" d="M306.54,277.83a74.13,74.13,0,0,1,53.36,22.79,79.56,79.56,0,0,1,0,110.06,73.85,73.85,0,0,1-106.71,0,79.54,79.54,0,0,1,0-110.06,74.09,74.09,0,0,1,53.35-22.79Zm41.55,35a57.52,57.52,0,0,0-83.09,0,62,62,0,0,0,0,85.69,57.49,57.49,0,0,0,83.09,0,62,62,0,0,0,0-85.69Z" transform="translate(0.33)"/><rect class="cls-7" x="372.86" y="345.36" width="19.36" height="16.15"/><path class="cls-8" d="M365.29,355.65a61.44,61.44,0,0,0-17.2-42.85,57.52,57.52,0,0,0-83.09,0,62,62,0,0,0,0,85.69,57.49,57.49,0,0,0,83.09,0A61.39,61.39,0,0,0,365.29,355.65Z" transform="translate(0.33)"/><path class="cls-8" d="M419.66,312.8a62,62,0,0,0,0,85.69,57.49,57.49,0,0,0,83.09,0,62,62,0,0,0,0-85.69,57.52,57.52,0,0,0-83.09,0Z" transform="translate(0.33)"/><path class="cls-4" d="M333.45,543a2.49,2.49,0,0,1-3.87-3.15,44,44,0,0,1,5.94-6c11.54-9.75,28.21-14.39,44.73-14.33s33,4.82,44.19,13.87a42.75,42.75,0,0,1,5.78,5.62,2.5,2.5,0,0,1-3.81,3.23,37.73,37.73,0,0,0-5.11-5c-10.28-8.32-25.6-12.69-41.05-12.75s-30.91,4.2-41.51,13.15A39.53,39.53,0,0,0,333.45,543Z" transform="translate(0.33)"/><path class="cls-3" d="M240.3,332.48l-10.42,1.08-32.81,4.35s1.47,7.78-1,8.32,4.95,0,4.17,1.81-4.69,2.9-3.91,4.35,37.5,2.54,37.5,2.54Z" transform="translate(0.33)"/><path class="cls-3" d="M517.09,332.48l10.42,1.08,32.81,4.35s-1.46,7.78,1,8.32-5,0-4.17,1.81,4.69,2.9,3.91,4.35-37.5,2.54-37.5,2.54Z" transform="translate(0.33)"/><path class="cls-9" d="M461.85,391.33c8.81,0,16-8,16-17.84s-7.18-17.83-16-17.83-16,8-16,17.83S453,391.33,461.85,391.33Z" transform="translate(0.33)"/><path class="cls-10" d="M454.69,370.22c1.78,0,3.22-1.72,3.22-3.83s-1.44-3.83-3.22-3.83-3.21,1.72-3.21,3.83S452.92,370.22,454.69,370.22Z" transform="translate(0.33)"/><path class="cls-9" d="M306.54,391.33c8.81,0,16-8,16-17.84s-7.18-17.83-16-17.83-16,8-16,17.83S297.73,391.33,306.54,391.33Z" transform="translate(0.33)"/><path class="cls-10" d="M299.39,370.22c1.77,0,3.22-1.72,3.22-3.83s-1.45-3.83-3.22-3.83-3.22,1.72-3.22,3.83S297.62,370.22,299.39,370.22Z" transform="translate(0.33)"/><path class="cls-4" d="M358.81,448.46a2.49,2.49,0,0,1,4.41,2.3,49.46,49.46,0,0,0-4.93,19.78,6.21,6.21,0,0,0,.46,2.7h0c1,2.23,3.39,3.74,6.2,4.73a33.39,33.39,0,0,0,9.39,1.69,18.25,18.25,0,0,0,3.66-.06,2.5,2.5,0,1,1,2,4.59,18.35,18.35,0,0,1-5.82.45,39.09,39.09,0,0,1-10.85-2c-4-1.42-7.52-3.75-9.12-7.48h0a11.16,11.16,0,0,1-.85-4.86A54.62,54.62,0,0,1,358.81,448.46Z" transform="translate(0.33)"/><path class="cls-4" d="M390.38,482.27a2.49,2.49,0,1,1-.92-4.9s8.12-1.48,12.91-4.59a2.49,2.49,0,0,1,2.71,4.18C399.44,480.63,390.4,482.27,390.38,482.27Z" transform="translate(0.33)"/><path class="cls-4" d="M357.08,548.8s14.58-4.16,27.61-3.12,18.75,4.17,18.75,4.17S381,520.16,357.08,548.8Z" transform="translate(0.33)"/><path class="cls-9" d="M447.43,350.78a4,4,0,0,1,5.25-6A51.91,51.91,0,0,0,483,356.3a4,4,0,0,1-.31,8A60.44,60.44,0,0,1,447.43,350.78Z" transform="translate(0.33)"/><path class="cls-9" d="M315,350.78a4,4,0,0,0-5.25-6A51.91,51.91,0,0,1,279.4,356.3a4,4,0,0,0,.32,8A60.43,60.43,0,0,0,315,350.78Z" transform="translate(0.33)"/><path class="cls-11" d="M266.74,626.44c-28.52,10.94-82.88,31.5-102.06,36.68-26.47,7.16-32.91,7.16-32.91,7.16C185.27,706,189.72,907.8,189.72,907.8L188.1,936H590.62l3.32-68.26s-16.62-170.31,25-199.61c-21.06-4.29-71.9-21.83-114-37l-35.78-15.22-91.34,84c-8.32.25-16.86.09-25.32-.48L284,618.06Z" transform="translate(0.33)"/><polygon class="cls-12" points="267.07 626.44 341.77 718.6 385.52 719.64 487.89 623.97 512.85 633.86 401.67 737.35 337.61 741.52 245.23 634.76 267.07 626.44"/></svg>