<svg id="Layer_1" data-name="Layer 1" xmlns="http://www.w3.org/2000/svg" viewBox="0 0 2272 1872"><defs><style>.cls-1{fill:#3ab4c4;}.cls-2{fill:#6fc2a4;}.cls-3{fill:#8f6c1b;}.cls-4{fill:#bb7074;}.cls-5{fill:#35751c;}.cls-12,.cls-6{fill:#863e42;}.cls-10,.cls-11,.cls-14,.cls-15,.cls-16,.cls-17,.cls-18,.cls-19,.cls-22,.cls-23,.cls-24,.cls-25,.cls-26,.cls-27,.cls-28,.cls-29,.cls-30,.cls-32,.cls-33,.cls-34,.cls-35,.cls-36,.cls-37,.cls-38,.cls-39,.cls-40,.cls-41,.cls-42,.cls-43,.cls-44,.cls-45,.cls-46,.cls-47,.cls-48,.cls-50,.cls-52,.cls-53,.cls-54,.cls-55,.cls-56,.cls-57,.cls-58,.cls-59,.cls-6,.cls-60,.cls-61,.cls-62,.cls-7,.cls-8,.cls-9{fill-rule:evenodd;}.cls-7{fill:#f6c695;}.cls-8{fill:#eb8144;}.cls-9{fill:#fefefe;}.cls-10,.cls-13{fill:#d69e66;}.cls-11{fill:#ffe1c2;}.cls-14,.cls-20{fill:#fff282;}.cls-15{fill:#c7ba45;}.cls-16{fill:#9c6949;}.cls-17{fill:#bd8c6e;}.cls-18{fill:#2e211b;}.cls-19{fill:#96674a;}.cls-21{fill:#e0b194;}.cls-22{fill:#a37151;}.cls-23{fill:#fcc899;}.cls-24{fill:#e3aa78;}.cls-25{fill:#d6ac48;}.cls-26{fill:#e36f30;}.cls-27,.cls-31{fill:#ab4711;}.cls-28{fill:#fcd26f;}.cls-29{fill:#fcd5b3;}.cls-30{fill:#c2845b;}.cls-32{fill:#9a6038;}.cls-33{fill:#e09e65;}.cls-34{fill:#b96328;}.cls-35{fill:#0c0306;}.cls-36{fill:#ffe8b2;}.cls-37{fill:#ffcd5c;}.cls-38{fill:#914817;}.cls-39{fill:#dd5350;}.cls-40{fill:#e3b446;}.cls-41{fill:#de8d56;}.cls-43{fill:#4d2104;}.cls-44,.cls-51{fill:#64c1af;}.cls-45{fill:#ffca81;}.cls-46{fill:#f8f7c9;}.cls-47{fill:#d6a25a;}.cls-48{fill:#7edecb;}.cls-49,.cls-50{fill:#ffe0b5;}.cls-52{fill:#ffe1a6;}.cls-53{fill:#7e353e;}.cls-54{fill:#f56e6c;}.cls-55{fill:#fff2cd;}.cls-56{fill:#c43937;}.cls-57{fill:#462d0f;}.cls-58{fill:#debc78;}.cls-59{fill:#fff1d4;}.cls-60{fill:#b86771;}.cls-61{fill:#a18142;}.cls-62{fill:#612028;}</style></defs><rect class="cls-1" y="936" width="757.33" height="936"/><rect class="cls-2" x="757.33" width="757.33" height="936"/><rect class="cls-2" x="1514.67" y="936" width="757.33" height="936"/><rect class="cls-3" x="1514.67" width="757.33" height="936"/><rect class="cls-4" x="757.33" y="936" width="757.33" height="936"/><rect class="cls-5" width="757.33" height="936"/><path class="cls-6" d="M175,760.34c-33.12,11.26-75.52,41.73-75.52,41.73S71,868.31,64.35,895.47,56.4,936,56.4,936H700.93s-16.56-86.23-27.82-108.09-11.26-23.19-11.26-23.19-153-82.8-179.85-89.09c0,0-16.82-8.84-17.88-20-.58-6.1-.52-28.95-.35-48.32a137.06,137.06,0,0,1-80.4,24.09c-29.91-.89-60.15-21.17-80-44.82,1.68,23.46,3.31,50.76,2.45,57.94C303.17,706.9,189.48,755.41,175,760.34Z"/><path class="cls-7" d="M237.91,392.45s-14.3,1.19-14.3,25,14.3,44.11,16.09,60.81,0,28,8.35,32.78,11.92,3,11.92,3,11.93,56,27.42,88.23,56,68,96,69.15,87.63-17.88,110.88-56S527,534.33,527,534.33s5.06,8.35,23.25-9.83,20.86-37.26,29.21-58.13,4.17-38.15-6-42.32-23.85,15.49-27.43,26.22-4.76,28.62-4.76,28.62-14.91-79.28-47.7-91.8-31.59-6.56-31.59-6.56,0-46.5-5.37-61.4l-5.36-14.91s9.54,51.27,3.58,65-20.27,21.46-20.27,21.46,16.69-41.73-7.16-77.5-72.13-43.51-75.71-43.51-57.23,38.75-59,68,1.8,28-2.38,34.57-16.69,14.91-19.67,23.25-17.29,50.08-17.29,50.08S246.26,383.51,237.91,392.45Z"/><path class="cls-8" d="M290.37,372.18c4.18-6.56.6-5.36,2.38-34.57s55.45-68,59-68,51.87,7.75,75.71,43.51,7.16,77.5,7.16,77.5,14.3-7.75,20.27-21.46-3.58-65-3.58-65l5.36,14.91c5.19,14.39,5.36,58.28,5.37,61.24.11-.86,2.12-4.54,31.59,6.72,32.79,12.52,47.7,91.8,47.7,91.8s1.19-17.88,4.76-28.62,17.29-30.39,27.43-26.22c0,0,0-38.16,6-60.81s29.8-66.77-15.5-131.15-133.54-83.46-176.46-84.65S316,185.59,316,185.59s-65.58,7.16-82.27,41.73c-14.74,30.52-7.64,114,1.2,166a10.47,10.47,0,0,1,3-.85c8.35-8.94,15.5,53.06,15.5,53.06s14.31-41.73,17.29-50.08S286.2,378.74,290.37,372.18Z"/><path class="cls-9" d="M289,703.66s25.54,36.07,63.13,56.18S398.72,781,404,777.31s44.47-22.76,56.64-37.06,3-27.65,12.05-31.08,17.71-1.31,26.07,5.15,10.58,40.76-48.18,70.93-43.93,22.23-58.75,22.23S271.9,751,258.29,721.55,289,703.66,289,703.66Z"/><path class="cls-10" d="M464.12,695.67c-.58-6.1-.52-28.95-.35-48.32a137.06,137.06,0,0,1-80.4,24.09c-29.91-.89-60.15-21.17-80-44.82,1.68,23.46,3.31,50.76,2.45,57.94-.63,5.2-7.27,11.83-17.29,19l.45.11s25.54,36.07,63.13,56.18S398.72,781,404,777.31s44.47-22.76,56.64-37.06,3-27.65,12.05-31.08C468.61,705.63,464.62,700.91,464.12,695.67Z"/><path class="cls-9" d="M139,936c-.92-69.63-39.51-133.93-39.51-133.93S71,868.31,64.35,895.47,56.4,936,56.4,936Z"/><path class="cls-9" d="M700.93,936s-16.56-86.23-27.82-108.09-11.26-23.19-11.26-23.19C627.22,838.24,627.66,936,627.66,936Z"/><path class="cls-9" d="M343.39,573.92s31.25,18.75,66.87,16.24,40.63-7.49,40.63-7.49S426.51,627,387.14,617,343.39,573.92,343.39,573.92Z"/><path class="cls-10" d="M417.49,487.13a2.49,2.49,0,0,1,4.92-.8c0,.14,8.59,51.13,3.8,60-4.87,9-24.86,14.93-24.91,14.95a2.49,2.49,0,1,1-1.45-4.76s18.09-5.35,22-12.55C425.78,536.63,417.51,487.27,417.49,487.13Z"/><path class="cls-10" d="M390.71,549.9a2.5,2.5,0,0,1,1,4.91l-15.63,3.12a2.5,2.5,0,1,1-1-4.9Z"/><path class="cls-10" d="M371.83,626.73s7.5,4.07,22.19,4.07,19.06-2.5,19.06-2.5S388.71,650.8,371.83,626.73Z"/><path class="cls-10" d="M234,427s-1.79-13.71,3.27-7.75,9.25,26.82,9.25,31.89-7.16,5.07-1.2,12.52a95.36,95.36,0,0,0,8.95,10.14s-5.37,5.06-6.86,10.73-1.49,6-1.49,6S230.12,448.25,234,427Z"/><path class="cls-10" d="M568.77,440.74S550,458.92,550,464.59s8.94,6,2.68,13.71-11,11.32-11.92,17.88,6-2.38,8.34,3,2.39,6,2.39,6S586.65,433.29,568.77,440.74Z"/><path class="cls-6" d="M327.39,363.28a69.24,69.24,0,1,1-49,20.28,69,69,0,0,1,49-20.28Zm37.66,31.6a53.26,53.26,0,1,0,15.59,37.65A53.08,53.08,0,0,0,365.05,394.88Z"/><path class="cls-6" d="M479.9,363.28a69.24,69.24,0,1,1-49,20.28,69,69,0,0,1,49-20.28Zm37.65,31.6a53.26,53.26,0,1,0,15.59,37.65A53.08,53.08,0,0,0,517.55,394.88Z"/><path class="cls-6" d="M381.36,435.59c.05,0,15.82-19.37,41.44-1.12l-9.25,13c-13.43-9.56-19.8-1.77-19.81-1.74Z"/><path class="cls-6" d="M357.74,370.53c.18,0,62.78-7.61,89.21,6.44l-7.5,14.12c-22-11.68-79.73-4.71-79.9-4.69Z"/><path class="cls-11" d="M327.39,485.78a53.24,53.24,0,1,0-37.65-15.6A53.08,53.08,0,0,0,327.39,485.78Z"/><path class="cls-11" d="M479.9,485.78a53.24,53.24,0,1,0-37.66-15.6A53.08,53.08,0,0,0,479.9,485.78Z"/><path class="cls-6" d="M328.18,412.21c7.51,0,13.59,8.43,13.59,18.82s-6.08,18.82-13.59,18.82c-4.5,0-8.49-3-11-7.69h.65c5.44,0,9.85-2.12,9.85-4.73s-4.41-4.74-9.85-4.74a20.56,20.56,0,0,0-3.21.26c-.05-.63-.07-1.27-.07-1.93,0-10.39,6.08-18.82,13.59-18.82Zm7,5.8c-2,0-3.67,1.94-3.67,4.34s1.64,4.34,3.67,4.34,3.67-1.94,3.67-4.34S337.17,418,335.14,418Z"/><path class="cls-6" d="M479.9,412.21c7.5,0,13.59,8.43,13.59,18.82s-6.09,18.82-13.59,18.82c-4.51,0-8.49-3-11-7.69h.66c5.43,0,9.84-2.12,9.84-4.73s-4.41-4.74-9.84-4.74a20.59,20.59,0,0,0-3.22.26c0-.63-.07-1.27-.07-1.93,0-10.39,6.09-18.82,13.6-18.82Zm7,5.8c-2,0-3.67,1.94-3.67,4.34s1.65,4.34,3.67,4.34,3.68-1.94,3.68-4.34S488.88,418,486.85,418Z"/><rect class="cls-12" x="251.79" y="401.75" width="18.21" height="15.34"/><rect class="cls-12" x="543.46" y="411.26" width="15.34" height="18.21" transform="translate(118.32 961.77) rotate(-88.69)"/><path class="cls-6" d="M464.68,399.26a2.49,2.49,0,0,1-3.21-3.81s8.4-7.34,24.26-4.3c16.72,3.2,16.72,14,16.72,14a2.5,2.5,0,0,1-5,0s0-6.7-12.66-9.12C471.29,393.46,464.7,399.24,464.68,399.26Z"/><path class="cls-6" d="M311.55,399.26a2.49,2.49,0,0,1-3.2-3.81s8.39-7.34,24.26-4.3c16.71,3.2,16.71,14,16.71,14a2.5,2.5,0,0,1-5,0s0-6.7-12.65-9.12C318.16,393.46,311.57,399.24,311.55,399.26Z"/><circle class="cls-13" cx="345.74" cy="517.67" r="3.75"/><path class="cls-10" d="M329.18,537.36a3.75,3.75,0,1,0-3.75-3.75A3.76,3.76,0,0,0,329.18,537.36Z"/><path class="cls-10" d="M316.37,521.11a3.75,3.75,0,1,0-3.75-3.75A3.76,3.76,0,0,0,316.37,521.11Z"/><path class="cls-10" d="M489.18,520.17a3.75,3.75,0,1,0-3.75-3.75A3.76,3.76,0,0,0,489.18,520.17Z"/><path class="cls-10" d="M472.62,536.11a3.75,3.75,0,1,0-3.75-3.75A3.76,3.76,0,0,0,472.62,536.11Z"/><path class="cls-10" d="M459.81,519.86a3.75,3.75,0,1,0-3.75-3.75A3.76,3.76,0,0,0,459.81,519.86Z"/><path class="cls-14" d="M1034.21,718.92s-28.06,14.36-.66,42.41,72.43,38.5,121.37,25.45,82.87-44.37,88.09-53.5.66-14.36.66-14.36,60.35,33,93,44.05S1411,804.08,1411,804.08s28.06,65.25,34.59,92,7.83,39.92,7.83,39.92H818.55s16.31-84.94,27.4-106.48,11.1-22.83,11.1-22.83S1007.78,725.12,1034.21,718.92Z"/><path class="cls-15" d="M999.34,733.37c2.59,12.9,9.68,31.67,28.67,49.17,33.28,30.67,131.81,32,180.74,2.61,26.14-15.68,44.46-37.87,55.86-55.15-12.4-6.41-20.94-11.08-20.94-11.08s4.56,5.22-.66,14.36-39.15,40.45-88.09,53.5-94,2.61-121.37-25.45.66-42.41.66-42.41C1028.09,720.36,1015.34,725.82,999.34,733.37Z"/><path class="cls-16" d="M1243.66,718.92s-18.08-6.55-20.69-13.85c-1.35-3.78-1.58-34.28-1.49-62.81-13.1,18.91-26.65,35.38-35.5,41.19-21.29,14-42.59,34.6-81.85,25.29-20.64-4.9-42-24.51-59.57-46.35.32,20.19.6,38.47.6,41.12,0,6.26-9.54,15.4-12.53,16.36-5.52,3.6-22.43,17.56.92,41.46,27.41,28.06,72.43,38.5,121.37,25.45s82.87-44.37,88.09-53.5S1243.66,718.92,1243.66,718.92Z"/><path class="cls-17" d="M988.66,451.19s-9-17.63-18.3-14-15,6.65-11.64,22.29,7.32,15,7.32,32.28,3.32,25.95,8.65,37.26,2.66,12,10.31,17.64,11.65,4.66,11.65,4.66-.33,25.62,13,55.57,55.23,92.5,94.5,101.82,60.56-11.32,81.85-25.29,69.88-89.84,73.87-112.47,5.33-33.27,5.33-33.27,15.3,3.32,27.28-18.64,8.65-26,14-48.58,6.32-42.26-3.67-47.92-16-6.65-23.62,3.33-11,16.31-14.64,17.3-10.32-3-10.65-11-5.32-32.94-9.31-39.92-6.33-7.66-8-30.62-19.63-50.58-24.29-58.23-6.66-19.3-6.66-19.3-39.26-1-57.56.67-34.27,10.65-46.92,15-20.63-.66-36.27-6-24.29-8.32-34.94-2.33-21,12.31-28,14.31-13.31,1.66-14,19.63-1.67,44.59,0,61.23S988.66,451.19,988.66,451.19Z"/><path class="cls-18" d="M1292.12,378.32c1.34-18,7.33-84.52-2-112.14s-50.24-44.25-50.24-44.25-28.62-22.29-51.25-31.28S1125.09,177,1073.85,186c-2.4.42-4.77.95-7.11,1.56h0c-1.07.28-2.13.59-3.18.91-11.66,3.26-52.23,14.11-69.24,11.84-20-2.66-28.62-13.64-28.62-13.64s-1.66,12.64,6,19a35.66,35.66,0,0,0,17,7.32s-11.31,13.65-26.95,8.32-21-10-21-10,8,29.72,23,38.93c4.29,2.65,10.41,4.52,17.38,5.45a76.88,76.88,0,0,0-4.4,7.2c-6,11.64-19.64,38.26-21,58.56s8.65,47.92,12.31,66.22c2.47,12.33,4.63,35.39,5.78,49.13,8,.91,14.85,14.42,14.85,14.42s1-47.91-.66-64.55-.67-43.26,0-61.23,7-17.63,14-19.63,17.31-8.32,28-14.31,19.3-3,34.94,2.33,23.63,10.32,36.27,6,28.62-13.31,46.92-15,57.56-.67,57.56-.67,2,11.65,6.66,19.3,22.62,35.27,24.29,58.23,4,23.63,8,30.62,9,31.94,9.31,39.92,7,12,10.65,11,7-7.32,14.64-17.3c3.43-4.46,6.51-6.73,9.77-7.37C1289.94,407.24,1291.19,390.91,1292.12,378.32Z"/><path class="cls-19" d="M1286.8,435.88s-16.3,28.29-17,34.61,13.64,6,6.32,15.64-9.31,22-3.32,23.29S1316.09,425.57,1286.8,435.88Z"/><path class="cls-19" d="M976.19,456s9.15,11.31,11.31,23-4.66,14.3-2.33,22.12,8.49,11.48,6,21.63-11.31-3.82-13-12.14S968.53,447.53,976.19,456Z"/><path class="cls-9" d="M1083.09,621.5s32.83,6.82,54.47,3.86,29.43-6.14,29.43-6.14a67.83,67.83,0,0,1-45.58,18.46C1093.19,637.9,1083.09,621.5,1083.09,621.5Z"/><path class="cls-14" d="M1146.21,397.36H1245a11.29,11.29,0,0,1,11.26,11.25v83.75A11.29,11.29,0,0,1,1245,503.61h-98.75A11.29,11.29,0,0,1,1135,492.36V408.61a11.29,11.29,0,0,1,11.25-11.25Zm10.46,11.25a8.89,8.89,0,0,0-8.87,8.86v66a8.89,8.89,0,0,0,8.87,8.87h77.84a8.89,8.89,0,0,0,8.86-8.87v-66a8.88,8.88,0,0,0-8.86-8.86Z"/><path class="cls-14" d="M1001.84,397.36h98.75a11.28,11.28,0,0,1,11.25,11.25v83.75a11.28,11.28,0,0,1-11.25,11.25h-98.75a11.28,11.28,0,0,1-11.25-11.25V408.61a11.28,11.28,0,0,1,11.25-11.25Zm10.45,11.25a8.89,8.89,0,0,0-8.86,8.86v66a8.89,8.89,0,0,0,8.86,8.87h77.84a8.89,8.89,0,0,0,8.87-8.87v-66a8.89,8.89,0,0,0-8.87-8.86Z"/><rect class="cls-20" x="1104.65" y="433.14" width="35.31" height="21.56"/><rect class="cls-21" x="1003.43" y="408.61" width="95.57" height="83.75" rx="8.87"/><rect class="cls-21" x="1147.8" y="408.61" width="95.57" height="83.75" rx="8.87"/><path class="cls-18" d="M1195.59,431.66c7.5,0,13.59,8.43,13.59,18.82s-6.09,18.82-13.59,18.82c-4.5,0-8.49-3-11-7.69h.65c5.44,0,9.84-2.12,9.84-4.73s-4.4-4.74-9.84-4.74a19.23,19.23,0,0,0-3.21.26c0-.63-.08-1.28-.08-1.93,0-10.39,6.09-18.82,13.6-18.82Zm7,5.8c-2,0-3.67,1.94-3.67,4.34s1.64,4.34,3.67,4.34,3.67-1.94,3.67-4.34S1204.58,437.46,1202.55,437.46Z"/><path class="cls-18" d="M1052.23,431.66c7.51,0,13.59,8.43,13.59,18.82s-6.08,18.82-13.59,18.82c-4.5,0-8.49-3-11-7.69h.65c5.44,0,9.84-2.12,9.84-4.73s-4.4-4.74-9.84-4.74a19.44,19.44,0,0,0-3.22.26c0-.63-.06-1.28-.06-1.93,0-10.39,6.08-18.82,13.59-18.82Zm7,5.8c-2,0-3.67,1.94-3.67,4.34s1.64,4.34,3.67,4.34,3.67-1.94,3.67-4.34S1061.21,437.46,1059.19,437.46Z"/><path class="cls-18" d="M1176.2,434.65a4,4,0,1,1-4.65-6.47c.07,0,23.7-17.36,42.75-12.17a4,4,0,0,1-2.09,7.69C1196.88,419.52,1176.26,434.61,1176.2,434.65Z"/><path class="cls-18" d="M1077.94,428.18a4,4,0,1,1-4.65,6.47c-.06,0-20.68-15.13-36-10.95a4,4,0,1,1-2.09-7.69C1054.24,410.82,1077.88,428.14,1077.94,428.18Z"/><rect class="cls-20" x="980.13" y="405.79" width="15.94" height="17.5"/><rect class="cls-20" x="1249.33" y="405.79" width="15.93" height="17.5"/><path class="cls-22" d="M1097.32,569a4,4,0,1,1,7.81,1.69s-2.44,10.82,14.81,12a32,32,0,0,0,7.75-.31,17.16,17.16,0,0,0,10.72-5.83,14.83,14.83,0,0,0,3.34-8.21,9.94,9.94,0,0,0-.09-2.24,4,4,0,0,1,7.87-1.35,16.9,16.9,0,0,1,.18,4.15,22.93,22.93,0,0,1-5.11,12.71c-3.28,4-8.3,7.38-15.57,8.64a39.36,39.36,0,0,1-9.65.41C1092.88,588.83,1097.3,569.07,1097.32,569Z"/><path class="cls-22" d="M1107.47,647.36a32.82,32.82,0,0,0,15.94,4.07c9.38,0,18.44-6.25,18.44-6.25S1124.35,675.49,1107.47,647.36Z"/><path class="cls-23" d="M1737.25,417.38s-14.34-7.69-14.34,11.78,6.66,46.12,8.71,61.5-.51,16.4,8.71,31.77,17.94,13.84,17.94,13.84,9.22,48.16,23.06,71.73,68.66,75.85,95.82,84.56,52.82,3.63,65.64-1.5,69.13-50.77,84-88.69,17.94-55.86,19-62.52l1-6.66s23.05,1,30.74-18.45,13.32-43.55,14.35-65.59-8.71-46.38-16.14-38.94-9,13.06-10.25,20-4.1,8.45-4.1,14.86-1.28,21.27-4.1,26.9l-3.07,6.15s-4.87-11.78-6.41-36.38-3.07-68.67-9.22-105-16.66-56.88-31-61a276.38,276.38,0,0,0-29.21-6.41s3.58,4.62,12.55,11.53,15.38,7.43,15.38,7.43-13.59-.51-25.11-4.35a130.08,130.08,0,0,1-20.24-8.72s15.36,15.89,23.31,19.48,14.61,5.89,14.61,5.89-74.31-9.73-81-9.73-8.46,6.66-20.75,6.14-54.32-17.67-73.79-20-68.93-.26-68.93,59.19,6.15,88.65,3.08,103-6.41,43.55-6.41,43.55-8.45-20.24-8.45-31.26-.52-16.65-2.31-22.8S1737.25,417.38,1737.25,417.38Z"/><path class="cls-8" d="M2073.16,336.16c1-30.24-6.15-66.62-15.38-79.43S2004,197.29,1962,176.28s-113.76-4.1-126.06,4.1-16.4,11.78-32.28,19S1744.17,246,1736,280.81s1.28,136.57,1.28,136.57,1.29,5.12,3.08,11.27,2.31,11.79,2.31,22.8,8.45,31.26,8.45,31.26,3.33-29.2,6.41-43.55-3.08-43.56-3.08-103,49.45-61.49,68.93-59.19,61.49,19.47,73.79,20,14.09-6.14,20.75-6.14,81,9.73,81,9.73-6.67-2.3-14.61-5.89-23.31-19.48-23.31-19.48a130.08,130.08,0,0,0,20.24,8.72c11.52,3.84,25.11,4.35,25.11,4.35s-6.41-.51-15.38-7.43-12.55-11.53-12.55-11.53a276.38,276.38,0,0,1,29.21,6.41c14.34,4.1,24.85,24.6,31,61s7.68,80.45,9.22,105.05,6.41,36.38,6.41,36.38l3.07-6.15c2.82-5.63,4.1-20.5,4.1-26.9s2.82-7.94,4.1-14.86c.82-4.45,1.76-8.37,4.3-12.58C2069.68,396.41,2072.36,359.74,2073.16,336.16Z"/><path class="cls-24" d="M1729.82,430.44s8.46,25.63,9.23,31.52-2.31,6.92.51,14.09,10,10.76,8.46,16.66-11.53-6.67-12.82-9.23S1724,421.37,1729.82,430.44Z"/><path class="cls-25" d="M1993.37,722.67s27.57,14.11.64,41.68-71.18,37.83-119.27,25-81.44-43.6-86.57-52.58-.64-14.11-.64-14.11-59.32,32.38-91.38,43.28-73.1,40.4-73.1,40.4-27.58,64.13-34,90.42-7.69,39.23-7.69,39.23H2205.3s-16-83.48-26.93-104.64-10.9-22.44-10.9-22.44S2019.34,728.76,1993.37,722.67Z"/><path class="cls-24" d="M1787.53,722.67s17.77-6.43,20.33-13.61c1.42-4,1.58-38,1.44-67.51,22,22.23,50.55,45.46,67.85,51,27.16,8.71,50.73,1.53,63.54-3.59.62-.25,1.35-.59,2.18-1,13.82-6,27.67-17.12,40.48-30.34-.38,23.28-.75,46.89-.75,49.91,0,6.14,9.37,15.13,12.31,16.07,5.43,3.54,22,17.26-.9,40.75-26.93,27.58-71.18,37.83-119.27,25s-81.44-43.6-86.57-52.58S1787.53,722.67,1787.53,722.67Z"/><path class="cls-26" d="M1883.36,800s-53.81,7.17-77.38,27.16-31.77,30.23-31.77,30.23-14.35-66.62-14.35-91.21,0-38.44,10.25-46.12,10.24-10.07,17.42,2.65,71,72.16,123.24,66.27,75.33-21,83.79-34.84-3.11-32.8-3.11-32.8,5.16-5.12,18.74.26,38.69,50,34.58,77.63-11.27,38.94-11.27,38.94S1996.1,791.5,1883.36,800Z"/><path class="cls-24" d="M2063.93,462.73s3.33,7.68-.51,13.07a36.25,36.25,0,0,0-5.13,9.73l.51,6.41s4.87-5.64,9.49-5.64a44.41,44.41,0,0,1,6.14.26,24.6,24.6,0,0,0,5.13-17.17c-1-10,7.94-12.3,6.4-22.29s-3.07-24.85-7.68-21.27S2062.32,439.37,2063.93,462.73Z"/><path class="cls-27" d="M1985.28,809.87c-23.44-7.8-56.59-13.31-101.92-9.91,0,0-27.09,3.61-51.25,12.85,26.34,18.3,61.6,40.15,81.32,41.36S1963.27,830.87,1985.28,809.87Z"/><path class="cls-28" d="M1913.43,854.17c-19.72-1.21-55-23.06-81.32-41.36a114.81,114.81,0,0,0-17.85,8.46c19.76,14.46,60.48,42.52,85.91,47.91,34.56,7.33,49.57-5.93,55.5-10.12,3.8-2.68,27.58-26.63,44.23-43.55-4.38-2-9.24-3.86-14.62-5.64C1963.27,830.87,1933.14,855.38,1913.43,854.17Z"/><path class="cls-27" d="M1808.14,707.81a142.06,142.06,0,0,0-28,5.89c2.12.13,3.91,2.74,7.43,9,0,0,17.77-6.43,20.33-13.61A6.44,6.44,0,0,0,1808.14,707.81Z"/><path class="cls-27" d="M1807.08,348a82.5,82.5,0,1,1-58.33,24.16A82.23,82.23,0,0,1,1807.08,348Zm51.27,31.23a72.51,72.51,0,1,0,21.23,51.27A72.28,72.28,0,0,0,1858.35,379.23Z"/><path class="cls-29" d="M1734.58,430.5a72.17,72.17,0,0,0,12.08,40.08c-2-6.31-4-13.8-4-19.13,0-11-.52-16.65-2.31-22.8s-3.08-11.27-3.08-11.27a12.37,12.37,0,0,0-1.37-.6A72.94,72.94,0,0,0,1734.58,430.5Z"/><path class="cls-29" d="M1755.82,481.76a72.5,72.5,0,1,0,0-102.53l-.28.28c1.62,31.35,4.17,49.34,2,59.65-2.26,10.52-4.65,29-5.77,38.17C1753,478.86,1754.4,480.34,1755.82,481.76Z"/><path class="cls-30" d="M1740.33,428.65c1.79,6.15,2.31,11.79,2.31,22.8,0,5.33,2,12.82,4,19.13a74.3,74.3,0,0,0,5.07,6.75c1.12-9.12,3.51-27.65,5.77-38.17,2.21-10.31-.34-28.3-2-59.65a72.4,72.4,0,0,0-18.71,33c.26,3.11.42,4.86.42,4.86S1738.54,422.5,1740.33,428.65Z"/><path class="cls-27" d="M1997.15,348a82.5,82.5,0,1,1-58.33,24.16A82.25,82.25,0,0,1,1997.15,348Zm51.27,31.23a72.51,72.51,0,1,0,21.23,51.27A72.28,72.28,0,0,0,2048.42,379.23Z"/><path class="cls-29" d="M1945.89,481.76a72.49,72.49,0,0,0,102.53,0,69.44,69.44,0,0,0,5.07-5.63c-1.4-4.28-4.52-15.6-5.7-34.41-1-16.4-2-41.44-4.44-67.1a72.5,72.5,0,0,0-97.46,107.14Z"/><path class="cls-30" d="M2047.79,441.72c1.18,18.81,4.3,30.13,5.7,34.41a70.29,70.29,0,0,0,4.71-6.5c2.18-6.67,3.17-18.92,3.17-24.58,0-6.41,2.82-7.94,4.1-14.86a37.55,37.55,0,0,1,3.33-10.85,72.35,72.35,0,0,0-20.38-40.11q-2.43-2.42-5.07-4.61C2045.74,400.28,2046.77,425.32,2047.79,441.72Z"/><path class="cls-29" d="M2061.37,445.05c0,5.66-1,17.91-3.17,24.58a72.64,72.64,0,0,0,5.58-10.5c-.14-10.6,2.5-18.16,5.69-23.48.12-1.7.18-3.42.18-5.15a73.39,73.39,0,0,0-.85-11.16,37.55,37.55,0,0,0-3.33,10.85C2064.19,437.11,2061.37,438.64,2061.37,445.05Z"/><path class="cls-27" d="M1876.79,451.84a94.24,94.24,0,0,1,24.47-5.86c13.92-1.23,26.62,6.25,26.66,6.27l-5,8.67s-10.08-5.93-20.84-5a82.27,82.27,0,0,0-21.47,5.08Z"/><rect class="cls-31" x="1841.53" y="358.93" width="117.81" height="6.25"/><path class="cls-32" d="M1997.15,411.68c7.51,0,13.6,8.43,13.6,18.82s-6.09,18.82-13.6,18.82c-4.5,0-8.49-3-11-7.7l.65,0c5.44,0,9.85-2.12,9.85-4.74s-4.41-4.73-9.85-4.73a19.41,19.41,0,0,0-3.21.26c-.05-.64-.07-1.28-.07-1.93,0-10.39,6.09-18.82,13.59-18.82Zm7,5.79c-2,0-3.67,1.94-3.67,4.34s1.64,4.35,3.67,4.35,3.67-2,3.67-4.35S2006.14,417.47,2004.11,417.47Z"/><path class="cls-32" d="M1816.12,411.68c7.51,0,13.59,8.43,13.59,18.82s-6.08,18.82-13.59,18.82c-4.5,0-8.48-3-11-7.7l.66,0c5.43,0,9.84-2.12,9.84-4.74s-4.41-4.73-9.84-4.73a19.44,19.44,0,0,0-3.22.26c0-.64-.07-1.28-.07-1.93,0-10.39,6.09-18.82,13.59-18.82Zm7,5.79c-2,0-3.67,1.94-3.67,4.34s1.65,4.35,3.67,4.35,3.67-2,3.67-4.35S1825.11,417.47,1823.08,417.47Z"/><path class="cls-32" d="M1979.52,380.65a4,4,0,0,1-6-5.31,36.6,36.6,0,0,1,14.79-10.49,25.11,25.11,0,0,1,13.31-1.16,23.2,23.2,0,0,1,11.15,5.53,24.77,24.77,0,0,1,6.85,10.25,4,4,0,1,1-7.5,2.68,17,17,0,0,0-4.66-7,15.38,15.38,0,0,0-7.34-3.66,17.22,17.22,0,0,0-9.12.82A28.79,28.79,0,0,0,1979.52,380.65Z"/><path class="cls-32" d="M1797,384.93a4,4,0,0,1-6-5.31,36.6,36.6,0,0,1,14.8-10.49,25.1,25.1,0,0,1,13.31-1.16,23.32,23.32,0,0,1,11.15,5.52,25.09,25.09,0,0,1,6.85,10.25,4,4,0,1,1-7.5,2.69,16.92,16.92,0,0,0-4.66-7,15.34,15.34,0,0,0-7.34-3.66,17.21,17.21,0,0,0-9.12.82A28.79,28.79,0,0,0,1797,384.93Z"/><path class="cls-9" d="M1865.12,597.09s18.46,9.57,45.79,6.39,34.32-8.85,34.32-8.85-9.63,17.85-26.64,23.83S1870.32,619.21,1865.12,597.09Z"/><path class="cls-33" d="M1891.23,495.75a2.49,2.49,0,1,1,5,.12c0,.13-1.26,46.15-7.09,59.09-2.39,5.32-3.72,8.42-4.46,10.23h22.19a2.5,2.5,0,0,1,0,5h-28.13v-2.5s0-1.78,5.85-14.78C1890,540.86,1891.22,495.88,1891.23,495.75Z"/><path class="cls-33" d="M1885.12,627.38s9.69,5,19.84,4.06,15.78-5.16,15.78-5.16-6.4,13.29-16.72,13.6S1885.12,627.38,1885.12,627.38Z"/><path class="cls-10" d="M1831.84,531.28a3.75,3.75,0,1,0-3.75-3.75A3.76,3.76,0,0,0,1831.84,531.28Z"/><path class="cls-10" d="M1815.28,547.21a3.75,3.75,0,1,0-3.75-3.74A3.76,3.76,0,0,0,1815.28,547.21Z"/><path class="cls-10" d="M1802.47,531a3.75,3.75,0,1,0-3.75-3.75A3.76,3.76,0,0,0,1802.47,531Z"/><path class="cls-10" d="M2006.84,530a3.75,3.75,0,1,0-3.75-3.75A3.76,3.76,0,0,0,2006.84,530Z"/><path class="cls-10" d="M1990.28,546a3.76,3.76,0,1,0-3.75-3.76A3.77,3.77,0,0,0,1990.28,546Z"/><path class="cls-10" d="M1977.47,529.72a3.76,3.76,0,1,0-3.75-3.75A3.76,3.76,0,0,0,1977.47,529.72Z"/><path class="cls-34" d="M216.08,1376.89s-9.89-7.42-12.36,11.75-1.24,27.19,3.09,49.45,2.47,34,9.89,43.27,22.87,4.33,22.87,4.33,13,46.36,26,69.85,76.65,79.13,100.14,83.46,32.76-3.09,42.66-6.8,71.09-63.68,78.5-74.8,16.69-68,16.69-68,22.26,4.33,30.29-19.78,14.84-58.73,14.22-73.56-6.8-24.73-14.83-17.93-13,14.22-13,31.52-5.57,44.52-7.42,47.6-.62-63-9.89-82.21-27.82-17.31-29.06-29.06,5.57-42.65-7.42-55.63-40.18-19.17-63.67-6.8-25.34,23.49-47.6,13-42.65-22.87-71.71-14.84-26,9.89-23.49,39-9.89,22.87-17.93,35.85-10.5,34.62-10.5,50.69.61,36.17.61,36.17S212.37,1411.2,216.08,1376.89Z"/><path class="cls-35" d="M536.29,1376.28c-2.23-34.68-11.43-87.79-11.43-87.79s6.8,3.09,24.11,7.42,32.76-3.09,32.76-3.09-2.47-1.24-11.13-7.42-22.87-35.85-22.87-35.85l23.49,3.09s-9.27-1.86-21.63-17.31-38.33-64.91-60-92.73S426,1103,382.06,1102.42s-66.77,24.73-79.13,30.29-33.38,20.4-33.38,20.4,7.42-29,.62-19.78a249.75,249.75,0,0,1-36.47,40.8c-19.17,17.31-16.7,51.93-17.31,55s-8.66,9.27-9.89,44.51,9.58,103.23,9.58,103.23c-3.71,34.31,16.07,66.46,16.07,66.46s-.61-20.09-.61-36.17,2.47-37.71,10.5-50.69,20.41-6.8,17.93-35.85-5.56-30.91,23.49-39,49.46,4.33,71.71,14.84,24.11-.62,47.6-13,50.69-6.18,63.67,6.8,6.19,43.89,7.42,55.63,19.78,9.89,29.06,29.06,8,85.31,9.89,82.21,7.42-30.29,7.42-47.6,4.94-24.72,13-31.52A9.72,9.72,0,0,1,536.29,1376.28Z"/><path class="cls-36" d="M352,1730.21s-28-13-46.93-36-23-41.94-23-41.94-23,0-25,17,4,87.88,4,87.88,16-31,30-32S352,1730.21,352,1730.21Z"/><path class="cls-36" d="M398.86,1730.21s28-13,46.94-36,23-41.94,23-41.94,23,0,25,17-4,87.88-4,87.88-16-31-30-32S398.86,1730.21,398.86,1730.21Z"/><path class="cls-37" d="M364.74,1872c-.52-32.6-1.89-115.91-2.29-124.32-.5-10.48-10.48-17.47-10.48-17.47s-46.93-6-60.91-5-30,32-30,32-5.11-60.43-4.32-83.07c-19.65,10.19-50.33,25.45-70.24,32.22-31.23,10.62-71.22,39.36-71.22,39.36s-26.87,62.48-33.11,88.1-7.5,38.22-7.5,38.22Z"/><path class="cls-37" d="M682.62,1872s-15.62-81.33-26.24-102-10.62-21.87-10.62-21.87-105.45-57.06-151.88-77.34c1.51,19.33-4.15,86.33-4.15,86.33s-16-31-30-32-60.92,5-60.92,5-7.45,4.49-7.95,36.94c-.37,24.09-.47,78.43-.49,104.85Z"/><path class="cls-9" d="M390.42,1872c0-26.42.12-80.76.49-104.85a145.54,145.54,0,0,1,1.36-18.82,145.55,145.55,0,0,1-29.75,1.1c.46,14.66,1.72,91.56,2.22,122.57Z"/><path class="cls-38" d="M398.86,1730.21s28-13,46.94-36,23-41.94,23-41.94-14.7-3.24-19.94-9c-3.89-4.26-3.93-29.66-3.69-42.5-16.32,15.59-32.17,29.62-36.79,31.36-9.9,3.71-19.17,11.13-42.66,6.8-14.1-2.6-42.69-23.69-66.1-45.22h-.38s.83,40.07-3.16,47.56-14,11-14,11,4,19,23,41.94,46.93,36,46.93,36,10,7,10.48,17.47c0,.41,0,1,.07,1.75a145.55,145.55,0,0,0,29.75-1.1C394.55,1732.81,398.86,1730.21,398.86,1730.21Z"/><path class="cls-39" d="M390.91,1767.15a145.54,145.54,0,0,1,1.36-18.82,145.55,145.55,0,0,1-29.75,1.1c.12,3.83.3,11.93.5,22.35,7.34.24,16.54.22,27.83-.37Q390.88,1769.15,390.91,1767.15Z"/><path class="cls-40" d="M364.74,1872c-.37-22.9-1.15-70.82-1.72-100.22-.2-10.42-.38-18.52-.5-22.35,0-.75,0-1.34-.07-1.75-.5-10.48-10.48-17.47-10.48-17.47s-21.68-2.77-40-4.23a119.87,119.87,0,0,1,8,41.68V1872Z"/><path class="cls-37" d="M381.53,1422.84s-4.38-3.75,13.75-16.88,105.23-26.79,111.05-20-.43,36.84-13.55,53.71-51.88,26.88-75.63,22.5-35-28.75-35-28.75l-.62-10.62Zm14.57.2.48,8.18s8.66,18.75,26.94,22.12,48.1-4.33,58.2-17.31,14.92-36.08,10.44-41.34-71.53,5.26-85.48,15.36S396.1,1423,396.1,1423Z"/><path class="cls-37" d="M359.42,1422.84s4.37-3.75-13.75-16.88-105.24-26.79-111.06-20,.43,36.84,13.56,53.71,51.87,26.88,75.62,22.5,35-28.75,35-28.75l.63-10.62Zm-14.58.2-.48,8.18s-8.66,18.75-26.93,22.12S269.32,1449,259.22,1436s-14.91-36.08-10.43-41.34,71.52,5.26,85.47,15.36S344.84,1423,344.84,1423Z"/><path class="cls-37" d="M358.79,1433.46s20.71-.78,25.09-.78,1.09-10.94,1.09-10.94l-3.44,1.1-21.77-.6-6.51,1.53Z"/><path class="cls-41" d="M317.43,1453.34c18.27-3.37,26.93-22.12,26.93-22.12l.48-8.18s3.37-2.89-10.58-13-81-20.62-85.47-15.36.33,28.35,10.43,41.34S299.15,1456.71,317.43,1453.34Z"/><path class="cls-41" d="M423.52,1453.34c18.28,3.37,48.1-4.33,58.2-17.31s14.92-36.08,10.44-41.34-71.53,5.26-85.48,15.36-10.58,13-10.58,13l.48,8.18S405.24,1450,423.52,1453.34Z"/><path class="cls-42" d="M359.84,1577.67a2.5,2.5,0,1,1,0-5c.05,0,19.49,0,46.51-11.67a2.5,2.5,0,0,1,2,4.59C380.35,1577.67,359.9,1577.67,359.84,1577.67Z"/><path class="cls-42" d="M355.81,1451.06a2.5,2.5,0,0,1,4.94.72c0,.16-8.06,55.47-6.3,62.81,1.41,5.88,16.54,5.59,16.58,5.59a2.49,2.49,0,0,1,.12,5s-19.2.34-21.54-9.41C347.62,1507.46,355.78,1451.22,355.81,1451.06Z"/><path class="cls-42" d="M382.36,1522.32a2.5,2.5,0,0,1-2.54-4.3s10.66-6.23,15.45-1.88a2.5,2.5,0,1,1-3.36,3.69C389.83,1517.93,382.38,1522.31,382.36,1522.32Z"/><path class="cls-6" d="M446.33,1397.81c3.44,3.41,5.67,9,5.67,15.29,0,10.4-6.08,18.82-13.59,18.82-4.5,0-8.49-3-11-7.69h.65c5.44,0,9.85-2.12,9.85-4.74s-4.41-4.73-9.85-4.73a20.56,20.56,0,0,0-3.21.26c-.05-.63-.07-1.27-.07-1.93a23.93,23.93,0,0,1,2.58-11c5.86-1.56,12.37-3,18.93-4.26Zm-1,2.27c-2,0-3.67,1.94-3.67,4.34s1.64,4.34,3.67,4.34,3.67-2,3.67-4.34S447.4,1400.08,445.37,1400.08Z"/><path class="cls-6" d="M315.26,1402.54a23.93,23.93,0,0,1,2.56,11c0,10.4-6.09,18.82-13.59,18.82-4.5,0-8.49-3-11-7.69h.65c5.44,0,9.84-2.12,9.84-4.74s-4.4-4.73-9.84-4.73a20.69,20.69,0,0,0-3.22.26c0-.63-.06-1.27-.06-1.93,0-6.36,2.28-12,5.77-15.38,4.46.87,8.87,1.84,13,2.86a4.52,4.52,0,0,0-1.94,3.84c0,2.4,1.64,4.34,3.67,4.34s3.67-1.94,3.67-4.34a4.92,4.92,0,0,0-.75-2.64Z"/><path class="cls-43" d="M413.15,1390.05a2.49,2.49,0,1,1-4.71-1.64,17.3,17.3,0,0,1,5-7.09c5-4.44,12.66-7.47,20.4-8.91s15.62-1.31,20.93.56a12.76,12.76,0,0,1,5.4,3.36,2.49,2.49,0,1,1-3.71,3.31,8,8,0,0,0-3.33-2c-4.51-1.59-11.45-1.66-18.39-.37s-13.74,3.92-18,7.72A12.38,12.38,0,0,0,413.15,1390.05Z"/><path class="cls-43" d="M333,1388.41a2.49,2.49,0,1,1-4.71,1.64,12.38,12.38,0,0,0-3.59-5c-4.24-3.8-11.05-6.43-18-7.72s-13.87-1.22-18.39.37a8,8,0,0,0-3.33,2,2.49,2.49,0,1,1-3.71-3.31,12.76,12.76,0,0,1,5.4-3.36c5.31-1.87,13.2-2,20.93-.56s15.44,4.47,20.4,8.91A17.3,17.3,0,0,1,333,1388.41Z"/><path class="cls-44" d="M1039.85,1674.88c-19.09,10-51.86,26.47-72.69,33.56-30.84,10.48-70.32,38.86-70.32,38.86s-26.52,61.67-32.69,87-7.4,37.74-7.4,37.74h600.16s-15.42-80.29-25.91-100.65-10.49-21.59-10.49-21.59-106.09-57.41-151.23-76.91c1.93-20.89.42-90.17-3.75-98.6-2-4.08-14.42-7.55-33.47-10.08-8.58,8.78-16.65,15.87-22.74,19.45-21.41,12.6-55.42,21.42-87.53,6.93-11.72-5.28-26.11-16-40.09-28.3-35.72,3.69-37.47,10.56-43,15.93C1033,1583.7,1037.74,1649.14,1039.85,1674.88Z"/><path class="cls-45" d="M989.54,1343.06s-15.74-13.85-15.74,13.23,10.07,60.45,13.22,71.79,24.56,31.48,24.56,31.48,8.19,28.35,17,44.72,61.08,71.79,93.2,86.27,66.12,5.67,87.53-6.93,67.38-68.64,73.68-88.79,10.7-40.93,10.7-40.93a44.64,44.64,0,0,0,17.64-27.08c3.78-18.26,3.78-33.38,8.19-51s.94-36.53-2.52-35-4.73,1.57-6,12.59-3.15,25.51-3.15,25.51-2.21-54.79-2.21-61.72,8.81-68.64.63-86.27-33.38-32.75-42.19-39.68-10.71-9.44-10.71-9.44-32.75,4.4-56.68,3.15-38.41,5.66-69.9,5.66-77.46,4.41-94.46,15.12-18.26,15.11-15.11,40.93,1.26,18.89-8.82,35.27-11.33,72.73-8.81,92.25,3.14,38.73,3.14,38.73Z"/><path class="cls-46" d="M1315,1341.79c.73-17.58,4.64-38.71,8-61.07,4.09-27.71-5.36-67.38-16.69-91.94S1261,1156,1261,1156a106.08,106.08,0,0,0,4.41-37.16c-1.26-20.78-30.23-44.08-98.25-54.79s-120.9,10.08-143.58,27.08-35.89,61.09-35.89,61.09-6.93,27.08-12.6,61.09,14.49,129.72,14.49,129.72l13.22,69.9s-.63-19.2-3.14-38.73-1.26-75.88,8.81-92.25,12-9.45,8.82-35.27-1.89-30.23,15.11-40.93,63-15.12,94.46-15.12,46-6.92,69.9-5.66,56.68-3.15,56.68-3.15,1.89,2.52,10.71,9.44,34,22,42.19,39.68-.63,79.35-.63,86.27,2.21,61.72,2.21,61.72,1.88-14.48,3.15-25.51C1312,1344.83,1313,1343,1315,1341.79Z"/><path class="cls-47" d="M1242.2,1580.28a.55.55,0,0,1,.13.43c-.49,3.45-39.43,26.61-92.17,24.64-46.64-1.74-88.65-20.83-84.11-25.56h0a3.44,3.44,0,0,1,1.77-.79,8.83,8.83,0,0,0,4-5.18c.58-1.94.4-10.69,0-20.61,16.88,15.89,35.52,30.8,50,37.35,32.11,14.49,66.12,5.67,87.53-6.93,7.87-4.62,19-15.11,30.35-27.53h0C1238.18,1566.05,1241.49,1577.92,1242.2,1580.28Z"/><path class="cls-48" d="M1066.06,1579.78Zm0,0Zm84.11,25.56c-46.64-1.74-88.65-20.83-84.1-25.57a3.44,3.44,0,0,1,1.77-.79,8.83,8.83,0,0,0,4-5.18c.36-1.22.43-5.15.32-10.38-26.51,3.85-28.42,9.91-33.43,14.75-5.71,5.52-.93,71,1.18,96.7,0,0,77,67.93,229.43-2,1.93-20.89.42-90.17-3.75-98.6-1.75-3.53-11.25-6.6-26.11-9a75.46,75.46,0,0,0,2.78,15,.59.59,0,0,1,.13.43C1241.84,1584.16,1202.9,1607.32,1150.16,1605.35Z"/><path class="cls-44" d="M1076.81,1288.56a66.87,66.87,0,1,1-66.88,66.87,66.87,66.87,0,0,1,66.88-66.87Zm0,21.24a45.63,45.63,0,1,0,45.62,45.63A45.63,45.63,0,0,0,1076.81,1309.8Z"/><circle class="cls-49" cx="1076.81" cy="1355.43" r="45.63" transform="translate(-167.45 151.88) rotate(-7.49)"/><path class="cls-44" d="M1231.18,1288.56a66.87,66.87,0,1,1-66.87,66.87,66.87,66.87,0,0,1,66.87-66.87Zm0,21.24a45.63,45.63,0,1,0,45.63,45.63A45.62,45.62,0,0,0,1231.18,1309.8Z"/><path class="cls-50" d="M1231.18,1401.06a45.63,45.63,0,1,0-45.62-45.63A45.63,45.63,0,0,0,1231.18,1401.06Z"/><path class="cls-44" d="M1128,1368.93c.06,0,23.83-19.35,48.35-.37l-6.09,7.89c-18.28-14.15-36,.21-36,.25Z"/><path class="cls-44" d="M1114.73,1304.87c.16,0,53.41-3.5,74,3.38l-3.13,9.45c-18.74-6.24-70.18-2.88-70.33-2.87Z"/><rect class="cls-51" x="993.47" y="1325.47" width="29.38" height="14.68"/><rect class="cls-51" x="1281.38" y="1325.47" width="29.37" height="14.68"/><path class="cls-42" d="M1110.65,1522.42a2,2,0,1,1-.63-3.93c18.84-3,34.8-4.86,49.59-4.69a129.71,129.71,0,0,1,42.63,7.27,2,2,0,0,1-1.31,3.77,126,126,0,0,0-41.36-7.06C1145.05,1517.62,1129.29,1519.42,1110.65,1522.42Z"/><path class="cls-42" d="M1170.3,1427.22a2,2,0,1,1,3.86-1c0,.08,7.67,28.75,2.42,41.87-5.37,13.43-20.69,17.42-20.73,17.44a2,2,0,1,1-1-3.87s13.38-3.49,18-15.06C1177.63,1454.72,1170.32,1427.3,1170.3,1427.22Z"/><path class="cls-42" d="M1143.3,1477a2,2,0,1,1-4,0s0,.48-1.94,1.7l-2.11-3.39C1143.3,1470.3,1143.3,1477,1143.3,1477Zm0,0h0Zm-6,1.7-2.11-3.39a2,2,0,0,0,2.11,3.39Z"/><path class="cls-18" d="M1231.65,1330.21c7.5,0,13.59,8.42,13.59,18.82s-6.09,18.81-13.59,18.81c-4.5,0-8.49-3-11-7.69h.65c5.44,0,9.84-2.11,9.84-4.73s-4.4-4.73-9.84-4.73a19.44,19.44,0,0,0-3.22.26c0-.64-.07-1.28-.07-1.93,0-10.4,6.09-18.82,13.6-18.82Zm7,5.79c-2,0-3.68,2-3.68,4.34s1.65,4.34,3.68,4.34,3.67-1.94,3.67-4.34S1240.64,1336,1238.61,1336Z"/><path class="cls-18" d="M1078,1330.21c7.51,0,13.59,8.42,13.59,18.82s-6.08,18.81-13.59,18.81c-4.5,0-8.49-3-11-7.69h.65c5.44,0,9.85-2.11,9.85-4.73s-4.41-4.73-9.85-4.73a19.41,19.41,0,0,0-3.21.26c0-.64-.07-1.28-.07-1.93,0-10.4,6.08-18.82,13.59-18.82Zm7,5.79c-2,0-3.67,2-3.67,4.34s1.64,4.34,3.67,4.34,3.67-1.94,3.67-4.34S1087,1336,1085,1336Z"/><path class="cls-42" d="M1216.8,1326.23a2,2,0,1,1-2.86-2.78c.06,0,17.6-18.27,36.84-.71a2,2,0,1,1-2.69,3C1231.72,1310.75,1216.85,1326.19,1216.8,1326.23Z"/><path class="cls-42" d="M1063.21,1326.23a2,2,0,0,1-2.86-2.78c.05,0,17.59-18.27,36.84-.71a2,2,0,0,1-2.69,3C1078.12,1310.75,1063.25,1326.19,1063.21,1326.23Z"/><path class="cls-52" d="M1769.37,1292.53s-4.34,36.69-18.6,39.46-50,8.51-50,8.51,5,28.09,16.64,54.11,26,40.65,33,38.06a24.08,24.08,0,0,0,10.46-7.26c5,60.38,57.37,143.36,111.61,160,27.9,8.54,58.33,2.81,72-6.2s60.6-66.59,66.72-84.09,13.13-46.22,13.13-46.22,18.8-.78,24.08-27.4,8.24-46.73,10.67-51.8a37.64,37.64,0,0,0,3.08-8.51,119.36,119.36,0,0,1-9.27-16.56l-3.68-8.36s-3.92,25.52-8.92,39.53l-5,14s6.43-87.21,2.75-116.39-4.52-38.29-5.36-47.4-1.47-15.83-1.47-15.83-28.22-1.74-51.8-10.68-23.23-15.75-38.71-10.44-18.56,13.82-18.56,13.82-26.76-12-42.73-17.33-26.15-10.64-53-2.83-48.14,7.86-45.52,36.16S1789.12,1265.53,1769.37,1292.53Z"/><path class="cls-53" d="M1756.34,1551.16l4.55-125.75a24.08,24.08,0,0,1-10.46,7.26c-7,2.59-21.44-12-33-38.06s-16.64-54.11-16.64-54.11,28.66-4.59,44.9-7.55c.73,9.92,2.2,28.72,3.47,38.64,1.77,13.87,14.53,34,14.28,31.33s-2.79-32.64-2.82-51.27c0-9.47.4-21,.82-30v0c5.92-11.73,8-29.09,8-29.09,19.75-27,14.18-45.35,11.55-73.66s18.66-28.34,45.52-36.16,37-2.46,53,2.83,42.73,17.33,42.73,17.33,3.09-8.52,18.56-13.82,15.14,1.5,38.71,10.44,51.8,10.68,51.8,10.68l1.47,15.83c.84,9.11,1.69,18.23,5.36,47.4s-2.75,116.39-2.75,116.39l5-14c5-14,8.92-39.53,8.92-39.53l3.68,8.36a119.36,119.36,0,0,0,9.27,16.56,37.64,37.64,0,0,1-3.08,8.51c-2.43,5.07-5.4,25.18-10.67,51.8s-24.08,27.4-24.08,27.4-7,28.71-13.13,46.22c-1.37,3.91-4.77,9.82-9.39,16.75,11.35,2.28,28.24,1.89,40.78-14.83,20.67-27.56,9-48.74,16.25-59.57s6.26,15.39,10.17,5.35,16.44-52.34,22-60.11,29.29,7.93,26.67,5.75-14.26-18-6.06-44.44c8.63-27.79-48.73-79.14-17.68-101.91,9.06-6.65,23-54.39,8.28-98.51s-71.9-55.27-71.9-55.27-19-17.58-48.66-34.19-145.64-15.53-220.86,18.55-68.28,88.11-70,121.18-6.41,50.92-18.23,74.76-21.11,75-19.67,95.69,14.93,30.56,14.93,30.56l7.87-14.28a292.79,292.79,0,0,1,3.77,35.45c.78,18.8,3.88,47.06,11.4,55.07s9.85-3.33,9.85-3.33,4.38,31.53,15.45,51.8S1756.34,1551.16,1756.34,1551.16Z"/><path class="cls-54" d="M1757.53,1518.19s-24.09,40.47-35.65,55.89-23.13,21.2-23.13,21.2l-22.16,94.44s40.47-27.47,61.67-36.63,50.11,6.75,50.11,6.75S1758.5,1555.29,1757.53,1518.19Z"/><path class="cls-55" d="M1788.37,1659.84s40.47,26.5,45.3,56.37,29.86,92.51,45.28,115.64c9.37,14.06,26.57,29.89,38.63,40.15h14.48c3.2-31.39,13.26-121.53,25.91-150,15.42-34.7,30.83-83.84,29.87-101.19l-1-17.34s-33.73,77.09-86.24,72.75-122.52-54.29-122.52-54.29Z"/><path class="cls-54" d="M2092.39,1630.45a320.08,320.08,0,0,1-24.57-22.17c-9.48-9.48-56.61-52.51-81.45-75.13-7.06,9.11-14.7,18.34-21.67,26.19a62.34,62.34,0,0,0-.47,10.4c1,9.63,22.65,33.73,22.65,33.73l1,17.34c1,17.35-14.45,66.49-29.87,101.19a131.31,131.31,0,0,0-6.49,20.39c20.63-33.59,53.11-56.18,55.63-62.32,3.37-8.19,29.39-22.65,39-27.94s18.79-16.87,19.27-26.5S2092.39,1630.45,2092.39,1630.45Z"/><path class="cls-56" d="M2103,1656.94c-1.69-11.8-10.6-26.49-10.6-26.49s-26.49-14.46-27-4.82a21.1,21.1,0,0,1-1.28,6c14.19,10.65,40.31,40.25,40.31,40.25S2104.68,1668.75,2103,1656.94Z"/><path class="cls-39" d="M1879,1831.85c-15.42-23.13-40.47-85.77-45.28-115.64s-45.3-56.37-45.3-56.37-28.91-15.9-50.11-6.75-61.67,36.63-61.67,36.63l19.25-82c-23.95,14.73-60.78,37-74.91,43.24-10.16,4.52-22.35,11-32.42,16.72-11.4,6.41-20.09,11.71-20.09,11.71s-25.48,27.05-53.75,89.8V1872h402.91c-12.06-10.26-29.26-26.09-38.63-40.15ZM2223.36,1872H2272V1750.6c-21.8-63.69-48.64-84.74-48.64-84.74-8.22-6-86.41-29.68-144-46.62,7.62,6.9,13,11.21,13,11.21s8.91,14.69,10.6,26.49,1.45,14.94,1.45,14.94-26.12-29.6-40.31-40.25c-2.92,8-10.3,16.26-18,20.5-9.64,5.29-35.66,19.75-39,27.94-2.52,6.14-35,28.73-55.63,62.32-9.53,38.32-16.79,103.8-19.42,129.61Z"/><path class="cls-57" d="M1922.06,1706.33c18.54-2.32,36.13-12,51.24-23.62,8.8-25.61,15.18-50.55,14.54-61.9l-1-17.34s-33.72,77.09-86.24,72.75-122.52-54.29-122.52-54.29l10.25,37.91.16.11.07,0C1793.3,1663.1,1869.78,1712.86,1922.06,1706.33Z"/><path class="cls-58" d="M1944.51,1579.19c-13.68,9-44.11,14.74-72,6.2-54.24-16.62-106.56-99.6-111.61-160l-3.36,92.78c.59,22.54,11.85,70,20.59,103.74,0,0,70,50,122.52,54.29s86.24-72.75,86.24-72.75-21.69-24.1-22.65-33.73a62.34,62.34,0,0,1,.47-10.4C1956.24,1568.88,1948.77,1576.39,1944.51,1579.19Z"/><path class="cls-42" d="M2012,1290.57c17.43,0,33.16,8.13,44.47,21.27,11.06,12.84,17.9,30.47,17.9,49.86s-6.84,37-17.9,49.85c-11.31,13.14-27,21.27-44.47,21.27s-33.17-8.13-44.48-21.27c-11.06-12.83-17.9-30.46-17.9-49.85s6.84-37,17.9-49.86c11.31-13.14,27-21.27,44.48-21.27Zm32.41,31.71c-8.35-9.7-19.82-15.71-32.41-15.71s-24.07,6-32.42,15.71c-8.62,10-14,23.94-14,39.42s5.34,29.4,14,39.42c8.35,9.7,19.82,15.7,32.42,15.7s24.06-6,32.41-15.7c8.63-10,14-23.94,14-39.42S2053,1332.29,2044.36,1322.28Z"/><path class="cls-42" d="M1864.72,1277.15c19.78,0,37.62,9.23,50.47,24.15,12.59,14.62,20.38,34.71,20.38,56.81s-7.79,42.19-20.38,56.81c-12.85,14.92-30.69,24.15-50.47,24.15s-37.62-9.23-50.47-24.15c-12.59-14.62-20.37-34.71-20.37-56.81s7.78-42.19,20.37-56.81c12.85-14.92,30.7-24.15,50.47-24.15Zm38.41,34.59c-9.89-11.49-23.48-18.59-38.41-18.59s-28.51,7.1-38.41,18.59c-10.15,11.79-16.44,28.18-16.44,46.37s6.29,34.58,16.44,46.37c9.9,11.49,23.48,18.59,38.41,18.59s28.52-7.1,38.41-18.59c10.15-11.79,16.44-28.18,16.44-46.37S1913.28,1323.53,1903.13,1311.74Z"/><path class="cls-59" d="M1826.31,1404.48c9.9,11.49,23.48,18.59,38.41,18.59s28.52-7.1,38.41-18.59c10.15-11.79,16.44-28.18,16.44-46.37s-6.29-34.58-16.44-46.37c-9.89-11.49-23.48-18.59-38.41-18.59s-28.51,7.1-38.41,18.59c-10.15,11.79-16.44,28.18-16.44,46.37S1816.16,1392.69,1826.31,1404.48Z"/><path class="cls-60" d="M2039,1316.93c-.83,34.38-3.67,72.86-3.67,72.86l5-14c5-14,8.92-39.53,8.92-39.53l3.68,8.36a100.05,100.05,0,0,0,5,9.68,59,59,0,0,0-13.54-32A49.22,49.22,0,0,0,2039,1316.93Z"/><path class="cls-59" d="M1965.57,1361.7c0,15.48,5.34,29.4,14,39.42,8.35,9.7,19.82,15.7,32.42,15.7s24.06-6,32.41-15.7c8.63-10,14-23.94,14-39.42a64.43,64.43,0,0,0-.42-7.41,100.05,100.05,0,0,1-5-9.68l-3.68-8.36s-3.92,25.52-8.92,39.53l-5,14s2.84-38.48,3.67-72.86a41.51,41.51,0,0,0-27-10.36c-12.6,0-24.07,6-32.42,15.71C1970.91,1332.29,1965.57,1346.22,1965.57,1361.7Z"/><path class="cls-42" d="M1920.74,1376.9c.06,0,22.16-15,45,.69l-5.66,8.2c-17.18-11.81-33.73-.6-33.77-.57Z"/><path class="cls-42" d="M1901.56,1292.65c.15,0,51.43-4.48,82.24,7.85l-3.71,9.25c-28.55-11.42-77.61-7.16-77.75-7.15Z"/><path class="cls-42" d="M1820.08,1306.68h-21.57l-69.37,13.13,7.19,3.12s-9.07,1.57-7.51,4.07,7.51,3.43,7.51,3.43,61.66-8.74,63.12-8.12,9.37.31,9.37.31Z"/><path class="cls-61" d="M1954.18,1423.64a2.49,2.49,0,0,1,4.92-.8c0,.1,5.66,35.26,5,49.88-.72,16.37-26.33,21.08-26.41,21.1a2.5,2.5,0,0,1-.92-4.91c.07,0,21.81-4,22.35-16.4C1959.76,1458.38,1954.19,1423.74,1954.18,1423.64Z"/><path class="cls-32" d="M1874.29,1334.17c8.71,0,15.77,9.77,15.77,21.83s-7.06,21.83-15.77,21.83c-5.22,0-9.85-3.51-12.72-8.92h.76c6.31,0,11.42-2.46,11.42-5.49s-5.11-5.49-11.42-5.49a23.39,23.39,0,0,0-3.73.3c-.06-.74-.08-1.48-.08-2.24,0-12.06,7.06-21.83,15.77-21.83Zm8.07,6.72c-2.35,0-4.26,2.25-4.26,5s1.91,5,4.26,5,4.26-2.25,4.26-5S1884.72,1340.89,1882.36,1340.89Z"/><path class="cls-32" d="M2020.18,1343.06c7.18,0,13,8.07,13,18s-5.83,18-13,18c-4.31,0-8.13-2.89-10.49-7.36h.62c5.2,0,9.42-2,9.42-4.53s-4.22-4.53-9.42-4.53a19,19,0,0,0-3.08.25c0-.6-.06-1.22-.06-1.85,0-9.94,5.82-18,13-18Zm6.66,5.55c-1.94,0-3.52,1.86-3.52,4.16s1.58,4.15,3.52,4.15,3.51-1.86,3.51-4.15S2028.78,1348.61,2026.84,1348.61Z"/><path class="cls-61" d="M1950.78,1513.07a2.49,2.49,0,0,1,1.69,4.69c-.07,0-26.43,9.67-52.24,1.28a2.5,2.5,0,1,1,1.54-4.75C1926,1522.15,1950.7,1513.1,1950.78,1513.07Z"/><path class="cls-61" d="M1899.17,1316.7a4,4,0,0,1-5.72,5.56s-15.94-16.5-28.42-13.58c-11.68,2.74-11.92,13.07-11.92,13.1a4,4,0,0,1-8-.22,22.51,22.51,0,0,1,18.08-20.66C1880.11,1297,1899.12,1316.64,1899.17,1316.7Z"/><path class="cls-61" d="M2006.11,1328.76a4,4,0,0,1-5.85-5.44c.06-.06,19.18-20.64,36.91-3.94a4,4,0,0,1-5.47,5.82C2019.82,1314,2006.14,1328.72,2006.11,1328.76Z"/><path class="cls-62" d="M2032.72,1226c.84,9.11,1.69,18.23,5.36,47.4a218.81,218.81,0,0,1,1.14,24.31,60.94,60.94,0,0,1,9.33,6.39c15.23-38.81,29.95-114.94,29.95-114.94s-1.88,7.5-13.75,16.88-33.5,4.13-33.5,4.13Z"/></svg>