<svg id="Layer_1" data-name="Layer 1" xmlns="http://www.w3.org/2000/svg" viewBox="0 0 757.33 936"><defs><style>.cls-1{fill:#70c2a4;}.cls-2,.cls-9{fill:#fff485;}.cls-11,.cls-2,.cls-3,.cls-4,.cls-5,.cls-6,.cls-7,.cls-8{fill-rule:evenodd;}.cls-3{fill:#c8bb44;}.cls-4{fill:#9d6a4a;}.cls-5{fill:#bd8b6e;}.cls-6{fill:#2e211b;}.cls-7{fill:#97684b;}.cls-8{fill:#fff;}.cls-10{fill:#e0b194;}.cls-11{fill:#a47253;}</style></defs><rect class="cls-1" width="757.33" height="936"/><path class="cls-2" d="M276.71,718.92s-28.06,14.36-.66,42.41,72.43,38.5,121.37,25.45,82.87-44.37,88.09-53.5.66-14.36.66-14.36,60.35,33,93,44.05,74.38,41.11,74.38,41.11,28.06,65.25,34.59,92S696,936,696,936H61.05s16.31-84.94,27.4-106.48,11.1-22.83,11.1-22.83S250.28,725.12,276.71,718.92Z" transform="translate(0.17 0)"/><path class="cls-3" d="M241.84,733.37c2.59,12.9,9.68,31.67,28.67,49.17,33.28,30.67,131.81,32,180.74,2.61,26.14-15.68,44.46-37.87,55.86-55.15-12.4-6.41-20.94-11.08-20.94-11.08s4.56,5.22-.66,14.36-39.15,40.45-88.09,53.5-94,2.61-121.37-25.45.66-42.41.66-42.41C270.59,720.36,257.84,725.82,241.84,733.37Z" transform="translate(0.17 0)"/><path class="cls-4" d="M486.16,718.92s-18.08-6.55-20.69-13.85c-1.35-3.78-1.58-34.28-1.49-62.81-13.1,18.91-26.65,35.38-35.5,41.19-21.29,14-42.59,34.6-81.85,25.29-20.64-4.9-42-24.51-59.57-46.35.32,20.19.6,38.47.6,41.12,0,6.26-9.54,15.4-12.53,16.36-5.52,3.6-22.43,17.56.92,41.46,27.41,28.06,72.43,38.5,121.37,25.45s82.87-44.37,88.09-53.5S486.16,718.92,486.16,718.92Z" transform="translate(0.17 0)"/><path class="cls-5" d="M231.16,451.19s-9-17.63-18.3-14-15,6.65-11.64,22.29,7.32,15,7.32,32.28,3.32,25.95,8.65,37.26,2.66,12,10.31,17.64,11.65,4.66,11.65,4.66-.33,25.62,13,55.57,55.23,92.5,94.5,101.82,60.56-11.32,81.85-25.29S498.36,593.61,502.35,571s5.33-33.27,5.33-33.27S523,541,535,519.07s8.65-26,14-48.58,6.32-42.26-3.67-47.92-16-6.65-23.62,3.33-11,16.31-14.64,17.3-10.32-3-10.65-11-5.32-32.94-9.31-39.92-6.33-7.66-8-30.62-19.63-50.58-24.29-58.23-6.66-19.3-6.66-19.3-39.26-1-57.56.67-34.27,10.65-46.92,15-20.63-.66-36.27-6-24.29-8.32-34.94-2.33-21,12.31-28,14.31-13.31,1.66-14,19.63-1.67,44.59,0,61.23S231.16,451.19,231.16,451.19Z" transform="translate(0.17 0)"/><path class="cls-6" d="M534.63,378.32c1.33-18,7.32-84.52-2-112.14s-50.24-44.25-50.24-44.25-28.62-22.29-51.25-31.28S367.59,177,316.35,186c-2.4.42-4.77.95-7.11,1.56h0c-1.07.28-2.13.59-3.18.91-11.66,3.26-52.23,14.11-69.24,11.84-20-2.66-28.62-13.64-28.62-13.64s-1.66,12.64,6,19a35.66,35.66,0,0,0,17,7.32s-11.31,13.64-26.95,8.32-21-10-21-10,8,29.72,23,38.93c4.29,2.65,10.41,4.52,17.38,5.45a76.88,76.88,0,0,0-4.4,7.2c-6,11.64-19.64,38.26-21,58.56s8.65,47.92,12.31,66.22C213,400,215.16,423,216.31,436.77c8,.91,14.85,14.42,14.85,14.42s1-47.91-.66-64.55-.67-43.26,0-61.23,7-17.63,14-19.63,17.31-8.32,28-14.31,19.3-3,34.94,2.33,23.63,10.32,36.27,6,28.62-13.31,46.92-15,57.56-.67,57.56-.67,2,11.65,6.66,19.3,22.62,35.27,24.29,58.23,4,23.63,8,30.62,9,31.94,9.31,39.92,7,12,10.65,11,7-7.32,14.64-17.3c3.43-4.46,6.51-6.73,9.77-7.37C532.44,407.24,533.69,390.91,534.63,378.32Z" transform="translate(0.17 0)"/><path class="cls-7" d="M529.3,435.88s-16.3,28.29-17,34.61,13.63,6,6.31,15.64-9.31,22-3.32,23.29S558.59,425.57,529.3,435.88Z" transform="translate(0.17 0)"/><path class="cls-7" d="M218.69,456s9.15,11.31,11.31,23-4.66,14.3-2.33,22.12,8.49,11.48,6,21.63-11.31-3.82-13-12.14S211,447.53,218.69,456Z" transform="translate(0.17 0)"/><path class="cls-8" d="M325.59,621.5s32.83,6.82,54.47,3.86,29.43-6.14,29.43-6.14a67.83,67.83,0,0,1-45.58,18.46C335.69,637.9,325.59,621.5,325.59,621.5Z" transform="translate(0.17 0)"/><path class="cls-2" d="M388.71,397.36h98.75a11.29,11.29,0,0,1,11.26,11.25v83.75a11.29,11.29,0,0,1-11.26,11.25H388.71a11.29,11.29,0,0,1-11.25-11.25V408.61a11.29,11.29,0,0,1,11.25-11.25Zm10.46,11.25a8.89,8.89,0,0,0-8.87,8.86v66a8.89,8.89,0,0,0,8.87,8.87H477a8.89,8.89,0,0,0,8.86-8.87v-66a8.88,8.88,0,0,0-8.86-8.86Z" transform="translate(0.17 0)"/><path class="cls-2" d="M244.34,397.36h98.75a11.28,11.28,0,0,1,11.25,11.25v83.75a11.28,11.28,0,0,1-11.25,11.25H244.34a11.28,11.28,0,0,1-11.25-11.25V408.61a11.28,11.28,0,0,1,11.25-11.25Zm10.45,11.25a8.89,8.89,0,0,0-8.86,8.86v66a8.89,8.89,0,0,0,8.86,8.87h77.84a8.89,8.89,0,0,0,8.87-8.87v-66a8.89,8.89,0,0,0-8.87-8.86Z" transform="translate(0.17 0)"/><rect class="cls-9" x="347.32" y="433.14" width="35.31" height="21.56"/><rect class="cls-10" x="246.1" y="408.61" width="95.57" height="83.75" rx="8.87"/><rect class="cls-10" x="390.47" y="408.61" width="95.57" height="83.75" rx="8.87"/><path class="cls-6" d="M438.09,431.66c7.5,0,13.59,8.43,13.59,18.82s-6.09,18.82-13.59,18.82c-4.5,0-8.49-3-11-7.69h.65c5.44,0,9.84-2.12,9.84-4.73s-4.4-4.74-9.84-4.74a19.23,19.23,0,0,0-3.21.26c-.05-.63-.08-1.28-.08-1.93,0-10.39,6.09-18.82,13.6-18.82Zm7,5.8c-2,0-3.67,1.94-3.67,4.34s1.64,4.34,3.67,4.34,3.67-1.94,3.67-4.34S447.08,437.46,445.05,437.46Z" transform="translate(0.17 0)"/><path class="cls-6" d="M294.73,431.66c7.51,0,13.59,8.43,13.59,18.82s-6.08,18.82-13.59,18.82c-4.5,0-8.49-3-11-7.69h.65c5.44,0,9.84-2.12,9.84-4.73s-4.4-4.74-9.84-4.74a19.44,19.44,0,0,0-3.22.26c0-.63-.06-1.28-.06-1.93,0-10.39,6.08-18.82,13.59-18.82Zm7,5.8c-2,0-3.67,1.94-3.67,4.34s1.64,4.34,3.67,4.34,3.67-1.94,3.67-4.34S303.71,437.46,301.69,437.46Z" transform="translate(0.17 0)"/><path class="cls-6" d="M418.7,434.65a4,4,0,1,1-4.65-6.47c.07,0,23.7-17.36,42.75-12.17a4,4,0,0,1-2.09,7.69C439.38,419.52,418.76,434.61,418.7,434.65Z" transform="translate(0.17 0)"/><path class="cls-6" d="M320.44,428.18a4,4,0,1,1-4.65,6.47c-.06,0-20.68-15.13-36-10.95A4,4,0,1,1,277.7,416C296.74,410.82,320.38,428.14,320.44,428.18Z" transform="translate(0.17 0)"/><rect class="cls-9" x="222.79" y="405.79" width="15.94" height="17.5"/><rect class="cls-9" x="492" y="405.79" width="15.93" height="17.5"/><path class="cls-11" d="M339.82,569a4,4,0,0,1,7.81,1.69s-2.44,10.82,14.81,12a32,32,0,0,0,7.75-.31,17.16,17.16,0,0,0,10.72-5.83,14.83,14.83,0,0,0,3.34-8.21,9.94,9.94,0,0,0-.09-2.24,4,4,0,1,1,7.87-1.35,16.9,16.9,0,0,1,.18,4.15,22.93,22.93,0,0,1-5.11,12.71c-3.28,4-8.3,7.38-15.57,8.64a39.36,39.36,0,0,1-9.65.41C335.38,588.83,339.8,569.07,339.82,569Z" transform="translate(0.17 0)"/><path class="cls-11" d="M350,647.36a32.82,32.82,0,0,0,15.94,4.07c9.38,0,18.44-6.25,18.44-6.25S366.85,675.49,350,647.36Z" transform="translate(0.17 0)"/></svg>