<svg id="Layer_1" data-name="Layer 1" xmlns="http://www.w3.org/2000/svg" viewBox="0 0 757.33 936"><defs><style>.cls-1{fill:#8f6d2a;}.cls-2{fill:#fdc999;}.cls-10,.cls-12,.cls-13,.cls-14,.cls-15,.cls-2,.cls-3,.cls-4,.cls-5,.cls-6,.cls-7,.cls-8,.cls-9{fill-rule:evenodd;}.cls-3{fill:#eb8143;}.cls-4{fill:#e3aa79;}.cls-5{fill:#d6ac49;}.cls-6{fill:#e36f2e;}.cls-11,.cls-7{fill:#ab4925;}.cls-8{fill:#fbd270;}.cls-9{fill:#fcd5b4;}.cls-10{fill:#c2845b;}.cls-12{fill:#9a6139;}.cls-13{fill:#fff;}.cls-14{fill:#e19f66;}.cls-15{fill:#d79e66;}</style></defs><rect class="cls-1" width="757.33" height="936"/><path class="cls-2" d="M222.25,417.38s-14.34-7.69-14.34,11.78,6.66,46.12,8.71,61.5-.51,16.4,8.71,31.77,17.94,13.84,17.94,13.84,9.22,48.16,23.06,71.73,68.66,75.85,95.82,84.56,52.82,3.63,65.64-1.5,69.13-50.77,84-88.69,17.94-55.86,19-62.52l1-6.66s23.05,1,30.74-18.45,13.32-43.55,14.35-65.59-8.71-46.38-16.14-38.94-9,13.06-10.25,20-4.1,8.45-4.1,14.86-1.28,21.27-4.1,26.9l-3.07,6.15s-4.87-11.78-6.41-36.38-3.07-68.67-9.22-105-16.66-56.88-31-61a276.38,276.38,0,0,0-29.21-6.41s3.58,4.62,12.55,11.53,15.38,7.43,15.38,7.43-13.59-.51-25.11-4.35a130.08,130.08,0,0,1-20.24-8.72s15.36,15.89,23.31,19.48,14.61,5.89,14.61,5.89-74.31-9.73-81-9.73-8.46,6.66-20.75,6.14-54.32-17.67-73.79-20-68.93-.26-68.93,59.19,6.15,88.65,3.08,103-6.41,43.55-6.41,43.55-8.45-20.24-8.45-31.26-.52-16.65-2.31-22.8S222.25,417.38,222.25,417.38Z" transform="translate(0.33)"/><path class="cls-3" d="M558.16,336.16c1-30.24-6.15-66.62-15.38-79.43S489,197.29,447,176.28s-113.76-4.1-126.06,4.1-16.4,11.78-32.28,19S229.17,246,221,280.81s1.28,136.57,1.28,136.57,1.29,5.12,3.08,11.27,2.31,11.79,2.31,22.8,8.45,31.26,8.45,31.26,3.33-29.2,6.41-43.55-3.08-43.56-3.08-103,49.45-61.49,68.93-59.19,61.49,19.47,73.79,20,14.09-6.14,20.75-6.14,81,9.73,81,9.73-6.67-2.3-14.61-5.89-23.31-19.48-23.31-19.48a130.08,130.08,0,0,0,20.24,8.72c11.52,3.84,25.11,4.35,25.11,4.35s-6.41-.51-15.38-7.43-12.55-11.53-12.55-11.53a276.38,276.38,0,0,1,29.21,6.41c14.34,4.1,24.85,24.6,31,61s7.68,80.45,9.22,105.05,6.41,36.38,6.41,36.38l3.07-6.15c2.82-5.63,4.1-20.5,4.1-26.9s2.82-7.94,4.1-14.86c.82-4.45,1.76-8.37,4.3-12.58C554.68,396.41,557.36,359.74,558.16,336.16Z" transform="translate(0.33)"/><path class="cls-4" d="M214.82,430.44s8.46,25.63,9.23,31.52-2.31,6.92.51,14.09,10,10.76,8.46,16.66-11.53-6.67-12.82-9.23S209,421.37,214.82,430.44Z" transform="translate(0.33)"/><path class="cls-5" d="M478.37,722.67s27.57,14.11.64,41.68-71.18,37.83-119.27,25-81.44-43.6-86.57-52.58-.64-14.11-.64-14.11S213.21,755.05,181.15,766s-73.1,40.4-73.1,40.4-27.58,64.13-34,90.42S66.37,936,66.37,936H690.3s-16-83.48-26.93-104.64-10.9-22.44-10.9-22.44S504.34,728.76,478.37,722.67Z" transform="translate(0.33)"/><path class="cls-4" d="M272.53,722.67s17.77-6.43,20.33-13.61c1.42-4,1.58-38,1.44-67.51,22,22.23,50.55,45.46,67.85,51,27.16,8.71,50.73,1.53,63.54-3.59.62-.25,1.35-.59,2.18-1,13.82-6,27.67-17.12,40.48-30.34-.38,23.28-.75,46.89-.75,49.91,0,6.14,9.37,15.13,12.31,16.07,5.43,3.54,22,17.26-.9,40.75-26.93,27.58-71.18,37.83-119.27,25s-81.44-43.6-86.57-52.58S272.53,722.67,272.53,722.67Z" transform="translate(0.33)"/><path class="cls-6" d="M368.36,800s-53.81,7.17-77.38,27.16-31.77,30.23-31.77,30.23-14.35-66.62-14.35-91.21,0-38.44,10.25-46.12,10.24-10.07,17.42,2.65,71,72.16,123.24,66.27,75.33-21,83.79-34.84-3.11-32.8-3.11-32.8,5.16-5.12,18.74.26,38.69,50,34.58,77.63-11.27,38.94-11.27,38.94S481.1,791.5,368.36,800Z" transform="translate(0.33)"/><path class="cls-4" d="M548.93,462.73s3.33,7.68-.51,13.07a36.25,36.25,0,0,0-5.13,9.73l.51,6.41s4.87-5.64,9.49-5.64a44.41,44.41,0,0,1,6.14.26,24.6,24.6,0,0,0,5.13-17.17c-1-10,7.94-12.3,6.4-22.29s-3.07-24.85-7.68-21.27S547.32,439.37,548.93,462.73Z" transform="translate(0.33)"/><path class="cls-7" d="M470.28,809.87c-23.44-7.8-56.59-13.31-101.92-9.91,0,0-27.09,3.61-51.25,12.85,26.34,18.3,61.6,40.15,81.32,41.36S448.27,830.87,470.28,809.87Z" transform="translate(0.33)"/><path class="cls-8" d="M398.43,854.17c-19.72-1.21-55-23.06-81.32-41.36a114.81,114.81,0,0,0-17.85,8.46c19.76,14.46,60.48,42.52,85.91,47.91,34.56,7.33,49.57-5.93,55.5-10.12,3.8-2.68,27.58-26.63,44.23-43.55-4.38-2-9.24-3.86-14.62-5.64C448.27,830.87,418.14,855.38,398.43,854.17Z" transform="translate(0.33)"/><path class="cls-7" d="M293.14,707.81a142.06,142.06,0,0,0-28,5.89c2.12.13,3.91,2.74,7.43,9,0,0,17.77-6.43,20.33-13.61A6.44,6.44,0,0,0,293.14,707.81Z" transform="translate(0.33)"/><path class="cls-7" d="M292.08,348a82.5,82.5,0,1,1-58.33,24.16A82.23,82.23,0,0,1,292.08,348Zm51.27,31.23a72.51,72.51,0,1,0,21.23,51.27A72.28,72.28,0,0,0,343.35,379.23Z" transform="translate(0.33)"/><path class="cls-9" d="M219.58,430.5a72.17,72.17,0,0,0,12.08,40.08c-2-6.31-4-13.8-4-19.13,0-11-.52-16.65-2.31-22.8s-3.08-11.27-3.08-11.27a12.37,12.37,0,0,0-1.37-.6A72.94,72.94,0,0,0,219.58,430.5Z" transform="translate(0.33)"/><path class="cls-9" d="M240.82,481.76a72.5,72.5,0,1,0,0-102.53l-.28.28c1.62,31.35,4.17,49.34,2,59.65-2.26,10.52-4.65,29-5.77,38.17C238,478.86,239.4,480.34,240.82,481.76Z" transform="translate(0.33)"/><path class="cls-10" d="M225.33,428.65c1.79,6.15,2.31,11.79,2.31,22.8,0,5.33,2,12.82,4,19.13a74.3,74.3,0,0,0,5.07,6.75c1.12-9.12,3.51-27.65,5.77-38.17,2.21-10.31-.34-28.3-2-59.65a72.4,72.4,0,0,0-18.71,33c.26,3.11.42,4.86.42,4.86S223.54,422.5,225.33,428.65Z" transform="translate(0.33)"/><path class="cls-7" d="M482.15,348a82.5,82.5,0,1,1-58.33,24.16A82.25,82.25,0,0,1,482.15,348Zm51.27,31.23a72.51,72.51,0,1,0,21.23,51.27A72.28,72.28,0,0,0,533.42,379.23Z" transform="translate(0.33)"/><path class="cls-9" d="M430.89,481.76a72.49,72.49,0,0,0,102.53,0,69.44,69.44,0,0,0,5.07-5.63c-1.4-4.28-4.52-15.6-5.7-34.41-1-16.4-2-41.44-4.44-67.1a72.5,72.5,0,0,0-97.46,107.14Z" transform="translate(0.33)"/><path class="cls-10" d="M532.79,441.72c1.18,18.81,4.3,30.13,5.7,34.41a70.29,70.29,0,0,0,4.71-6.5c2.18-6.67,3.17-18.92,3.17-24.58,0-6.41,2.82-7.94,4.1-14.86a37.55,37.55,0,0,1,3.33-10.85,72.35,72.35,0,0,0-20.38-40.11q-2.43-2.42-5.07-4.61C530.74,400.28,531.77,425.32,532.79,441.72Z" transform="translate(0.33)"/><path class="cls-9" d="M546.37,445.05c0,5.66-1,17.91-3.17,24.58a72.64,72.64,0,0,0,5.58-10.5c-.14-10.6,2.5-18.16,5.69-23.48.12-1.7.18-3.42.18-5.15a73.39,73.39,0,0,0-.85-11.16,37.55,37.55,0,0,0-3.33,10.85C549.19,437.11,546.37,438.64,546.37,445.05Z" transform="translate(0.33)"/><path class="cls-7" d="M361.79,451.84A94.24,94.24,0,0,1,386.26,446c13.92-1.23,26.62,6.25,26.66,6.27l-5,8.67s-10.08-5.93-20.84-5A82.27,82.27,0,0,0,365.65,461Z" transform="translate(0.33)"/><rect class="cls-11" x="326.86" y="358.93" width="117.81" height="6.25"/><path class="cls-12" d="M482.15,411.68c7.51,0,13.6,8.43,13.6,18.82s-6.09,18.82-13.6,18.82c-4.5,0-8.49-3-11-7.7l.65,0c5.44,0,9.85-2.12,9.85-4.74s-4.41-4.73-9.85-4.73a19.41,19.41,0,0,0-3.21.26c-.05-.64-.07-1.28-.07-1.93,0-10.39,6.09-18.82,13.59-18.82Zm7,5.79c-2,0-3.67,1.94-3.67,4.34s1.64,4.35,3.67,4.35,3.67-2,3.67-4.35S491.14,417.47,489.11,417.47Z" transform="translate(0.33)"/><path class="cls-12" d="M301.12,411.68c7.51,0,13.59,8.43,13.59,18.82s-6.08,18.82-13.59,18.82c-4.5,0-8.48-3-11-7.7l.66,0c5.43,0,9.84-2.12,9.84-4.74s-4.41-4.73-9.84-4.73a19.44,19.44,0,0,0-3.22.26c-.05-.64-.07-1.28-.07-1.93,0-10.39,6.09-18.82,13.59-18.82Zm7,5.79c-2,0-3.67,1.94-3.67,4.34s1.65,4.35,3.67,4.35,3.67-2,3.67-4.35S310.11,417.47,308.08,417.47Z" transform="translate(0.33)"/><path class="cls-12" d="M464.52,380.65a4,4,0,0,1-6-5.31,36.6,36.6,0,0,1,14.79-10.49,25.11,25.11,0,0,1,13.31-1.16,23.2,23.2,0,0,1,11.15,5.53,24.77,24.77,0,0,1,6.85,10.25,4,4,0,1,1-7.5,2.68,17,17,0,0,0-4.66-7,15.38,15.38,0,0,0-7.34-3.66,17.22,17.22,0,0,0-9.12.82A28.79,28.79,0,0,0,464.52,380.65Z" transform="translate(0.33)"/><path class="cls-12" d="M282,384.93a4,4,0,0,1-6-5.31,36.6,36.6,0,0,1,14.8-10.49A25.1,25.1,0,0,1,304.16,368a23.32,23.32,0,0,1,11.15,5.52,25.09,25.09,0,0,1,6.85,10.25,4,4,0,1,1-7.5,2.69,16.92,16.92,0,0,0-4.66-7,15.34,15.34,0,0,0-7.34-3.66,17.21,17.21,0,0,0-9.12.82A28.79,28.79,0,0,0,282,384.93Z" transform="translate(0.33)"/><path class="cls-13" d="M350.12,597.09s18.46,9.58,45.79,6.39,34.32-8.85,34.32-8.85-9.63,17.85-26.64,23.83S355.32,619.21,350.12,597.09Z" transform="translate(0.33)"/><path class="cls-14" d="M376.23,495.75a2.49,2.49,0,1,1,5,.12c0,.13-1.26,46.15-7.09,59.09-2.39,5.32-3.72,8.42-4.46,10.23h22.19a2.5,2.5,0,0,1,0,5H363.71v-2.5s0-1.78,5.85-14.78C375,540.86,376.22,495.88,376.23,495.75Z" transform="translate(0.33)"/><path class="cls-14" d="M370.12,627.38s9.69,5,19.84,4.06,15.78-5.16,15.78-5.16-6.4,13.29-16.72,13.6S370.12,627.38,370.12,627.38Z" transform="translate(0.33)"/><path class="cls-15" d="M316.84,531.28a3.75,3.75,0,1,0-3.75-3.75A3.76,3.76,0,0,0,316.84,531.28Z" transform="translate(0.33)"/><path class="cls-15" d="M300.28,547.21a3.75,3.75,0,1,0-3.75-3.74A3.76,3.76,0,0,0,300.28,547.21Z" transform="translate(0.33)"/><path class="cls-15" d="M287.47,531a3.75,3.75,0,1,0-3.75-3.75A3.76,3.76,0,0,0,287.47,531Z" transform="translate(0.33)"/><path class="cls-15" d="M491.84,530a3.75,3.75,0,1,0-3.75-3.75A3.76,3.76,0,0,0,491.84,530Z" transform="translate(0.33)"/><path class="cls-15" d="M475.28,546a3.76,3.76,0,1,0-3.75-3.76A3.77,3.77,0,0,0,475.28,546Z" transform="translate(0.33)"/><path class="cls-15" d="M462.47,529.72a3.76,3.76,0,1,0-3.75-3.75A3.76,3.76,0,0,0,462.47,529.72Z" transform="translate(0.33)"/></svg>