<svg id="Layer_1" data-name="Layer 1" xmlns="http://www.w3.org/2000/svg" viewBox="0 0 757.33 936"><defs><style>.cls-1{fill:#3ab4c4;}.cls-2{fill:#ba6428;}.cls-10,.cls-11,.cls-12,.cls-13,.cls-2,.cls-3,.cls-4,.cls-5,.cls-6,.cls-7,.cls-8,.cls-9{fill-rule:evenodd;}.cls-3{fill:#0f080b;}.cls-4{fill:#ffe8b2;}.cls-5{fill:#ffcd5d;}.cls-6{fill:#fff;}.cls-7{fill:#914921;}.cls-8{fill:#dc5451;}.cls-9{fill:#e3b446;}.cls-10{fill:#de8d56;}.cls-11{fill:#010101;}.cls-12{fill:#873f43;}.cls-13{fill:#4c240e;}</style></defs><rect class="cls-1" width="757.33" height="936"/><path class="cls-2" d="M216.08,440.89s-9.89-7.42-12.36,11.75-1.24,27.19,3.09,49.45,2.47,34,9.89,43.27,22.87,4.33,22.87,4.33,13,46.36,26,69.85S342.19,698.67,365.68,703s32.76-3.09,42.66-6.8,71.09-63.68,78.5-74.8,16.69-68,16.69-68,22.26,4.33,30.29-19.78,14.84-58.73,14.22-73.56-6.8-24.73-14.83-17.93-13,14.22-13,31.52-5.57,44.52-7.42,47.6-.62-63.05-9.89-82.21S475.1,421.73,473.86,410s5.57-42.65-7.42-55.63-40.18-19.17-63.67-6.8-25.34,23.49-47.6,13-42.65-22.87-71.71-14.84-26,9.89-23.49,38.95-9.89,22.87-17.93,35.85-10.5,34.62-10.5,50.69.61,36.17.61,36.17S212.37,475.2,216.08,440.89Z" transform="translate(0 0)"/><path class="cls-3" d="M536.29,440.28c-2.23-34.68-11.43-87.79-11.43-87.79s6.8,3.09,24.11,7.42,32.76-3.09,32.76-3.09-2.47-1.24-11.13-7.42-22.87-35.85-22.87-35.85l23.49,3.09s-9.27-1.86-21.63-17.31-38.33-64.91-60-92.73S426,167,382.06,166.42s-66.77,24.73-79.13,30.29-33.38,20.4-33.38,20.4,7.42-29.05.62-19.78a249.75,249.75,0,0,1-36.47,40.8c-19.17,17.31-16.7,51.93-17.31,55s-8.66,9.27-9.89,44.51,9.58,103.23,9.58,103.23c-3.71,34.31,16.07,66.46,16.07,66.46s-.61-20.09-.61-36.17S234,433.47,242,420.49s20.41-6.8,17.93-35.85-5.56-30.91,23.49-38.95,49.46,4.33,71.71,14.84,24.11-.62,47.6-13,50.69-6.18,63.67,6.8,6.19,43.89,7.42,55.63,19.78,9.89,29.06,29.06,8,85.31,9.89,82.21,7.42-30.29,7.42-47.6,4.94-24.72,13-31.52A9.72,9.72,0,0,1,536.29,440.28Z" transform="translate(0 0)"/><path class="cls-4" d="M352,794.21s-28-13-46.93-36-23-41.94-23-41.94-23,0-25,17,4,87.88,4,87.88,16-31,30-32S352,794.21,352,794.21Z" transform="translate(0 0)"/><path class="cls-4" d="M398.86,794.21s28-13,46.94-36,23-41.94,23-41.94,23,0,25,17-4,87.88-4,87.88-16-31-30-32S398.86,794.21,398.86,794.21Z" transform="translate(0 0)"/><path class="cls-5" d="M364.74,936c-.52-32.6-1.89-115.91-2.29-124.32C362,801.2,352,794.21,352,794.21s-46.93-6-60.91-5-30,32-30,32-5.11-60.43-4.32-83.07c-19.65,10.19-50.33,25.45-70.24,32.22-31.23,10.62-71.22,39.36-71.22,39.36s-26.87,62.48-33.11,88.1S74.71,936,74.71,936Z" transform="translate(0 0)"/><path class="cls-5" d="M682.62,936s-15.62-81.33-26.24-102-10.62-21.87-10.62-21.87-105.45-57.06-151.88-77.34c1.51,19.33-4.15,86.33-4.15,86.33s-16-31-30-32-60.92,5-60.92,5-7.45,4.49-7.95,36.94c-.37,24.09-.47,78.43-.49,104.85Z" transform="translate(0 0)"/><path class="cls-6" d="M390.42,936c0-26.42.12-80.76.49-104.85a145.54,145.54,0,0,1,1.36-18.82,145.55,145.55,0,0,1-29.75,1.1C363,828.09,364.24,905,364.74,936Z" transform="translate(0 0)"/><path class="cls-7" d="M398.86,794.21s28-13,46.94-36,23-41.94,23-41.94-14.7-3.24-19.94-9c-3.89-4.26-3.93-29.66-3.69-42.5-16.32,15.59-32.17,29.62-36.79,31.36-9.9,3.71-19.17,11.13-42.66,6.8-14.1-2.6-42.69-23.69-66.1-45.22h-.38s.83,40.07-3.16,47.56-14,11-14,11,4,19,23,41.94,46.93,36,46.93,36,10,7,10.48,17.47c0,.41,0,1,.07,1.75a145.55,145.55,0,0,0,29.75-1.1C394.55,796.81,398.86,794.21,398.86,794.21Z" transform="translate(0 0)"/><path class="cls-8" d="M390.91,831.15a145.54,145.54,0,0,1,1.36-18.82,145.55,145.55,0,0,1-29.75,1.1c.12,3.83.3,11.93.5,22.35,7.34.24,16.54.22,27.83-.37Q390.88,833.15,390.91,831.15Z" transform="translate(0 0)"/><path class="cls-9" d="M364.74,936c-.37-22.9-1.15-70.82-1.72-100.22-.2-10.42-.38-18.52-.5-22.35,0-.75,0-1.34-.07-1.75C362,801.2,352,794.21,352,794.21s-21.68-2.77-40-4.23a119.87,119.87,0,0,1,8,41.68V936Z" transform="translate(0 0)"/><path class="cls-5" d="M381.53,486.84s-4.38-3.75,13.75-16.88,105.23-26.79,111.05-20-.43,36.84-13.55,53.71-51.88,26.88-75.63,22.5-35-28.75-35-28.75l-.62-10.62Zm14.57.2.48,8.18s8.66,18.75,26.94,22.12S471.63,513,481.72,500s14.92-36.08,10.44-41.34-71.53,5.26-85.48,15.36S396.1,487,396.1,487Z" transform="translate(0 0)"/><path class="cls-5" d="M359.42,486.84s4.37-3.75-13.75-16.88-105.24-26.79-111.06-20,.43,36.84,13.56,53.71,51.87,26.88,75.62,22.5,35-28.75,35-28.75l.63-10.62Zm-14.58.2-.48,8.18S335.7,514,317.43,517.34,269.32,513,259.22,500,244.31,464,248.79,458.69s71.52,5.26,85.47,15.36S344.84,487,344.84,487Z" transform="translate(0 0)"/><path class="cls-5" d="M358.79,497.46s20.71-.78,25.09-.78S385,485.74,385,485.74l-3.44,1.1-21.77-.6-6.51,1.53Z" transform="translate(0 0)"/><path class="cls-10" d="M317.43,517.34c18.27-3.37,26.93-22.12,26.93-22.12l.48-8.18s3.37-2.89-10.58-13-81-20.62-85.47-15.36S249.12,487,259.22,500,299.15,520.71,317.43,517.34Z" transform="translate(0 0)"/><path class="cls-10" d="M423.52,517.34c18.28,3.37,48.11-4.33,58.2-17.31s14.92-36.08,10.44-41.34-71.53,5.26-85.48,15.36-10.58,13-10.58,13l.48,8.18S405.24,514,423.52,517.34Z" transform="translate(0 0)"/><path class="cls-11" d="M359.84,641.67a2.5,2.5,0,0,1,0-5c.05,0,19.49,0,46.51-11.67a2.5,2.5,0,0,1,2,4.59C380.35,641.67,359.9,641.67,359.84,641.67Z" transform="translate(0 0)"/><path class="cls-11" d="M355.81,515.06a2.5,2.5,0,1,1,4.94.72c0,.16-8.06,55.47-6.3,62.81,1.41,5.88,16.54,5.59,16.58,5.59a2.49,2.49,0,1,1,.12,5s-19.2.34-21.54-9.41C347.62,571.46,355.78,515.22,355.81,515.06Z" transform="translate(0 0)"/><path class="cls-11" d="M382.36,586.32a2.5,2.5,0,0,1-2.54-4.3s10.66-6.23,15.45-1.88a2.5,2.5,0,1,1-3.36,3.69C389.83,581.93,382.38,586.31,382.36,586.32Z" transform="translate(0 0)"/><path class="cls-12" d="M446.33,461.81c3.44,3.41,5.67,9,5.67,15.29,0,10.4-6.08,18.82-13.59,18.82-4.5,0-8.49-3-11-7.69h.65c5.44,0,9.85-2.12,9.85-4.74s-4.41-4.73-9.85-4.73a20.56,20.56,0,0,0-3.21.26c-.05-.63-.07-1.27-.07-1.93a23.93,23.93,0,0,1,2.58-11c5.86-1.56,12.37-3,18.93-4.26Zm-1,2.27c-2,0-3.67,1.94-3.67,4.34s1.64,4.34,3.67,4.34,3.67-1.95,3.67-4.34S447.4,464.08,445.37,464.08Z" transform="translate(0 0)"/><path class="cls-12" d="M315.26,466.54a23.93,23.93,0,0,1,2.56,11c0,10.4-6.09,18.82-13.59,18.82-4.5,0-8.49-3-11-7.69h.65c5.44,0,9.84-2.12,9.84-4.74s-4.4-4.73-9.84-4.73a20.69,20.69,0,0,0-3.22.26c0-.63-.06-1.27-.06-1.93,0-6.36,2.28-12,5.77-15.38,4.46.87,8.87,1.84,13,2.86a4.52,4.52,0,0,0-1.94,3.84c0,2.4,1.64,4.34,3.67,4.34s3.67-1.94,3.67-4.34a4.92,4.92,0,0,0-.75-2.64Z" transform="translate(0 0)"/><path class="cls-13" d="M413.15,454.05a2.49,2.49,0,1,1-4.71-1.64,17.3,17.3,0,0,1,5-7.09c5-4.44,12.66-7.47,20.4-8.91s15.62-1.31,20.93.56a12.76,12.76,0,0,1,5.4,3.36,2.49,2.49,0,1,1-3.71,3.31,8,8,0,0,0-3.33-2c-4.51-1.59-11.45-1.66-18.39-.37s-13.74,3.92-18,7.72A12.38,12.38,0,0,0,413.15,454.05Z" transform="translate(0 0)"/><path class="cls-13" d="M333,452.41a2.49,2.49,0,1,1-4.71,1.64,12.38,12.38,0,0,0-3.59-5c-4.24-3.8-11.05-6.43-18-7.72s-13.87-1.22-18.39.37a8,8,0,0,0-3.33,2,2.49,2.49,0,1,1-3.71-3.31,12.76,12.76,0,0,1,5.4-3.36c5.31-1.87,13.2-2,20.93-.56s15.44,4.47,20.4,8.91A17.3,17.3,0,0,1,333,452.41Z" transform="translate(0 0)"/></svg>