<svg id="Layer_1" data-name="Layer 1" xmlns="http://www.w3.org/2000/svg" viewBox="0 0 757 936"><defs><style>.cls-1{fill:#377639;}.cls-2,.cls-8{fill:#873f43;}.cls-2,.cls-3,.cls-4,.cls-5,.cls-6,.cls-7{fill-rule:evenodd;}.cls-3{fill:#f7c795;}.cls-4{fill:#eb8143;}.cls-5{fill:#fff;}.cls-6,.cls-9{fill:#d79e66;}.cls-7{fill:#fee0c2;}</style></defs><rect class="cls-1" width="757" height="936"/><path class="cls-2" d="M175,760.34c-33.12,11.26-75.52,41.73-75.52,41.73S71,868.31,64.35,895.47,56.4,936,56.4,936H700.93s-16.56-86.23-27.82-108.09-11.26-23.19-11.26-23.19-153-82.8-179.85-89.09c0,0-16.82-8.84-17.88-20-.58-6.1-.52-28.95-.35-48.32a137.06,137.06,0,0,1-80.4,24.09c-29.91-.89-60.15-21.17-80-44.82,1.68,23.46,3.31,50.76,2.45,57.94C303.17,706.9,189.48,755.41,175,760.34Z" transform="translate(0 0)"/><path class="cls-3" d="M237.92,392.45s-14.31,1.19-14.31,25,14.3,44.11,16.09,60.81,0,28,8.35,32.78,11.92,3,11.92,3,11.93,56,27.42,88.23,56,68,96,69.15,87.63-17.88,110.88-56S527,534.33,527,534.33s5.06,8.35,23.25-9.83,20.86-37.26,29.21-58.13,4.17-38.15-6-42.32-23.85,15.49-27.43,26.22-4.76,28.62-4.76,28.62-14.91-79.28-47.7-91.8-31.59-6.56-31.59-6.56,0-46.5-5.37-61.4l-5.36-14.91s9.54,51.27,3.58,65-20.27,21.46-20.27,21.46,16.69-41.73-7.16-77.49-72.13-43.52-75.71-43.52-57.23,38.75-59,68,1.8,28-2.38,34.57-16.69,14.91-19.67,23.25-17.29,50.08-17.29,50.08S246.26,383.51,237.92,392.45Z" transform="translate(0 0)"/><path class="cls-4" d="M290.37,372.18c4.18-6.55.6-5.36,2.38-34.57s55.45-68,59-68,51.87,7.75,75.71,43.52,7.16,77.49,7.16,77.49,14.3-7.75,20.27-21.46-3.58-65-3.58-65l5.36,14.91c5.19,14.39,5.36,58.28,5.37,61.24.11-.86,2.12-4.54,31.59,6.72,32.79,12.52,47.7,91.8,47.7,91.8s1.19-17.88,4.76-28.62,17.29-30.39,27.43-26.22c0,0,0-38.16,6-60.81s29.8-66.77-15.5-131.15-133.54-83.46-176.46-84.65S316,185.59,316,185.59s-65.58,7.16-82.27,41.73c-14.74,30.52-7.64,114,1.2,166a10.48,10.48,0,0,1,3-.85c8.34-8.94,15.49,53.06,15.49,53.06s14.31-41.73,17.29-50.08S286.2,378.74,290.37,372.18Z" transform="translate(0 0)"/><path class="cls-5" d="M289,703.66s25.54,36.07,63.13,56.18S398.72,781,404,777.31s44.47-22.76,56.64-37.06,3-27.65,12.05-31.08,17.71-1.31,26.07,5.15,10.58,40.76-48.18,70.93-43.93,22.23-58.75,22.23S271.9,751,258.29,721.55,289,703.66,289,703.66Z" transform="translate(0 0)"/><path class="cls-6" d="M464.12,695.67c-.58-6.1-.52-28.95-.35-48.32a137.06,137.06,0,0,1-80.4,24.09c-29.91-.89-60.15-21.17-80-44.82,1.68,23.46,3.31,50.76,2.45,57.94-.63,5.2-7.27,11.83-17.29,19l.45.11s25.54,36.07,63.13,56.18S398.72,781,404,777.31s44.47-22.76,56.64-37.06,3-27.65,12.05-31.08C468.61,705.63,464.62,700.91,464.12,695.67Z" transform="translate(0 0)"/><path class="cls-5" d="M139,936c-.92-69.63-39.51-133.93-39.51-133.93S71,868.31,64.35,895.47,56.4,936,56.4,936Z" transform="translate(0 0)"/><path class="cls-5" d="M700.93,936s-16.56-86.23-27.82-108.09-11.26-23.19-11.26-23.19C627.22,838.24,627.66,936,627.66,936Z" transform="translate(0 0)"/><path class="cls-5" d="M343.39,573.92s31.25,18.75,66.87,16.25,40.63-7.5,40.63-7.5S426.51,627,387.14,617,343.39,573.92,343.39,573.92Z" transform="translate(0 0)"/><path class="cls-6" d="M417.49,487.13a2.49,2.49,0,0,1,4.92-.8c0,.14,8.59,51.13,3.8,60-4.87,9-24.85,14.93-24.91,14.95a2.49,2.49,0,1,1-1.45-4.76s18.09-5.35,22-12.55C425.78,536.63,417.51,487.27,417.49,487.13Z" transform="translate(0 0)"/><path class="cls-6" d="M390.71,549.9a2.5,2.5,0,0,1,1,4.91l-15.63,3.12a2.5,2.5,0,1,1-1-4.9Z" transform="translate(0 0)"/><path class="cls-6" d="M371.83,626.73s7.5,4.07,22.19,4.07,19.06-2.5,19.06-2.5S388.71,650.8,371.83,626.73Z" transform="translate(0 0)"/><path class="cls-6" d="M234,427s-1.79-13.71,3.27-7.75,9.25,26.82,9.25,31.89-7.16,5.07-1.2,12.52a95.36,95.36,0,0,0,8.95,10.14s-5.37,5.06-6.86,10.73-1.49,6-1.49,6S230.12,448.25,234,427Z" transform="translate(0 0)"/><path class="cls-6" d="M568.77,440.74S550,458.92,550,464.59s8.94,6,2.68,13.71-11,11.32-11.92,17.88,6-2.38,8.34,3,2.39,6,2.39,6S586.65,433.29,568.77,440.74Z" transform="translate(0 0)"/><path class="cls-2" d="M327.39,363.28a69.24,69.24,0,1,1-49,20.28,69,69,0,0,1,49-20.28Zm37.66,31.6a53.26,53.26,0,1,0,15.59,37.65A53.08,53.08,0,0,0,365.05,394.88Z" transform="translate(0 0)"/><path class="cls-2" d="M479.9,363.28a69.24,69.24,0,1,1-49,20.28,69,69,0,0,1,49-20.28Zm37.65,31.6a53.26,53.26,0,1,0,15.59,37.65A53.08,53.08,0,0,0,517.55,394.88Z" transform="translate(0 0)"/><path class="cls-2" d="M381.36,435.59c.05,0,15.82-19.37,41.44-1.12l-9.25,13c-13.43-9.56-19.8-1.77-19.81-1.74Z" transform="translate(0 0)"/><path class="cls-2" d="M357.74,370.53c.18,0,62.78-7.61,89.21,6.44l-7.5,14.12c-22-11.68-79.73-4.71-79.9-4.69Z" transform="translate(0 0)"/><path class="cls-7" d="M327.39,485.78a53.24,53.24,0,1,0-37.65-15.6A53.08,53.08,0,0,0,327.39,485.78Z" transform="translate(0 0)"/><path class="cls-7" d="M479.9,485.78a53.24,53.24,0,1,0-37.66-15.6A53.08,53.08,0,0,0,479.9,485.78Z" transform="translate(0 0)"/><path class="cls-2" d="M328.18,412.21c7.51,0,13.59,8.43,13.59,18.82s-6.08,18.82-13.59,18.82c-4.5,0-8.49-3-11-7.69h.65c5.44,0,9.85-2.12,9.85-4.73s-4.41-4.74-9.85-4.74a20.56,20.56,0,0,0-3.21.26c-.05-.63-.07-1.27-.07-1.93,0-10.39,6.08-18.82,13.59-18.82Zm7,5.8c-2,0-3.67,1.94-3.67,4.34s1.64,4.34,3.67,4.34,3.67-1.94,3.67-4.34S337.17,418,335.14,418Z" transform="translate(0 0)"/><path class="cls-2" d="M479.9,412.21c7.5,0,13.59,8.43,13.59,18.82s-6.09,18.82-13.59,18.82c-4.51,0-8.49-3-11-7.69h.66c5.43,0,9.84-2.12,9.84-4.73s-4.41-4.74-9.84-4.74a20.59,20.59,0,0,0-3.22.26c0-.63-.07-1.27-.07-1.93,0-10.39,6.09-18.82,13.6-18.82Zm7,5.8c-2,0-3.68,1.94-3.68,4.34s1.65,4.34,3.68,4.34,3.67-1.94,3.67-4.34S488.88,418,486.86,418Z" transform="translate(0 0)"/><rect class="cls-8" x="251.79" y="401.75" width="18.21" height="15.34"/><rect class="cls-8" x="543.46" y="411.26" width="15.34" height="18.21" transform="translate(118.32 961.77) rotate(-88.69)"/><path class="cls-2" d="M464.68,399.26a2.49,2.49,0,0,1-3.21-3.81s8.4-7.34,24.26-4.3c16.72,3.2,16.72,14,16.72,14a2.5,2.5,0,0,1-5,0s0-6.7-12.66-9.12C471.29,393.46,464.7,399.24,464.68,399.26Z" transform="translate(0 0)"/><path class="cls-2" d="M311.55,399.26a2.49,2.49,0,0,1-3.2-3.81s8.39-7.34,24.26-4.3c16.71,3.2,16.71,14,16.71,14a2.5,2.5,0,0,1-5,0s0-6.7-12.65-9.12C318.16,393.46,311.57,399.24,311.55,399.26Z" transform="translate(0 0)"/><circle class="cls-9" cx="345.74" cy="517.67" r="3.75"/><path class="cls-6" d="M329.18,537.36a3.75,3.75,0,1,0-3.75-3.75A3.76,3.76,0,0,0,329.18,537.36Z" transform="translate(0 0)"/><path class="cls-6" d="M316.37,521.11a3.75,3.75,0,1,0-3.75-3.75A3.76,3.76,0,0,0,316.37,521.11Z" transform="translate(0 0)"/><path class="cls-6" d="M489.18,520.17a3.75,3.75,0,1,0-3.75-3.75A3.76,3.76,0,0,0,489.18,520.17Z" transform="translate(0 0)"/><path class="cls-6" d="M472.62,536.11a3.75,3.75,0,1,0-3.75-3.75A3.76,3.76,0,0,0,472.62,536.11Z" transform="translate(0 0)"/><path class="cls-6" d="M459.81,519.86a3.75,3.75,0,1,0-3.75-3.75A3.76,3.76,0,0,0,459.81,519.86Z" transform="translate(0 0)"/></svg>