<svg id="Layer_1" data-name="Layer 1" xmlns="http://www.w3.org/2000/svg" viewBox="0 0 757.33 936"><defs><style>.cls-1{fill:#bb7075;}.cls-2,.cls-9{fill:#66c1af;}.cls-10,.cls-11,.cls-2,.cls-3,.cls-4,.cls-5,.cls-6,.cls-8{fill-rule:evenodd;}.cls-3{fill:#feca82;}.cls-4{fill:#f7f7cb;}.cls-5{fill:#d6a35b;}.cls-6{fill:#88d0c4;}.cls-7,.cls-8{fill:#ffe0b5;}.cls-10{fill:#010101;}.cls-11{fill:#2e211b;}</style></defs><rect class="cls-1" width="757.33" height="936"/><path class="cls-2" d="M282.35,738.88c-19.09,10-51.86,26.47-72.69,33.56-30.84,10.48-70.32,38.86-70.32,38.86s-26.52,61.67-32.69,87S99.25,936,99.25,936H699.41S684,855.71,673.5,835.35,663,813.76,663,813.76s-106.09-57.41-151.23-76.91c1.93-20.89.42-90.17-3.75-98.6-2-4.08-14.42-7.55-33.47-10.08C466,637,457.91,644,451.82,647.62c-21.41,12.6-55.42,21.42-87.53,6.93-11.72-5.28-26.11-16-40.09-28.3-35.72,3.69-37.47,10.56-43,15.93C275.46,647.7,280.24,713.14,282.35,738.88Z" transform="translate(0.17 0)"/><path class="cls-3" d="M232,407.06s-15.74-13.85-15.74,13.23,10.07,60.45,13.22,71.79,24.56,31.48,24.56,31.48,8.19,28.35,17,44.72,61.08,71.79,93.2,86.27,66.12,5.67,87.53-6.93S519.2,579,525.5,558.83s10.7-40.93,10.7-40.93a44.64,44.64,0,0,0,17.64-27.08c3.78-18.26,3.78-33.38,8.19-51s.94-36.53-2.52-34.95-4.73,1.57-6,12.59S550.38,443,550.38,443s-2.21-54.79-2.21-61.72S557,312.6,548.8,295s-33.38-32.75-42.19-39.68-10.71-9.44-10.71-9.44-32.75,4.4-56.68,3.15-38.41,5.66-69.9,5.66-77.46,4.41-94.46,15.12-18.26,15.11-15.11,40.93S261,329.6,250.93,346s-11.33,72.73-8.81,92.25S245.26,477,245.26,477Z" transform="translate(0.17 0)"/><path class="cls-4" d="M557.54,405.79c.73-17.58,4.64-38.71,8-61.07,4.09-27.71-5.36-67.38-16.69-91.94S503.46,220,503.46,220a106.08,106.08,0,0,0,4.41-37.16c-1.26-20.78-30.23-44.08-98.24-54.79S288.72,138.16,266,155.16s-35.89,61.09-35.89,61.09-6.93,27.08-12.6,61.09S232,407.06,232,407.06L245.26,477s-.63-19.2-3.14-38.73-1.26-75.88,8.81-92.25,12-9.45,8.82-35.27-1.89-30.23,15.11-40.93,63-15.12,94.46-15.12,46-6.92,69.9-5.66,56.68-3.15,56.68-3.15,1.89,2.52,10.71,9.44,34,22,42.19,39.68-.63,79.35-.63,86.27S550.38,443,550.38,443s1.88-14.48,3.15-25.51C554.51,408.83,555.5,407,557.54,405.79Z" transform="translate(0.17 0)"/><path class="cls-5" d="M484.7,644.28a.55.55,0,0,1,.13.43c-.49,3.45-39.43,26.61-92.17,24.64C346,667.61,304,648.52,308.55,643.79h0a3.44,3.44,0,0,1,1.77-.79,8.83,8.83,0,0,0,3.95-5.18c.58-1.94.4-10.69,0-20.61,16.88,15.89,35.52,30.8,50,37.35,32.11,14.49,66.12,5.67,87.53-6.93,7.87-4.62,19-15.11,30.35-27.53h0C480.68,630.05,484,641.92,484.7,644.28Z" transform="translate(0.17 0)"/><path class="cls-6" d="M308.56,643.78Zm0,0Zm84.11,25.56c-46.64-1.74-88.65-20.83-84.1-25.57a3.44,3.44,0,0,1,1.77-.79,8.83,8.83,0,0,0,3.95-5.18c.36-1.22.43-5.15.32-10.38-26.51,3.85-28.42,9.91-33.43,14.75-5.71,5.52-.93,71,1.18,96.7,0,0,77,67.93,229.43-2,1.93-20.89.42-90.17-3.75-98.6-1.75-3.53-11.25-6.6-26.11-9a75.46,75.46,0,0,0,2.78,15,.59.59,0,0,1,.13.43C484.34,648.16,445.4,671.32,392.66,669.35Z" transform="translate(0.17 0)"/><path class="cls-2" d="M319.31,352.56a66.87,66.87,0,1,1-66.88,66.87,66.87,66.87,0,0,1,66.88-66.87Zm0,21.24a45.63,45.63,0,1,0,45.62,45.63A45.63,45.63,0,0,0,319.31,373.8Z" transform="translate(0.17 0)"/><circle class="cls-7" cx="319.31" cy="419.43" r="45.63" transform="translate(-51.77 45.19) rotate(-7.49)"/><path class="cls-2" d="M473.68,352.56a66.87,66.87,0,1,1-66.87,66.87,66.87,66.87,0,0,1,66.87-66.87Zm0,21.24a45.63,45.63,0,1,0,45.63,45.63A45.62,45.62,0,0,0,473.68,373.8Z" transform="translate(0.17 0)"/><path class="cls-8" d="M473.68,465.06a45.63,45.63,0,1,0-45.62-45.63A45.63,45.63,0,0,0,473.68,465.06Z" transform="translate(0.17 0)"/><path class="cls-2" d="M370.5,432.93c.06-.05,23.83-19.35,48.35-.37l-6.09,7.89c-18.28-14.15-36,.21-36,.25Z" transform="translate(0.17 0)"/><path class="cls-2" d="M357.23,368.87c.16,0,53.41-3.5,74,3.38l-3.13,9.45c-18.74-6.24-70.18-2.88-70.33-2.87Z" transform="translate(0.17 0)"/><rect class="cls-9" x="236.14" y="389.48" width="29.38" height="14.68"/><rect class="cls-9" x="524.04" y="389.48" width="29.37" height="14.68"/><path class="cls-10" d="M353.15,586.42a2,2,0,1,1-.63-3.93c18.84-3,34.8-4.86,49.59-4.69a129.71,129.71,0,0,1,42.63,7.27,2,2,0,0,1-1.31,3.77,126,126,0,0,0-41.36-7.06C387.55,581.62,371.79,583.42,353.15,586.42Z" transform="translate(0.17 0)"/><path class="cls-10" d="M412.8,491.22a2,2,0,0,1,3.86-1c0,.08,7.67,28.75,2.42,41.87-5.37,13.43-20.69,17.42-20.73,17.44a2,2,0,1,1-1-3.87s13.38-3.49,18-15.06C420.13,518.72,412.82,491.3,412.8,491.22Z" transform="translate(0.17 0)"/><path class="cls-10" d="M385.8,541a2,2,0,1,1-4,0s0,.48-1.94,1.7l-2.11-3.39C385.8,534.3,385.8,541,385.8,541Zm0,0h0Zm-5.95,1.7-2.11-3.39a2,2,0,0,0,2.11,3.39Z" transform="translate(0.17 0)"/><path class="cls-11" d="M474.15,394.21c7.5,0,13.59,8.42,13.59,18.82s-6.09,18.81-13.59,18.81c-4.5,0-8.49-3-11-7.69h.65c5.44,0,9.84-2.11,9.84-4.73s-4.4-4.73-9.84-4.73a19.44,19.44,0,0,0-3.22.26c0-.64-.07-1.28-.07-1.93,0-10.4,6.09-18.82,13.6-18.82Zm7,5.79c-2,0-3.68,1.95-3.68,4.34s1.65,4.34,3.68,4.34,3.67-1.94,3.67-4.34S483.14,400,481.11,400Z" transform="translate(0.17 0)"/><path class="cls-11" d="M320.52,394.21c7.51,0,13.59,8.42,13.59,18.82s-6.08,18.81-13.59,18.81c-4.5,0-8.49-3-11-7.69h.65c5.44,0,9.85-2.11,9.85-4.73s-4.41-4.73-9.85-4.73A19.41,19.41,0,0,0,307,415c-.05-.64-.07-1.28-.07-1.93,0-10.4,6.08-18.82,13.59-18.82Zm7,5.79c-2,0-3.67,1.95-3.67,4.34s1.64,4.34,3.67,4.34,3.67-1.94,3.67-4.34S329.51,400,327.48,400Z" transform="translate(0.17 0)"/><path class="cls-10" d="M459.3,390.23a2,2,0,1,1-2.86-2.78c.06-.05,17.6-18.27,36.84-.71a2,2,0,1,1-2.69,2.95C474.22,374.75,459.35,390.19,459.3,390.23Z" transform="translate(0.17 0)"/><path class="cls-10" d="M305.71,390.23a2,2,0,1,1-2.86-2.78c0-.05,17.59-18.27,36.84-.71a2,2,0,0,1-2.69,2.95C320.62,374.75,305.75,390.19,305.71,390.23Z" transform="translate(0.17 0)"/></svg>