<svg id="Layer_1" data-name="Layer 1" xmlns="http://www.w3.org/2000/svg" viewBox="0 0 757.33 936"><defs><style>.cls-1{fill:#70c2a4;}.cls-2{fill:#ffe1a7;}.cls-10,.cls-11,.cls-12,.cls-13,.cls-14,.cls-15,.cls-2,.cls-3,.cls-4,.cls-5,.cls-6,.cls-7,.cls-8,.cls-9{fill-rule:evenodd;}.cls-3{fill:#7f373f;}.cls-4{fill:#f26f6c;}.cls-5{fill:#fff3ce;}.cls-6{fill:#c43b37;}.cls-7{fill:#dc5451;}.cls-8{fill:#462e15;}.cls-9{fill:#debc78;}.cls-10{fill:#010101;}.cls-11{fill:#fff2d5;}.cls-12{fill:#b96872;}.cls-13{fill:#a18242;}.cls-14{fill:#9a6139;}.cls-15{fill:#612129;}</style></defs><rect class="cls-1" width="757.33" height="936"/><path class="cls-2" d="M254.37,356.53S250,393.22,235.77,396s-50,8.51-50,8.51,5,28.09,16.64,54.11,26,40.65,33,38.06a24.08,24.08,0,0,0,10.46-7.26c5.05,60.38,57.37,143.36,111.61,160,27.9,8.54,58.33,2.81,72-6.2s60.6-66.59,66.72-84.09,13.13-46.22,13.13-46.22,18.8-.78,24.08-27.4,8.24-46.73,10.67-51.8a37.64,37.64,0,0,0,3.08-8.51,119.36,119.36,0,0,1-9.27-16.56l-3.68-8.36s-3.92,25.52-8.92,39.53l-5,14s6.43-87.21,2.75-116.39-4.52-38.29-5.36-47.4-1.47-15.83-1.47-15.83-28.22-1.74-51.8-10.68-23.23-15.75-38.71-10.44-18.56,13.82-18.56,13.82-26.76-12-42.73-17.33-26.15-10.64-53-2.83-48.14,7.86-45.52,36.16S274.12,329.53,254.37,356.53Z" transform="translate(0.33 0)"/><path class="cls-3" d="M241.34,615.16l4.55-125.75a24.08,24.08,0,0,1-10.46,7.26c-7,2.59-21.44-12-33-38.06s-16.64-54.11-16.64-54.11,28.66-4.59,44.9-7.55c.73,9.92,2.2,28.72,3.47,38.64,1.77,13.87,14.53,34,14.28,31.33s-2.79-32.64-2.82-51.27c0-9.47.4-21,.82-30v0c5.92-11.73,8-29.09,8-29.09,19.75-27,14.18-45.35,11.55-73.66s18.66-28.34,45.52-36.16,37-2.46,53,2.83,42.73,17.33,42.73,17.33,3.09-8.52,18.56-13.82,15.14,1.5,38.71,10.44,51.8,10.68,51.8,10.68L517.72,290c.84,9.11,1.69,18.23,5.36,47.4s-2.75,116.39-2.75,116.39l5-14c5-14,8.92-39.53,8.92-39.53l3.68,8.36a119.36,119.36,0,0,0,9.27,16.56,37.64,37.64,0,0,1-3.08,8.51c-2.43,5.07-5.4,25.18-10.67,51.8s-24.08,27.4-24.08,27.4-7,28.71-13.13,46.22c-1.37,3.91-4.77,9.82-9.39,16.75,11.35,2.28,28.24,1.89,40.78-14.83,20.67-27.56,9-48.74,16.25-59.57s6.26,15.39,10.17,5.35,16.44-52.34,22-60.11,29.29,7.93,26.67,5.75-14.26-18-6.06-44.44c8.63-27.79-48.73-79.14-17.68-101.91,9.06-6.65,23-54.39,8.28-98.51s-71.9-55.27-71.9-55.27-19.05-17.58-48.66-34.19-145.64-15.53-220.86,18.55-68.28,88.11-70.05,121.18-6.41,50.92-18.23,74.76-21.11,75-19.67,95.69,14.93,30.56,14.93,30.56l7.87-14.28A292.79,292.79,0,0,1,164.45,480c.78,18.8,3.88,47.06,11.4,55.07s9.85-3.33,9.85-3.33,4.38,31.53,15.45,51.8S241.34,615.16,241.34,615.16Z" transform="translate(0.33 0)"/><path class="cls-4" d="M242.53,582.19s-24.09,40.47-35.65,55.89-23.13,21.2-23.13,21.2l-22.16,94.44s40.47-27.47,61.67-36.63,50.11,6.75,50.11,6.75S243.5,619.29,242.53,582.19Z" transform="translate(0.33 0)"/><path class="cls-5" d="M273.37,723.84s40.47,26.5,45.3,56.37S348.53,872.72,364,895.85c9.37,14.06,26.57,29.89,38.63,40.15h14.48c3.2-31.39,13.26-121.53,25.91-150,15.42-34.7,30.83-83.84,29.87-101.19l-1-17.34s-33.73,77.09-86.24,72.75-122.52-54.29-122.52-54.29Z" transform="translate(0.33 0)"/><path class="cls-4" d="M577.39,694.45a320.08,320.08,0,0,1-24.57-22.17c-9.48-9.48-56.61-52.51-81.45-75.13-7.06,9.11-14.7,18.34-21.67,26.19a62.34,62.34,0,0,0-.47,10.4c1,9.63,22.65,33.73,22.65,33.73l1,17.34c1,17.35-14.45,66.49-29.87,101.19a131.31,131.31,0,0,0-6.49,20.39c20.63-33.59,53.11-56.18,55.63-62.32,3.37-8.19,29.39-22.65,39-27.94s18.79-16.87,19.27-26.5S577.39,694.45,577.39,694.45Z" transform="translate(0.33 0)"/><path class="cls-6" d="M588,720.94c-1.69-11.8-10.6-26.49-10.6-26.49s-26.49-14.46-27-4.82a21.1,21.1,0,0,1-1.28,6c14.19,10.65,40.31,40.25,40.31,40.25S589.68,732.75,588,720.94Z" transform="translate(0.33 0)"/><path class="cls-7" d="M364,895.85c-15.42-23.13-40.47-85.77-45.28-115.64s-45.3-56.37-45.3-56.37-28.91-15.9-50.11-6.75-61.67,36.63-61.67,36.63l19.25-82c-24,14.73-60.78,37-74.91,43.24C95.77,719.44,83.58,726,73.51,731.64c-11.4,6.41-20.1,11.71-20.1,11.71s-25.47,27-53.74,89.8V936H402.58c-12.06-10.26-29.26-26.09-38.63-40.15ZM708.36,936H757V814.6c-21.8-63.69-48.64-84.74-48.64-84.74-8.22-6-86.41-29.68-144-46.62,7.62,6.9,13,11.21,13,11.21s8.91,14.69,10.6,26.49,1.45,14.94,1.45,14.94-26.12-29.6-40.31-40.25c-2.92,8-10.3,16.26-18,20.5-9.64,5.29-35.66,19.75-39,27.94-2.52,6.14-35,28.73-55.63,62.32C427,844.71,419.69,910.19,417.06,936Z" transform="translate(0.33 0)"/><path class="cls-8" d="M407.06,770.33c18.54-2.32,36.13-12,51.24-23.62,8.8-25.61,15.18-50.55,14.54-61.9l-1-17.34s-33.72,77.09-86.24,72.75-122.52-54.29-122.52-54.29l10.25,37.91.16.11.07,0C278.3,727.1,354.78,776.86,407.06,770.33Z" transform="translate(0.33 0)"/><path class="cls-9" d="M429.51,643.19c-13.68,9-44.11,14.74-72,6.2-54.24-16.62-106.56-99.6-111.61-160l-3.36,92.78c.59,22.54,11.85,70,20.59,103.74,0,0,70,50,122.52,54.29s86.24-72.75,86.24-72.75-21.69-24.1-22.65-33.73a62.34,62.34,0,0,1,.47-10.4C441.24,632.88,433.77,640.39,429.51,643.19Z" transform="translate(0.33 0)"/><path class="cls-10" d="M497,354.57c17.43,0,33.16,8.13,44.47,21.27,11.06,12.84,17.9,30.47,17.9,49.86s-6.84,37-17.9,49.85c-11.31,13.14-27,21.27-44.47,21.27s-33.17-8.13-44.48-21.27c-11.06-12.83-17.9-30.46-17.9-49.85s6.84-37,17.9-49.86c11.31-13.14,27-21.27,44.48-21.27Zm32.41,31.71c-8.35-9.7-19.82-15.71-32.41-15.71s-24.07,6-32.42,15.71c-8.62,10-14,23.94-14,39.42s5.34,29.4,14,39.42c8.35,9.7,19.82,15.7,32.42,15.7s24.06-6,32.41-15.7c8.63-10,14-23.94,14-39.42S538,396.29,529.36,386.28Z" transform="translate(0.33 0)"/><path class="cls-10" d="M349.72,341.15c19.78,0,37.62,9.23,50.47,24.15,12.59,14.62,20.38,34.71,20.38,56.81s-7.79,42.19-20.38,56.81c-12.85,14.92-30.69,24.15-50.47,24.15s-37.62-9.23-50.47-24.15c-12.59-14.62-20.38-34.71-20.38-56.81s7.79-42.19,20.38-56.81c12.85-14.92,30.7-24.15,50.47-24.15Zm38.41,34.59c-9.89-11.49-23.48-18.59-38.41-18.59s-28.51,7.1-38.41,18.59c-10.15,11.79-16.44,28.18-16.44,46.37s6.29,34.58,16.44,46.37c9.9,11.49,23.48,18.59,38.41,18.59s28.52-7.1,38.41-18.59c10.15-11.79,16.44-28.18,16.44-46.37S398.28,387.53,388.13,375.74Z" transform="translate(0.33 0)"/><path class="cls-11" d="M311.31,468.48c9.9,11.49,23.48,18.59,38.41,18.59s28.52-7.1,38.41-18.59c10.15-11.79,16.44-28.18,16.44-46.37s-6.29-34.58-16.44-46.37c-9.89-11.49-23.48-18.59-38.41-18.59s-28.51,7.1-38.41,18.59c-10.15,11.79-16.44,28.18-16.44,46.37S301.16,456.69,311.31,468.48Z" transform="translate(0.33 0)"/><path class="cls-12" d="M524,380.93c-.83,34.38-3.67,72.86-3.67,72.86l5-14c5-14,8.92-39.53,8.92-39.53l3.68,8.36a100.05,100.05,0,0,0,5,9.68,59,59,0,0,0-13.54-32A49.22,49.22,0,0,0,524,380.93Z" transform="translate(0.33 0)"/><path class="cls-11" d="M450.57,425.7c0,15.48,5.34,29.4,14,39.42,8.35,9.7,19.82,15.7,32.42,15.7s24.06-6,32.41-15.7c8.63-10,14-23.94,14-39.42a64.43,64.43,0,0,0-.42-7.41,100.05,100.05,0,0,1-5-9.68l-3.68-8.36s-3.92,25.52-8.92,39.53l-5,14s2.84-38.48,3.67-72.86A41.51,41.51,0,0,0,497,370.57c-12.6,0-24.07,6-32.42,15.71C455.91,396.29,450.57,410.22,450.57,425.7Z" transform="translate(0.33 0)"/><path class="cls-10" d="M405.74,440.9c.06,0,22.16-15,45,.69l-5.66,8.2c-17.18-11.81-33.73-.6-33.77-.57Z" transform="translate(0.33 0)"/><path class="cls-10" d="M386.56,356.65c.15,0,51.43-4.48,82.24,7.85l-3.71,9.25c-28.55-11.42-77.61-7.16-77.75-7.15Z" transform="translate(0.33 0)"/><path class="cls-10" d="M305.08,370.68H283.51l-69.37,13.13,7.19,3.12s-9.07,1.57-7.51,4.07,7.51,3.43,7.51,3.43,61.66-8.74,63.12-8.12,9.37.31,9.37.31Z" transform="translate(0.33 0)"/><path class="cls-13" d="M439.18,487.64a2.49,2.49,0,0,1,4.92-.8c0,.1,5.66,35.26,5,49.88-.72,16.37-26.33,21.08-26.41,21.1a2.5,2.5,0,0,1-.92-4.91c.07,0,21.81-4,22.35-16.4C444.76,522.38,439.19,487.74,439.18,487.64Z" transform="translate(0.33 0)"/><path class="cls-14" d="M359.29,398.17c8.71,0,15.77,9.77,15.77,21.83s-7.06,21.83-15.77,21.83c-5.22,0-9.85-3.51-12.72-8.92h.76c6.31,0,11.42-2.46,11.42-5.49s-5.11-5.49-11.42-5.49a23.39,23.39,0,0,0-3.73.3c-.06-.74-.08-1.48-.08-2.24,0-12.06,7.06-21.83,15.77-21.83Zm8.07,6.72c-2.35,0-4.26,2.25-4.26,5s1.91,5,4.26,5,4.26-2.25,4.26-5S369.72,404.89,367.36,404.89Z" transform="translate(0.33 0)"/><path class="cls-14" d="M505.18,407.06c7.18,0,13,8.07,13,18s-5.83,18-13,18c-4.31,0-8.13-2.89-10.49-7.36h.62c5.2,0,9.42-2,9.42-4.53s-4.22-4.53-9.42-4.53a19,19,0,0,0-3.08.25c0-.6-.06-1.22-.06-1.85,0-9.94,5.82-18,13-18Zm6.66,5.55c-1.94,0-3.52,1.86-3.52,4.16s1.58,4.15,3.52,4.15,3.51-1.86,3.51-4.15S513.78,412.61,511.84,412.61Z" transform="translate(0.33 0)"/><path class="cls-13" d="M435.78,577.07a2.49,2.49,0,0,1,1.69,4.69c-.07,0-26.43,9.67-52.24,1.28a2.5,2.5,0,1,1,1.54-4.75C411,586.15,435.7,577.1,435.78,577.07Z" transform="translate(0.33 0)"/><path class="cls-13" d="M384.17,380.7a4,4,0,1,1-5.72,5.56c0-.05-15.94-16.5-28.42-13.58-11.68,2.74-11.92,13.07-11.92,13.1a4,4,0,0,1-8-.22,22.51,22.51,0,0,1,18.08-20.66C365.11,361,384.12,380.64,384.17,380.7Z" transform="translate(0.33 0)"/><path class="cls-13" d="M491.11,392.76a4,4,0,0,1-5.85-5.44c.06-.06,19.18-20.64,36.91-3.94a4,4,0,0,1-5.47,5.82C504.82,378,491.14,392.72,491.11,392.76Z" transform="translate(0.33 0)"/><path class="cls-15" d="M517.72,290c.84,9.11,1.69,18.23,5.36,47.4a218.81,218.81,0,0,1,1.14,24.31,60.94,60.94,0,0,1,9.33,6.39c15.23-38.81,30-114.94,30-114.94s-1.88,7.5-13.75,16.88-33.5,4.13-33.5,4.13Z" transform="translate(0.33 0)"/></svg>